<?xml version="1.0" encoding="UTF-8"?>
<svg width="103px" height="84px" viewBox="0 0 103 84" version="1.1" xmlns="http://www.w3.org/2000/svg" xmlns:xlink="http://www.w3.org/1999/xlink">
    <title>Stroke 1</title>
    <g id="Ideal-(Renovado)-Ultima-Version" stroke="none" stroke-width="1" fill="none" fill-rule="evenodd">
        <g id="D-1.0creacion-exitosa" transform="translate(-669.000000, -305.000000)" stroke="#06A94E" stroke-width="5">
            <g id="Modal" transform="translate(510.000000, 264.000000)">
                <path d="M258.393,68.167 L254.184,63.912 C253.488,63.2 252.352,63.2 251.64,63.897 L235.772,79.645 L228.882,72.709 C228.185,71.998 227.05,71.998 226.338,72.694 L222.083,76.919 C221.372,77.615 221.372,78.751 222.068,79.463 L234.439,91.924 C235.135,92.636 236.271,92.636 236.983,91.939 L258.378,70.71 C259.075,69.999 259.09,68.863 258.393,68.167 Z M209.485,87.609 L206.956,87.609 C203.595,89.153 199.855,90.032 195.918,90.032 C191.981,90.032 188.256,89.153 184.879,87.609 L182.351,87.609 C171.116,87.609 162,96.724 162,107.959 L162,114.259 C162,118.271 165.256,121.527 169.269,121.527 L222.568,121.527 C226.581,121.527 229.835,118.271 229.835,114.259 L229.835,107.959 C229.835,96.724 220.72,87.609 209.485,87.609 Z M195.918,82.764 C206.623,82.764 215.299,74.087 215.299,63.382 C215.299,52.677 206.623,44 195.918,44 C185.213,44 176.537,52.677 176.537,63.382 C176.537,74.087 185.213,82.764 195.918,82.764 Z" id="Stroke-1"></path>
            </g>
        </g>
    </g>
</svg>