<?xml version="1.0" encoding="UTF-8"?>
<svg width="92px" height="60px" viewBox="0 0 92 60" version="1.1" xmlns="http://www.w3.org/2000/svg" xmlns:xlink="http://www.w3.org/1999/xlink">
    <title>Fill 1</title>
    <g id="Ideal-(Renovado)-Ultima-Version" stroke="none" stroke-width="1" fill="none" fill-rule="evenodd">
        <g id="D-1.0.1" transform="translate(-674.000000, -304.000000)" fill="#0073B8">
            <g id="Modal" transform="translate(510.000000, 251.000000)">
                <g id="Group-3" transform="translate(164.000000, 53.000000)">
                    <path d="M8.6025,52.5 L8.6025,23.5 C12.7095,26.352 18.5345,30.353 27.4115,36.413 C31.3285,39.102 38.1885,45.036 45.8825,45 C53.5385,45.036 60.3115,39.187 64.3525,36.415 C73.2295,30.354 79.0545,26.352 83.1625,23.5 L83.1625,52.5 L8.6025,52.5 Z M83.1625,7.5 L83.1625,13.876 C79.1435,16.729 72.7365,21.165 59.0405,30.515 C56.0215,32.584 50.0425,37.557 45.8825,37.5 C41.7225,37.558 35.7425,32.584 32.7245,30.515 C19.0305,21.167 12.6225,16.729 8.6025,13.876 L8.6025,7.5 L83.1625,7.5 Z M83.1625,0 L8.6025,0 C3.8515,0 -0.0005,3.358 -0.0005,7.5 L-0.0005,52.5 C-0.0005,56.642 3.8515,60 8.6025,60 L83.1625,60 C87.9135,60 91.7645,56.642 91.7645,52.5 L91.7645,7.5 C91.7645,3.358 87.9135,0 83.1625,0 L83.1625,0 Z" id="Fill-1"></path>
                </g>
            </g>
        </g>
    </g>
</svg>