<?xml version="1.0" encoding="UTF-8"?>
<svg width="81px" height="83px" viewBox="0 0 81 83" version="1.1" xmlns="http://www.w3.org/2000/svg" xmlns:xlink="http://www.w3.org/1999/xlink">
    <title>Group 29</title>
    <defs>
        <polygon id="path-1" points="0 0.8224 75.6525 0.8224 75.6525 74.5464 0 74.5464"></polygon>
        <polygon id="path-3" points="0.4289 0.3584 36.999888 0.3584 36.999888 36 0.4289 36"></polygon>
    </defs>
    <g id="Ideal-(Renovado)-Ultima-Version" stroke="none" stroke-width="1" fill="none" fill-rule="evenodd">
        <g id="D-7.1" transform="translate(-679.000000, -143.000000)">
            <g id="Group-3" transform="translate(338.000000, 107.000000)">
                <g id="Group-29" transform="translate(341.000000, 36.178000)">
                    <g id="Group-28" transform="translate(0.000000, 0.000000)">
                        <g id="Group-4">
                            <mask id="mask-2" fill="white">
                                <use xlink:href="#path-1"></use>
                            </mask>
                            <g id="Clip-3"></g>
                            <path d="M4.7285,19.2534 L4.7285,6.5034 C4.7655,6.2374 5.4395,5.4294 6.4535,5.4294 L61.4675,5.4294 L63.8315,5.4294 L69.1995,5.4294 C70.2125,5.4294 70.8875,6.2374 70.9245,6.4844 L70.9245,19.2534 L4.7285,19.2534 Z M69.1995,0.8224 L63.8315,0.8224 L61.4675,0.8224 L6.4535,0.8224 C3.0755,0.8224 -0.0005,3.5224 -0.0005,6.4844 L-0.0005,67.6354 C-0.0005,71.5744 2.7745,74.5464 6.4535,74.5464 L44.9185,74.5464 C46.2255,74.5464 47.2825,73.5164 47.2825,72.2434 C47.2825,70.9694 46.2255,69.9394 44.9185,69.9394 L6.4535,69.9394 C5.4205,69.9394 4.7285,69.0124 4.7285,67.6354 L4.7285,23.8604 L70.9245,23.8604 L70.9245,44.5964 C70.9245,45.8694 71.9815,46.8994 73.2885,46.8994 C74.5945,46.8994 75.6525,45.8694 75.6525,44.5964 L75.6525,6.4844 C75.6525,3.5224 72.5775,0.8224 69.1995,0.8224 L69.1995,0.8224 Z" id="Fill-2" fill="#0073B8" mask="url(#mask-2)"></path>
                        </g>
                        <path d="M11.8208,14.6455 L11.8208,14.6455 C13.1268,14.6455 14.1848,13.6135 14.1848,12.3415 C14.1848,11.0685 13.1268,10.0375 11.8208,10.0375 C10.5148,10.0375 9.4568,11.0685 9.4568,12.3415 C9.4568,13.6135 10.5148,14.6455 11.8208,14.6455" id="Fill-5" fill="#0073B8"></path>
                        <path d="M21.2773,14.6455 L21.2773,14.6455 C22.5833,14.6455 23.6413,13.6135 23.6413,12.3415 C23.6413,11.0685 22.5833,10.0375 21.2773,10.0375 C19.9713,10.0375 18.9133,11.0685 18.9133,12.3415 C18.9133,13.6135 19.9713,14.6455 21.2773,14.6455" id="Fill-7" fill="#0073B8"></path>
                        <path d="M30.7339,14.6455 L30.7339,14.6455 C32.0399,14.6455 33.0979,13.6135 33.0979,12.3415 C33.0979,11.0685 32.0399,10.0375 30.7339,10.0375 C29.4279,10.0375 28.3699,11.0685 28.3699,12.3415 C28.3699,13.6135 29.4279,14.6455 30.7339,14.6455" id="Fill-9" fill="#0073B8"></path>
                        <path d="M54.375,33.0767 L63.832,33.0767 C65.138,33.0767 66.196,32.0457 66.196,30.7727 C66.196,29.4997 65.138,28.4687 63.832,28.4687 L54.375,28.4687 C53.068,28.4687 52.011,29.4997 52.011,30.7727 C52.011,32.0457 53.068,33.0767 54.375,33.0767" id="Fill-11" fill="#0073B8"></path>
                        <path d="M54.375,42.2925 L63.832,42.2925 C65.138,42.2925 66.196,41.2615 66.196,39.9885 C66.196,38.7145 65.138,37.6845 63.832,37.6845 L54.375,37.6845 C53.068,37.6845 52.011,38.7145 52.011,39.9885 C52.011,41.2615 53.068,42.2925 54.375,42.2925" id="Fill-13" fill="#0073B8"></path>
                        <path d="M20.2822,36.3594 C21.2152,35.5924 22.5142,35.1514 23.8462,35.1514 C24.0322,35.1514 28.3692,35.1934 28.3692,38.8364 C28.3692,40.1094 29.4272,41.1404 30.7342,41.1404 C32.0402,41.1404 33.0982,40.1094 33.0982,38.8364 C33.0982,34.2524 29.7922,31.5344 26.0052,30.7814 L26.0052,29.6204 C26.0052,28.3474 24.9482,27.3174 23.6412,27.3174 C22.3352,27.3174 21.2772,28.3474 21.2772,29.6204 L21.2772,30.8924 C19.7782,31.2584 18.3662,31.9044 17.2252,32.8424 C15.2652,34.4644 14.1852,36.6654 14.1852,39.0394 C14.1852,41.6754 15.6832,45.3544 22.8262,47.9104 C24.4932,48.5064 28.3692,50.1444 28.3692,52.4574 C28.3692,53.7354 27.6242,54.6214 27.0002,55.1374 C26.0682,55.9044 24.7682,56.3454 23.4332,56.3454 C18.9132,56.3454 18.9132,53.6684 18.9132,52.6594 C18.9132,51.3864 17.8552,50.3564 16.5492,50.3564 C15.2422,50.3564 14.1852,51.3864 14.1852,52.6594 C14.1852,57.0944 16.8532,60.0634 21.2772,60.7774 L21.2772,61.8754 C21.2772,63.1494 22.3352,64.1794 23.6412,64.1794 C24.9482,64.1794 26.0052,63.1494 26.0052,61.8754 L26.0052,60.6044 C27.5052,60.2364 28.9182,59.5914 30.0572,58.6534 C32.0172,57.0314 33.0982,54.8314 33.0982,52.4574 C33.0982,49.8204 31.5992,46.1414 24.4562,43.5864 C22.7892,42.9894 18.9132,41.3514 18.9132,39.0394 C18.9132,37.7604 19.6582,36.8744 20.2822,36.3594" id="Fill-15" fill="#0073B8"></path>
                        <path d="M20.2822,36.3594 C21.2152,35.5924 22.5142,35.1514 23.8462,35.1514 C24.0322,35.1514 28.3692,35.1934 28.3692,38.8364 C28.3692,40.1094 29.4272,41.1404 30.7342,41.1404 C32.0402,41.1404 33.0982,40.1094 33.0982,38.8364 C33.0982,34.2524 29.7922,31.5344 26.0052,30.7814 L26.0052,29.6204 C26.0052,28.3474 24.9482,27.3174 23.6412,27.3174 C22.3352,27.3174 21.2772,28.3474 21.2772,29.6204 L21.2772,30.8924 C19.7782,31.2584 18.3662,31.9044 17.2252,32.8424 C15.2652,34.4644 14.1852,36.6654 14.1852,39.0394 C14.1852,41.6754 15.6832,45.3544 22.8262,47.9104 C24.4932,48.5064 28.3692,50.1444 28.3692,52.4574 C28.3692,53.7354 27.6242,54.6214 27.0002,55.1374 C26.0682,55.9044 24.7682,56.3454 23.4332,56.3454 C18.9132,56.3454 18.9132,53.6684 18.9132,52.6594 C18.9132,51.3864 17.8552,50.3564 16.5492,50.3564 C15.2422,50.3564 14.1852,51.3864 14.1852,52.6594 C14.1852,57.0944 16.8532,60.0634 21.2772,60.7774 L21.2772,61.8754 C21.2772,63.1494 22.3352,64.1794 23.6412,64.1794 C24.9482,64.1794 26.0052,63.1494 26.0052,61.8754 L26.0052,60.6044 C27.5052,60.2364 28.9182,59.5914 30.0572,58.6534 C32.0172,57.0314 33.0982,54.8314 33.0982,52.4574 C33.0982,49.8204 31.5992,46.1414 24.4562,43.5864 C22.7892,42.9894 18.9132,41.3514 18.9132,39.0394 C18.9132,37.7604 19.6582,36.8744 20.2822,36.3594" id="Fill-17" fill="#0073B8"></path>
                        <polygon id="Fill-19" fill="#73D7FF" points="71.4976 69.4014 79.3136 77.0184 76.0006 80.2474 68.1806 72.6264"></polygon>
                        <polygon id="Fill-21" fill="#FFFFFF" points="71.4976 69.4014 68.8296 66.8014 65.4996 70.0464 67.9326 72.4164"></polygon>
                        <g id="Group-25" transform="translate(44.000000, 46.000000)">
                            <mask id="mask-4" fill="white">
                                <use xlink:href="#path-3"></use>
                            </mask>
                            <g id="Clip-24"></g>
                            <path d="M14.4409,4.7944 C16.9729,4.7944 19.3509,5.7524 21.1349,7.4904 C24.8269,11.0874 24.8269,16.9404 21.1349,20.5374 C19.3509,22.2764 16.9729,23.2344 14.4419,23.2344 C11.9099,23.2344 9.5319,22.2764 7.7479,20.5384 C4.0569,16.9404 4.0569,11.0874 7.7479,7.4904 C9.5299,5.7524 11.9079,4.7944 14.4409,4.7944 M35.7139,28.4104 L27.0459,19.9654 C29.6269,14.7724 28.5779,8.4704 24.3559,4.3524 C21.7109,1.7764 18.1889,0.3584 14.4409,0.3584 C10.6909,0.3584 7.1699,1.7764 4.5269,4.3534 C-0.9371,9.6804 -0.9371,18.3484 4.5269,23.6744 C7.1699,26.2514 10.6909,27.6704 14.4409,27.6704 C16.5499,27.6704 18.6429,27.1984 20.5499,26.2984 L29.2139,34.7414 C30.0479,35.5524 31.1609,36.0004 32.3529,36.0004 C33.5849,36.0004 34.7489,35.5264 35.6339,34.6654 C37.4229,32.9204 37.4599,30.1144 35.7139,28.4104" id="Fill-23" fill="#0073B8" mask="url(#mask-4)"></path>
                        </g>
                        <path d="M57.6914,53.0659 C54.5574,53.0659 52.0094,55.5499 52.0094,58.6039 C52.0094,59.7419 52.9594,60.6679 54.1274,60.6679 C55.2954,60.6679 56.2454,59.7419 56.2454,58.6039 C56.2454,57.8259 56.8944,57.1939 57.6914,57.1939 C58.8594,57.1939 59.8104,56.2689 59.8104,55.1299 C59.8104,53.9919 58.8594,53.0659 57.6914,53.0659" id="Fill-26" fill="#0073B8"></path>
                    </g>
                </g>
            </g>
        </g>
    </g>
</svg>