<?xml version="1.0" encoding="UTF-8"?>
<svg width="100px" height="100px" viewBox="0 0 100 100" version="1.1" xmlns="http://www.w3.org/2000/svg" xmlns:xlink="http://www.w3.org/1999/xlink">
    <title>Sprite/icon/2</title>
    <g id="Sprite/icon/2" stroke="none" stroke-width="1" fill="none" fill-rule="evenodd">
        <g id="Group_160" transform="translate(16.000000, 5.000000)">
            <circle id="Oval" fill="#FFE100" cx="43" cy="35" r="35"></circle>
            <path d="M67.9080707,25.7340474 C67.3547275,22.6272116 64.5827947,20.412795 61.4304686,20.5592794 L7.33883374,20.5592794 C3.35576091,20.5592794 0.67552216,23.2022328 0.67552216,27.1860227 L0.67552216,63.9299592 C0.65711032,64.4413628 0.694618074,64.9532474 0.78737803,65.456505 C1.33397365,68.5204524 4.04212424,70.7219305 7.15312432,70.6312731 L29.1543137,70.6312731 C35.0113296,70.6312731 45.7220073,70.6441821 61.2863466,70.67 C65.2694194,70.67 67.9496582,68.027039 67.9496582,64.0432491 C68.0564949,51.7190266 68.0009021,26.2121498 67.9080707,25.7340474 Z M4.39831499,64.5996604 C4.36724409,64.3401254 4.35521295,64.0786998 4.3610297,63.8173863 L4.3610297,27.2598762 C4.33701515,26.8325709 4.38748043,26.404344 4.51017086,25.9943274 C4.77464968,25.0856284 5.54652071,24.4158508 6.48342314,24.2820722 C6.80444119,24.2396176 7.12763694,24.2156771 7.45140664,24.2103697 L61.3200467,24.2103697 C62.511025,24.2103697 63.553579,24.508652 64.1121414,25.6623449 C64.1121414,25.682937 64.1288346,25.6996302 64.1494267,25.6996302 C63.5716236,25.3738838 62.9131755,25.2189695 62.250745,25.2529238 L8.38210484,25.2529238 C8.05833971,25.2583321 7.73514974,25.2822721 7.41412135,25.3246263 C6.46521732,25.4315915 5.6804934,26.112522 5.44086906,27.0368815 C5.33624109,27.4504337 5.28610289,27.8758852 5.2917279,28.3024303 L5.2917279,64.8599404 C5.28559669,65.1210141 5.29805661,65.382193 5.32901319,65.6414974 C5.36388891,65.9117774 5.43930673,66.1752563 5.55272493,66.4230545 C4.8939146,66.0394327 4.4629929,65.359213 4.39759796,64.5996604 L4.39831499,64.5996604 Z" id="Path_640" fill="#F4F4F4" fill-rule="nonzero"></path>
            <g id="Group_159" transform="translate(0.000000, 20.000000)" fill-rule="nonzero">
                <path d="M34.5549446,47.4656085 C43.527076,47.4656085 52.4984905,47.4283232 61.470622,47.5028938 C62.3179016,47.5795107 63.1550684,47.2733449 63.7530114,46.6681861 C64.3509543,46.0630273 64.6470563,45.2222483 64.5602819,44.3759486 C64.4885794,41.6584246 64.5229966,38.9409005 64.5229966,36.2233765 L64.5229966,7.81843855 C64.530181,7.27381966 64.4418452,6.73215676 64.2619996,6.21803917 C63.7407225,5.02634394 62.6608832,4.76606393 61.469905,4.76606393 L7.60126484,4.76606393 C7.27750028,4.77148475 6.95431103,4.79542469 6.63328135,4.83776641 C5.68437732,4.94473161 4.8996534,5.62566211 4.66002906,6.55002166 C4.55546564,6.96358573 4.50532845,7.38902874 4.5108879,7.81557046 L4.5108879,44.3730805 C4.50475912,44.6341542 4.51721903,44.895333 4.54817319,45.1546376 C4.6489564,46.2162816 5.41093418,47.0976781 6.4468549,47.3508846 C6.85327122,47.4118227 7.26437208,47.4358216 7.6751184,47.422587 C16.6465329,47.4656085 25.581379,47.4656085 34.5549446,47.4656085 Z" id="Path_641" fill="#F7F8FB"></path>
                <g id="Group_157" fill="#1A1A1A">
                    <path d="M6.48270615,50.0719937 C3.36685451,50.1770224 0.650477887,47.9688573 0.116959865,44.8972257 C0.0228909385,44.394137 -0.0146274601,43.8821071 0.00510399457,43.3706798 L0.00510399457,6.62674332 C0.00510399457,2.64367048 2.64805745,0 6.6691326,0 L60.7607674,0 C64.1114244,0 66.6798073,2.04710584 67.2383696,5.17476807 C67.3126311,5.65519876 67.3502255,6.14060714 67.3502255,6.62674332 L67.3502255,43.4101162 C67.3502255,47.393189 64.6699867,50.0368595 60.6869139,50.0368595 C40.7820827,50.0368595 30.0477433,50.0485709 28.4838955,50.0719937 L6.48270615,50.0719937 Z M33.6586636,46.3864862 C42.630795,46.3864862 51.6022095,46.3492009 60.574341,46.4237715 C61.4216206,46.5003883 62.2587874,46.1942225 62.8567304,45.5890637 C63.4546733,44.9839049 63.7507753,44.143126 63.6640009,43.2968263 C63.5922984,40.5793022 63.6267156,37.8610612 63.6267156,35.1435371 L63.6267156,6.74075026 C63.6340562,6.19617925 63.5459655,5.65453031 63.3664356,5.14035088 C62.8451586,3.94937267 61.7653192,3.68837564 60.574341,3.68837564 L6.70570087,3.68837564 C6.38193174,3.69369575 6.05873672,3.71763612 5.73771737,3.76007812 C4.78889926,3.86723911 4.00427115,4.54808646 3.76446509,5.47233337 C3.65992584,5.88590189 3.60978902,6.31134173 3.61532393,6.73788216 L3.61532393,43.2953922 C3.60910005,43.556467 3.62156028,43.8176526 3.65260922,44.0769493 C3.75339242,45.1385933 4.51537021,46.0199898 5.55129092,46.2731963 C5.95794474,46.334166 6.36928648,46.3581649 6.78027145,46.3448988 C15.7516859,46.382184 24.6865321,46.382184 33.6586636,46.382184 L33.6586636,46.3864862 Z" id="Path_642"></path>
                </g>
            </g>
            <path d="M24.432551,51.5337139 C23.3356625,51.5337139 22.4430561,50.5926494 22.4430561,49.4353478 C22.4430561,48.279776 23.3356625,47.3404415 24.432551,47.3404415 C25.5294396,47.3404415 26.4220459,48.279776 26.4220459,49.4353478 C26.4220459,50.5926494 25.5294396,51.5337139 24.432551,51.5337139 L24.432551,51.5337139 Z M16.8158622,46.0352335 C16.8158622,44.8779319 17.7068277,43.9377324 18.8045366,43.9377324 C19.9006047,43.9377324 20.7932111,44.8779319 20.7932111,46.0352335 C20.7932111,47.1908053 19.9006047,48.1310048 18.8045366,48.1310048 C17.7068277,48.1310048 16.8158622,47.1908053 16.8158622,46.0352335 L16.8158622,46.0352335 Z M24.432551,40.5358883 C25.5294396,40.5358883 26.4220459,41.4769527 26.4220459,42.6316595 C26.4220459,43.7880962 25.5294396,44.7308906 24.432551,44.7308906 C23.3356625,44.7308906 22.4430561,43.7880962 22.4430561,42.6316595 C22.4430561,41.4769527 23.3356625,40.5358883 24.432551,40.5358883 L24.432551,40.5358883 Z M54.232313,43.9887644 L28.7060681,43.9887644 C28.8283092,43.5580198 28.8964033,43.1039216 28.8964033,42.6316595 C28.8964033,40.0376777 26.8946022,37.9263373 24.432551,37.9263373 C22.3323008,37.9263373 20.5692391,39.4659464 20.0975032,41.5314445 C19.6872981,41.3991073 19.2549419,41.3281815 18.8045366,41.3281815 C16.3433058,41.3281815 14.339864,43.4386569 14.339864,46.0352335 C14.339864,48.6300803 16.3433058,50.7414207 18.8045366,50.7414207 C19.2549419,50.7414207 19.6872981,50.6687649 20.0975032,50.5390226 C20.5692391,52.6019258 22.3323008,54.1423998 24.432551,54.1423998 C26.8946022,54.1423998 28.8964033,52.0319245 28.8964033,49.4353478 C28.8964033,48.9656805 28.8283092,48.5107174 28.7060681,48.0817027 L46.0191859,48.0817027 L46.0191859,53.7280893 L48.0907218,53.7280893 L48.0907218,50.904896 L50.0917024,50.904896 L50.0917024,53.7254945 L52.1624179,53.7254945 L52.1624179,48.0817027 L54.232313,48.0817027 L54.232313,43.9887644 Z" id="Llave" fill="#F4F4F4"></path>
            <path d="M23.7155262,50.8166891 C22.6186377,50.8166891 21.7260313,49.8756246 21.7260313,48.718323 C21.7260313,47.5627512 22.6186377,46.6234167 23.7155262,46.6234167 C24.8124147,46.6234167 25.7050211,47.5627512 25.7050211,48.718323 C25.7050211,49.8756246 24.8124147,50.8166891 23.7155262,50.8166891 L23.7155262,50.8166891 Z M16.0988373,45.3182087 C16.0988373,44.1609071 16.9898029,43.2207076 18.0875118,43.2207076 C19.1835799,43.2207076 20.0761863,44.1609071 20.0761863,45.3182087 C20.0761863,46.4737805 19.1835799,47.41398 18.0875118,47.41398 C16.9898029,47.41398 16.0988373,46.4737805 16.0988373,45.3182087 L16.0988373,45.3182087 Z M23.7155262,39.8188634 C24.8124147,39.8188634 25.7050211,40.7599279 25.7050211,41.9146347 C25.7050211,43.0710714 24.8124147,44.0138657 23.7155262,44.0138657 C22.6186377,44.0138657 21.7260313,43.0710714 21.7260313,41.9146347 C21.7260313,40.7599279 22.6186377,39.8188634 23.7155262,39.8188634 L23.7155262,39.8188634 Z M53.5152882,43.2717396 L27.9890433,43.2717396 C28.1112844,42.840995 28.1793785,42.3868968 28.1793785,41.9146347 C28.1793785,39.3206529 26.1775774,37.2093125 23.7155262,37.2093125 C21.615276,37.2093125 19.8522143,38.7489216 19.3804784,40.8144197 C18.9702733,40.6820825 18.5379171,40.6111567 18.0875118,40.6111567 C15.626281,40.6111567 13.6228392,42.721632 13.6228392,45.3182087 C13.6228392,47.9130555 15.626281,50.0243958 18.0875118,50.0243958 C18.5379171,50.0243958 18.9702733,49.9517401 19.3804784,49.8219978 C19.8522143,51.884901 21.615276,53.425375 23.7155262,53.425375 C26.1775774,53.425375 28.1793785,51.3148996 28.1793785,48.718323 C28.1793785,48.2486557 28.1112844,47.7936926 27.9890433,47.3646779 L45.3021611,47.3646779 L45.3021611,53.0110645 L47.373697,53.0110645 L47.373697,50.1878712 L49.3746776,50.1878712 L49.3746776,53.0084696 L51.4453931,53.0084696 L51.4453931,47.3646779 L53.5152882,47.3646779 L53.5152882,43.2717396 Z" id="Llave" fill="#1A1A1A"></path>
        </g>
    </g>
</svg>