<?xml version="1.0" encoding="UTF-8"?>
<svg width="100px" height="100px" viewBox="0 0 100 100" version="1.1" xmlns="http://www.w3.org/2000/svg" xmlns:xlink="http://www.w3.org/1999/xlink">
    <title>Sprite/icon/3</title>
    <g id="Sprite/icon/3" stroke="none" stroke-width="1" fill="none" fill-rule="evenodd">
        <g id="Group">
            <rect id="Rectangle_62-2" fill="#FFFFFF" fill-rule="nonzero" x="0" y="0" width="100" height="100" rx="25"></rect>
            <circle id="Oval" fill="#FFE100" cx="59" cy="40" r="35"></circle>
        </g>
        <g id="Group_80" transform="translate(14.000000, 16.000000)" fill-rule="nonzero">
            <path d="M72.6942876,41.0947906 L72.6942876,9.49874691 C72.7161523,8.69211761 72.6406162,7.88579642 72.469317,7.09726268 C71.6337131,3.24189831 68.1563193,0.538845356 64.2139742,0.680207138 L9.12699243,0.680207138 C8.56046968,0.674911833 7.99476052,0.724653333 7.43817195,0.830444361 C3.4489891,1.50532691 0.557878086,5.00312524 0.645908574,9.04803524 C0.608156656,22.1063465 0.645908574,35.1276763 0.645908574,48.186758 C0.575835416,50.6284604 1.60966409,52.9717676 3.46035255,54.5660616 C5.08139181,55.9689508 7.17331169,56.7063526 9.31575201,56.6300899 L26.464368,56.6300899 C26.4637826,56.6944436 26.4766409,56.7582106 26.5021199,56.8173086 C25.7894561,59.1440594 25.0760219,61.4708103 24.3256063,63.7967907 C24.2218334,63.9465677 24.0571066,64.0427524 23.875665,64.0595132 C23.1999828,64.0972651 22.5250709,64.0595132 21.8493887,64.0595132 C21.4275608,64.0237108 21.0098741,64.1651701 20.6966113,64.4499279 C20.3833485,64.7346856 20.2028023,65.1370237 20.1983201,65.5603445 C20.1963075,65.9959851 20.3787949,66.4121202 20.7006143,66.705751 C21.0224337,66.9993818 21.4535079,67.1430657 21.8871406,67.1012391 L51.5693932,67.1012391 C52.1396214,67.1628521 52.6954961,66.895939 53.0039626,66.4124052 C53.312429,65.9288714 53.3201759,65.3122847 53.0239552,64.8211536 C52.7277346,64.3300224 52.1787413,64.0492277 51.6071451,64.0964946 L49.5808687,64.0964946 C49.3365253,64.1204618 49.1120648,63.9601799 49.0554236,63.7212868 C48.6424639,62.2951889 48.1925226,60.9068428 47.7456632,59.4838267 C47.4451888,58.5831738 47.1832367,57.644769 46.8827622,56.6331717 L63.581437,56.6331717 C64.106882,56.6331717 64.6323271,56.6331717 65.1577721,56.5954198 C69.2307138,56.3021478 72.4647562,53.052328 72.7382031,48.9780073 C72.7320395,46.3854522 72.6942876,43.7212454 72.6942876,41.0947906 Z M3.61136022,9.23294259 C3.57270775,7.73533523 4.15589367,6.28857137 5.22234297,5.23642703 C6.28879227,4.1842827 7.74329931,3.62068645 9.24024818,3.67955847 C20.3477869,3.71731039 31.492307,3.67955847 42.6006162,3.67955847 L64.027526,3.67955847 C65.0548191,3.62577609 66.0779549,3.84593109 66.9922072,4.31748883 C67.4825723,4.59491557 67.9248644,4.94978992 68.3019676,5.36837894 C68.2072874,5.29735837 68.1067711,5.23447128 68.0014931,5.1803898 C67.0951657,4.68784965 66.0662905,4.46640211 65.0375824,4.54245944 L43.6106726,4.54245944 C32.5031339,4.54245944 21.3578433,4.58021136 10.2503046,4.54245944 C8.75697725,4.4965033 7.31001304,5.06429746 6.2464623,6.11358213 C5.18291156,7.16286679 4.59562995,8.60203182 4.62141663,10.0958436 C4.69846136,20.3027294 4.65916855,30.4718632 4.65916855,40.678749 L3.60827843,40.678749 L3.60827843,39.9660853 C3.61136022,29.7268407 3.68609361,19.4798916 3.61136022,9.23294259 Z M3.94881614,50.1722006 C3.80407272,49.7995713 3.71553072,49.4074939 3.68609361,49.0088252 C3.64834169,47.2452714 3.68609361,45.4817175 3.68609361,43.6804117 L69.5793692,43.6804117 L69.6564139,43.7574564 L69.6564139,44.3576349 L4.85100992,44.3576349 L4.85100992,49.6860484 C4.88454957,50.084095 4.97296077,50.4755932 5.11373245,50.8494238 C5.41692033,51.7838478 6.00809356,52.5983292 6.80255293,53.1761747 C5.448337,52.6564823 4.40017269,51.5545514 3.94881614,50.1760529 L3.94881614,50.1722006 Z M28.2649033,61.2419874 C28.677863,59.8551823 29.1278043,58.5022768 29.540764,57.1139308 C29.5866866,56.8266004 29.852262,56.6275041 30.1409425,56.6639896 L43.2385465,56.6639896 C43.4333488,56.6708945 43.6138655,56.7679863 43.7270101,56.9267121 C43.7539925,57.0717033 43.8047558,57.2112372 43.8772473,57.3396718 L30.8189361,57.3396718 C30.529977,57.3027367 30.2639104,57.5019456 30.2179872,57.7896131 C29.8057979,59.1764182 29.3928381,60.5285532 28.9421265,61.9176697 C28.7171559,62.6303334 28.4921852,63.3437676 28.2672146,64.0941833 L27.3665617,64.0941833 C27.6647249,63.0872087 27.9651993,62.183474 28.2649033,61.2458396 L28.2649033,61.2419874 Z" id="Path_197" fill="#F4F4F4"></path>
            <g id="Group_79">
                <path d="M4.13680528,40.8297567 L70.1803181,40.8297567 L70.1803181,8.82383507 C70.1078363,6.9986357 69.0818461,5.34570022 67.4783594,4.47080784 C66.5717917,3.97816359 65.5426401,3.75671412 64.5136782,3.83287748 L43.0844571,3.83287748 C31.9769184,3.83287748 20.8323982,3.8706294 9.72408908,3.83287748 C8.23076175,3.78692133 6.78379753,4.3547155 5.72024679,5.40400017 C4.65669605,6.45328483 4.06941444,7.89244986 4.09520112,9.3862616 C4.17224585,19.6332107 4.13295304,29.8747666 4.13295304,40.1194043 L4.13680528,40.8297567 Z" id="Path_199" fill="#F2F3F4"></path>
                <g id="Group-2" transform="translate(21.572524, 8.717478)" fill="#1A1A1A">
                    <path d="M22.4073786,4.41142752 C21.5742756,4.78215834 20.8316238,5.09100152 20.121106,5.36890087 C19.7380631,5.56412631 19.2911989,5.59171041 18.8870536,5.44507662 C18.4829084,5.29844284 18.1576977,4.9907311 17.9889575,4.59530524 C17.820057,4.20356372 17.8244218,3.75871575 18.0009763,3.37036375 C18.1775309,2.98201175 18.5098593,2.68626431 18.9160821,2.55598817 C20.7387924,1.75263887 22.5924465,0.980233401 24.4466957,0.207827927 C25.5279443,-0.255734372 26.3003498,0.0531088029 26.7639121,1.16530128 L28.8032292,5.98539707 C28.9270045,6.29424024 29.0811285,6.57213959 29.17396,6.88157784 C29.4447289,7.64691267 29.0659497,8.48989357 28.3139063,8.79564497 C27.5618629,9.10139637 26.7023217,8.76186807 26.3622375,8.02471414 C25.9915066,7.25111852 25.6826635,6.44895937 25.3119326,5.61466624 C25.2191012,5.76938537 25.1572135,5.86162177 25.0953259,5.95445324 C22.4383224,11.4850669 18.1127328,14.8805566 12.1822297,16.3355114 C8.90088741,17.1205268 5.46525466,16.9706585 2.26473387,15.9028929 C1.80117158,15.7481738 1.3685531,15.5940498 0.935934627,15.4393306 C0.183535258,15.1332163 -0.188957761,14.2842124 0.0952844736,13.5232807 C0.379526708,12.7623489 1.21741096,12.3654754 1.98623945,12.6276081 C3.78700539,13.3440257 5.70179797,13.7312169 7.63943822,13.7707444 C12.3061435,13.8916014 16.7824858,11.9197233 19.8432067,8.39484989 C20.9039058,7.21153067 21.7694616,5.86689616 22.4073786,4.41142752 L22.4073786,4.41142752 Z" id="Path_643"></path>
                    <path d="M26.1771696,19.7970543 L26.1771696,25.0491735 C26.1893151,25.3183696 26.1693385,25.5880541 26.1176622,25.8525228 C25.9185665,26.5024394 25.3144054,26.9429533 24.6347389,26.9339123 C23.9454076,26.9211877 23.3560795,26.4342763 23.2137033,25.7596913 C23.1785808,25.5659638 23.1586842,25.3697832 23.1541959,25.1729488 L23.1541959,14.4538888 C23.0795185,13.6672517 23.5921263,12.944538 24.3592199,12.7549538 C24.8013177,12.6539363 25.2653585,12.7596623 25.620063,13.0422216 C25.9747675,13.3247808 26.1815571,13.7534414 26.1819302,14.2069333 C26.212874,14.9805289 26.1819302,15.7541245 26.1819302,16.5241497 L26.1771696,19.7970543 Z" id="Path_644"></path>
                    <path d="M19.4111833,22.4855966 C19.4111833,23.5359014 19.4421271,24.5868013 19.4111833,25.6061623 C19.3602411,26.3125879 18.7898137,26.8697318 18.082384,26.9040177 C17.401312,26.9767347 16.7558544,26.5845363 16.5066293,25.9465444 C16.4206637,25.7089637 16.3787198,25.4577041 16.382854,25.2050827 L16.382854,19.7054129 C16.3012541,18.8925848 16.8726326,18.1590406 17.6807094,18.039207 C18.0760952,17.9672948 18.4835855,18.0628859 18.8057456,18.3031237 C19.1279057,18.5433615 19.3357729,18.9066481 19.3796444,19.3061186 C19.4421271,20.353448 19.3802394,21.4352918 19.4111833,22.4855966 Z" id="Path_645"></path>
                    <path d="M9.64781146,23.4734187 C9.64781146,22.7629009 9.61686764,22.052383 9.64781146,21.3412701 C9.69839302,20.7199457 10.1504032,20.2052974 10.7600039,20.0749536 C11.3632737,19.9231203 11.9963723,20.1712911 12.3357587,20.69264 C12.4755938,20.882335 12.5609826,21.1066092 12.5827142,21.3412701 C12.6136581,22.7629009 12.6422216,24.2148803 12.5827142,25.635916 C12.5259469,26.4054508 11.87092,26.9923991 11.0997909,26.9647152 C10.3236111,26.9608775 9.6730961,26.3768459 9.58592382,25.6055672 C9.56015973,25.3903713 9.54981874,25.1736083 9.55497999,24.9569371 L9.55497999,23.5049576 C9.61567749,23.4734187 9.61567749,23.4734187 9.64781146,23.4734187 Z" id="Path_646"></path>
                    <path d="M5.87623528,23.5049576 L5.87623528,25.3276679 C5.89556399,25.7463474 5.74627983,26.1553066 5.46177253,26.4630755 C5.17726524,26.7708444 4.7812739,26.9517429 4.36236815,26.9653107 C3.94150602,26.9656217 3.53867781,26.7944714 3.24675022,26.4913158 C2.95482262,26.1881602 2.79898979,25.7791625 2.81517691,25.3586117 C2.78423309,24.1226439 2.78423309,22.8866762 2.81517691,21.6822473 C2.7958482,21.2635678 2.94513236,20.8546086 3.22963965,20.5468397 C3.51414695,20.2390708 3.91013829,20.0581723 4.32904403,20.0446049 C4.75476711,20.0374167 5.16336812,20.2120446 5.45239519,20.5247028 C5.74142226,20.837361 5.88346619,21.2583993 5.84291116,21.6822473 C5.87623528,22.2689898 5.87623528,22.8872712 5.87623528,23.5049576 Z" id="Path_647"></path>
                </g>
                <g id="Group_76" transform="translate(52.580990, 19.030721)" fill="#F2F3F4">
                    <path d="M0.0377519176,12.3833994 C2.68499431,11.863968 4.91365654,10.0883538 6.01140995,7.62408134 C7.10916337,5.1598089 6.93856978,2.31540402 5.55415457,0 C3.71509687,1.65106856 1.951543,3.18965181 0.225741058,4.80296845 C0.0755038352,4.91545376 0.0385223649,5.2159282 0.000744109756,5.4031469 L0.000744109756,11.9326877 C8.66347332e-05,12.083487 0.0127196651,12.2340521 0.0385223649,12.382629 L0.0377519176,12.3833994 Z" id="Path_202"></path>
                </g>
                <path d="M46.2394387,55.9544076 C46.5399132,56.9675458 46.8396172,57.9059506 47.1023397,58.8050626 C47.5522809,60.1918677 47.9652407,61.6195066 48.4121001,63.0425227 C48.4207433,63.1671725 48.4846502,63.2814341 48.5863354,63.3540451 C48.6880207,63.4266561 48.816839,63.450015 48.9375452,63.4177306 L50.9638216,63.4177306 C51.5354178,63.3704636 52.0844111,63.6512584 52.3806317,64.1423895 C52.6768524,64.6335206 52.6691055,65.2501074 52.3606391,65.7336412 C52.0521726,66.2171749 51.4962979,66.484088 50.9260697,66.422475 L21.2438171,66.422475 C20.6681568,66.4827095 20.1079568,66.2121334 19.7972596,65.723789 C19.4865625,65.2354447 19.4788358,64.6133709 19.7773078,64.1174601 C20.0757797,63.6215494 20.6290864,63.3371426 21.2060652,63.3830605 L23.2323415,63.3830605 C23.4140612,63.3665196 23.5791118,63.2703107 23.6830532,63.1203379 C24.4334689,60.7935871 25.1469031,58.4676067 25.8595668,56.1408559 C25.8592864,56.0763382 25.8464645,56.0124906 25.8218149,55.9528667 L8.67319897,55.9528667 C6.53175463,56.0226452 4.44212905,55.2860522 2.81779951,53.8888384 C0.967020094,52.2946118 -0.0668287115,49.951259 0.00335552736,47.5095348 L0.00335552736,8.37081206 C-0.0967255732,4.32172397 2.80006445,0.817054916 6.7956189,0.153221187 C7.35329352,0.0479870576 7.92004594,-0.00156506639 8.48752117,0.00529530572 L63.5745029,0.00529530572 C67.5168481,-0.136066477 70.9942418,2.56698648 71.8298457,6.42235085 C71.9973969,7.2114606 72.0728911,8.01733592 72.0548163,8.82383507 L72.0548163,40.4198787 C72.0548163,43.0463336 72.0925683,45.6735589 71.9777716,48.3000137 C71.7043247,52.3743344 68.4702823,55.6241542 64.3973407,55.9174261 C63.8718956,55.9551781 63.3464505,55.9551781 62.8210055,55.9551781 L46.2394387,55.9544076 Z M3.08591516,39.9691671 L69.129428,39.9691671 L69.129428,7.96016365 C69.0570982,6.13491768 68.0310652,4.48191331 66.4274693,3.60713642 C65.5209321,3.11440984 64.491756,2.89295511 63.4627881,2.96920606 L42.0358783,2.96920606 C30.9283396,2.96920606 19.7838194,3.00695798 8.67551031,2.96920606 C7.18218298,2.92324991 5.73521876,3.49104408 4.67166802,4.54032875 C3.60811728,5.58961341 3.02083567,7.02877844 3.04662235,8.52259018 C3.12366708,18.7695392 3.08437427,29.0110952 3.08437427,39.2557329 L3.08437427,39.9683966 L3.08591516,39.9691671 Z M3.12289664,42.9739115 L3.12289664,48.302325 C3.15662134,48.700343 3.24502686,49.0918162 3.38561916,49.4657005 C4.18052381,51.6564542 6.31169885,53.072237 8.63929929,52.9558267 L63.6130253,52.9558267 C66.3924243,53.0875901 68.793599,51.0318523 69.091676,48.2653436 C69.2419133,46.5395416 69.1286575,44.8129692 69.1286575,43.1241488 C69.1286575,43.0863968 69.091676,43.0863968 69.0516128,43.047104 C47.0622765,42.9700593 25.1476735,42.9700593 3.12058529,42.9700593 L3.12289664,42.9739115 Z M26.8388053,63.3907649 L45.4135192,63.3907649 C44.6631036,60.9892807 43.9496694,58.6247779 43.1992537,56.2610456 C43.1615018,56.1108084 42.8617978,55.9983231 42.7115606,55.9983231 L29.6139565,55.9983231 C29.3249975,55.961388 29.0589309,56.1605968 29.0130076,56.4482643 C28.6000479,57.8350695 28.1878586,59.1872045 27.7371469,60.5763209 C27.4366725,61.4351129 27.1372253,62.3712063 26.8388053,63.3846013 L26.8388053,63.3907649 Z" id="Path_204" fill="#1A1A1A"></path>
                <path d="M62.1499459,45.7883555 C62.5514407,45.7767356 62.9399717,45.931124 63.2239902,46.2151425 C63.5080088,46.4991611 63.6623972,46.8876921 63.6507772,47.2891869 C63.6193077,48.0985776 62.9598697,48.7417666 62.1499459,48.7530367 C61.3332114,48.7244091 60.6777422,48.0689399 60.6491146,47.2522054 C60.6324741,46.8525576 60.7865542,46.4646857 61.0728986,46.1853971 C61.359243,45.9061084 61.7508375,45.7617514 62.1499459,45.7883555 L62.1499459,45.7883555 Z" id="Path_210" fill="#1A1A1A"></path>
            </g>
        </g>
    </g>
</svg>