<?xml version="1.0" encoding="UTF-8"?>
<svg width="100px" height="100px" viewBox="0 0 100 100" version="1.1" xmlns="http://www.w3.org/2000/svg" xmlns:xlink="http://www.w3.org/1999/xlink">
    <title>Sprite/icon/4</title>
    <g id="Sprite/icon/4" stroke="none" stroke-width="1" fill="none" fill-rule="evenodd">
        <g id="Group">
            <rect id="Rectangle_62-2" fill="#FFFFFF" fill-rule="nonzero" x="0" y="0" width="100" height="100" rx="25"></rect>
            <circle id="Oval" fill="#FFE100" cx="59" cy="40" r="35"></circle>
        </g>
        <g id="Group_28" transform="translate(18.000000, 17.000000)" fill-rule="nonzero">
            <g id="Group_65">
                <path d="M64.0697353,24.0916904 C64.1026819,23.4189623 63.8258134,22.7681763 63.3182843,22.3253865 C60.1239608,19.3563669 56.9677353,16.3479355 53.7734118,13.3815433 C53.522105,13.1504721 53.3847696,12.8208191 53.3976863,12.4796708 L53.3976863,5.86637668 C53.4161299,5.4497875 53.3781251,5.0326181 53.2847059,4.62621982 C52.8506955,2.74424785 51.1156734,1.45494503 49.1885098,1.58231785 C38.0277549,1.58231785 26.867,1.61975903 15.7062451,1.54487668 C14.5549137,1.49297294 13.4348283,1.92763647 12.6198872,2.7425776 C11.8049461,3.55751873 11.3702825,4.67760406 11.4221863,5.8289355 C11.4970686,8.08328844 11.4596275,10.3008571 11.4221863,12.55521 C11.4057566,12.8495912 11.2859598,13.1287295 11.083902,13.3434453 C10.4828725,13.9444747 9.8437451,14.508063 9.24468627,15.1097492 C6.65204902,17.5526218 4.0587549,19.9573963 1.46611765,22.4009257 C1.05881407,22.7024096 0.810033273,23.1721947 0.78954902,23.6785237 C0.826990196,25.8954355 0.752107843,28.1130041 0.826990196,30.2924747 C0.954735067,33.8058819 3.55403876,36.7361914 7.02711765,37.2821512 C7.18709235,37.2969834 7.34150327,37.3484537 7.47838235,37.4325728 C7.55715701,37.4840111 7.61149592,37.5654008 7.62880392,37.6578767 L7.62880392,37.732759 L7.62880392,38.0710433 L7.62880392,61.5571708 C7.62880392,61.7824747 7.6662451,62.0084355 7.6662451,62.2337394 C7.6733712,62.3497869 7.69886801,62.4639683 7.74178431,62.5720237 C8.17117775,64.4828553 9.92012108,65.802414 11.8754216,65.6908081 L52.7224314,65.6908081 C53.7072155,65.7604516 54.6833042,65.4661758 55.4654902,64.8638179 C55.7644003,64.6399143 56.029822,64.3744927 56.2537255,64.0755826 C56.3286078,63.9626022 56.4415882,63.8502786 56.5164706,63.7372982 C56.5835452,63.5953484 56.6587721,63.4573959 56.7417745,63.3241316 C57.0065,62.6943181 57.1345624,62.0154977 57.1175,61.3325237 L57.1175,37.8089551 L57.1175,37.6585335 L57.1175,37.5836512 C57.1175,37.54621 57.1175,37.54621 57.1549412,37.508112 C57.1549412,37.4874338 57.1717042,37.4706708 57.1923824,37.4706708 L57.2298235,37.4332296 C57.3227917,37.3515898 57.4447384,37.310862 57.5681078,37.3202492 C59.371199,37.0943088 61.0221648,36.1949125 62.1897941,34.8024943 C62.2646765,34.727612 62.3027745,34.6520728 62.3776569,34.5771904 C62.4525392,34.5016512 62.4906373,34.4267688 62.5655196,34.3518865 C62.6368743,34.2708907 62.6998181,34.1828573 62.7533824,34.0891414 C62.8173812,34.0102565 62.8681796,33.9215257 62.9038039,33.8263963 C63.5083603,32.8402397 63.8450425,31.7133616 63.8805588,30.5571904 C64.1104608,28.3376512 64.0322941,26.2337198 64.0697353,24.0916904 Z" id="Path_123" fill="#F4F4F4"></path>
                <path d="M7.02711765,21.7611414 L58.7340392,21.7611414 C58.4712941,21.4983963 58.2453333,21.3105335 58.0574706,21.0845728 C56.0284216,19.2059453 53.9993725,17.326661 52.0077647,15.4105924 C51.7766934,15.1592856 51.4470405,15.0219502 51.1058922,15.0348669 C38.9683824,15.0348669 26.8306536,15.0473473 14.6927059,15.0723081 C14.3851236,15.0809702 14.0911904,15.201205 13.8657157,15.4105924 C11.911549,17.2143375 9.99548039,19.0180826 8.0787549,20.8218277 C7.70368627,21.1226708 7.40284314,21.4228571 7.02711765,21.7611414 Z" id="Path_124" fill="#F2F3F4"></path>
                <path d="M4.47192157,25.1058865 L4.47192157,25.7450139 C4.47192157,27.0587394 4.47192157,28.3724649 4.54746078,29.6907884 C4.57297196,30.2882488 4.7132459,30.8752138 4.96062745,31.4196512 C5.85266148,33.3124008 7.98287655,34.282196 9.99613725,33.7121022 C11.9595467,33.2579434 13.3284694,31.4797467 13.2653431,29.4654845 L13.2653431,25.5571512 C13.2653431,25.4067296 13.227902,25.2563081 13.227902,25.0684453 C10.2588824,25.1058865 7.40284314,25.1058865 4.47192157,25.1058865 Z" id="Path_126" fill="#F2F3F4"></path>
                <path d="M16.496451,25.1058865 C16.496451,25.2188669 16.4590098,25.3311904 16.4590098,25.4441708 C16.4590098,26.9470728 16.496451,28.4506316 16.5338922,29.9535335 C16.5383435,30.1683006 16.563642,30.3821278 16.6094314,30.5920041 C17.1026425,32.6223009 18.9988442,33.9926465 21.0813529,33.8237688 C23.3738039,33.6733473 24.9896863,32.2078865 25.177549,30.0284159 C25.2905294,28.4125335 25.2149902,26.8340924 25.2524314,25.21821 C25.2524314,25.1807688 25.2149902,25.1433277 25.177549,25.1052296 L16.496451,25.1058865 Z" id="Path_127" fill="#F2F3F4"></path>
                <path d="M49.2647059,25.1433277 L40.5087255,25.1433277 C40.5041561,25.2072687 40.4915773,25.2703831 40.4712843,25.3311904 C40.4712843,26.6836708 40.4712843,27.9993669 40.5087255,29.3518473 C40.5029609,29.807366 40.553484,30.2618527 40.6591471,30.7049845 C41.2311094,32.6791682 43.0999195,33.9892424 45.150817,33.8537372 C47.2017145,33.7182321 48.8819156,32.1736706 49.1891667,30.1413963 C49.2647059,29.353161 49.2647059,28.5255139 49.2647059,27.6991806 L49.2647059,25.1433277 Z" id="Path_128" fill="#F2F3F4"></path>
                <path d="M52.4964706,25.1058865 L52.4964706,29.3525041 C52.4964706,31.870259 53.9244902,33.4861414 56.4422451,33.7863277 C57.6151451,33.9519838 58.8033546,33.6133764 59.7127382,32.8543258 C60.6221218,32.0952752 61.1676765,30.9867325 61.2143529,29.803112 C61.2898922,28.4125335 61.2517941,26.9845139 61.2517941,25.5945924 C61.2567238,25.4308226 61.2441724,25.266994 61.2143529,25.1058865 L52.4964706,25.1058865 Z" id="Path_129" fill="#F2F3F4"></path>
                <path d="M28.5590784,25.1058865 L28.5590784,30.329259 C28.5658871,30.4574444 28.5911063,30.5839831 28.6339608,30.7049845 C29.1677967,32.7442098 31.125412,34.0760278 33.2182059,33.8237688 C35.5829118,33.5610237 37.1265392,31.9845531 37.2014216,29.7275728 C37.2388627,28.4874159 37.2014216,27.247259 37.2014216,25.969661 L37.2014216,25.1058865 L28.5590784,25.1058865 Z" id="Path_130" fill="#F2F3F4"></path>
                <path d="M31.6029804,64.1136806 L11.1233137,64.1136806 C9.16444984,64.2370897 7.40869818,62.9123942 6.98967647,60.9948963 C6.89608769,60.5502752 6.85813653,60.0957439 6.87669608,59.641759 L6.87669608,36.4545041 C6.87669608,35.9657982 6.76371569,35.8153767 6.23756863,35.7404943 C2.76448974,35.1945345 0.165186048,32.2642251 0.0374411765,28.7508179 C0,26.5339061 0.0374411765,24.3163375 0,22.1368669 C0.020484253,21.6305378 0.269265054,21.1607527 0.676568627,20.8592688 C3.26920588,18.4163963 5.8625,16.0116218 8.45513725,13.5680924 C9.1043685,13.0181721 9.71863512,12.4282567 10.2943529,11.8017884 C10.4964107,11.5870726 10.6162076,11.3079344 10.6326373,11.0135531 C10.6700784,8.75920021 10.7075196,6.54163158 10.6326373,4.28727864 C10.5872185,3.13775288 11.0239708,2.02149676 11.8374425,1.20802508 C12.6509142,0.394553402 13.7671703,-0.0421989546 14.9166961,0.00321981556 C26.077451,0.040660992 37.2382059,0.00321981556 48.3983039,0.040660992 C50.3254675,-0.0867118303 52.0604896,1.20259099 52.4945,3.08456295 C52.5879272,3.49095996 52.6259321,3.90813045 52.6074804,4.32471982 L52.6074804,10.9386708 C52.5945638,11.2798191 52.7318991,11.6094721 52.9832059,11.8405433 C56.1775294,14.8089061 59.3337549,17.8179943 62.5280784,20.7843865 C63.0499071,21.2166573 63.3299711,21.8749546 63.2795294,22.5506904 C63.2420882,24.6927198 63.3169706,26.8347492 63.2046471,28.9386806 C62.9801109,32.4506727 60.3051803,35.3145676 56.8166569,35.7779355 C56.2911667,35.8528179 56.366049,36.1162198 56.366049,36.4545041 L56.366049,59.79021 C56.4350948,61.1691052 55.8157379,62.4924669 54.7127255,63.3228179 C53.9197113,63.90372 52.9515951,64.1953604 51.9696667,64.1491512 C45.205951,64.1136806 38.4047941,64.1136806 31.6029804,64.1136806 Z M40.884451,51.6004453 L53.1723824,51.6004453 L53.1723824,36.6068963 C53.1723824,35.8554453 53.1723824,35.2544159 52.2330686,35.1414355 C52.1200882,35.1414355 52.0452059,35.0665531 51.9322255,34.9910139 C51.1439902,34.3899845 50.3557549,33.7882982 49.5675196,33.22471 C46.5985,36.8696414 40.5862353,36.794759 37.6178725,33.1117296 C36.1264298,34.8752861 33.9339892,35.8924888 31.6243284,35.8924888 C29.3146677,35.8924888 27.1222271,34.8752861 25.6307843,33.1117296 C24.1313933,34.8755174 21.9331686,35.8919902 19.6181912,35.8919902 C17.3032137,35.8919902 15.104989,34.8755174 13.605598,33.1117296 C12.8086314,34.1108218 11.7571223,34.876649 10.5616961,35.3286414 C10.2352521,35.3994291 10.0208195,35.7127197 10.0729902,36.0426512 L10.0729902,51.7127688 L22.3609216,51.7127688 L22.3609216,42.1678963 C22.2915633,41.6514853 22.4670559,41.1322761 22.8354924,40.7638397 C23.2039289,40.3954032 23.723138,40.2199106 24.239549,40.2892688 L38.9322549,40.2892688 C39.4486659,40.2199106 39.9678751,40.3954032 40.3363115,40.7638397 C40.704748,41.1322761 40.8802406,41.6514853 40.8108824,42.1678963 L40.8108824,48.1453473 C40.8864216,49.2350826 40.8864216,50.4003571 40.8864216,51.6024159 L40.884451,51.6004453 Z M5.78696078,20.523612 L57.4938824,20.523612 C57.2311373,20.2608669 57.0051765,20.0730041 56.8173137,19.8470433 C54.7882647,17.9684159 52.7592157,16.0891316 50.7676078,14.173063 C50.5365366,13.9217562 50.2068836,13.7844208 49.8657353,13.7973375 C37.7282255,13.7973375 25.5904967,13.8098179 13.452549,13.8347786 C13.1449667,13.8434408 12.8510335,13.9636756 12.6255588,14.173063 C10.6713922,15.9768081 8.75532353,17.7805531 6.83859804,19.5842982 C6.46352941,19.8825139 6.16268627,20.1833571 5.78696078,20.5216414 L5.78696078,20.523612 Z M13.9038137,10.5281316 L49.3395882,10.5281316 L49.3395882,4.10204334 C49.3395882,3.53845511 49.0387451,3.31380805 48.4751569,3.31380805 L14.8056863,3.31380805 C14.1291176,3.31380805 13.9412549,3.53911197 13.9038137,4.17823942 L13.9038137,10.5287884 L13.9038137,10.5281316 Z M25.7030392,43.5216904 L25.7030392,60.8451316 L37.5778039,60.8451316 L37.5778039,43.5216904 L25.7030392,43.5216904 Z M22.3963922,54.9451904 L10.145902,54.9451904 L10.145902,59.7172982 C10.145902,60.656612 10.3712059,60.8819159 11.2730784,60.8819159 L21.8328039,60.8819159 C22.0088002,60.8881511 22.1849597,60.8755997 22.3582941,60.8444747 C22.3957353,58.8528669 22.3957353,56.8987002 22.3957353,54.9445335 L22.3963922,54.9451904 Z M40.9199216,54.9451904 L40.9199216,60.8451316 C40.983224,60.8539087 41.0459537,60.8664108 41.1077843,60.8825728 L52.154902,60.8825728 C52.8314706,60.8825728 53.1316569,60.5817296 53.1316569,59.8677198 L53.1316569,55.4713375 C53.1316569,55.2834747 53.0942157,55.1330531 53.0942157,54.9458473 L40.9199216,54.9451904 Z M3.19169608,23.8683571 L3.19169608,24.5074845 C3.19169608,25.82121 3.19169608,27.1349355 3.26657843,28.453259 C3.2921873,29.0507057 3.43245685,29.6376524 3.6797451,30.1821218 C4.57177913,32.0748714 6.7019942,33.0446666 8.7152549,32.4745728 C10.6788122,32.020644 12.0478472,30.2423013 11.9844608,28.2279551 L11.9844608,24.3196218 C11.9844608,24.1692002 11.9470196,24.0187786 11.9470196,23.8309159 C9.01872549,23.8657296 6.16268627,23.8657296 3.19432353,23.8657296 L3.19169608,23.8683571 Z M15.2543235,23.8683571 C15.2543235,23.9813375 15.2168824,24.093661 15.2168824,24.2066414 C15.2168824,25.7095433 15.2543235,27.2131022 15.2917647,28.7160041 C15.2959244,28.9309719 15.3210035,29.1450241 15.3666471,29.3551316 C15.8601021,31.3852644 17.756139,32.7554909 19.8385686,32.5868963 C22.1310196,32.4364747 23.746902,30.9710139 23.9347647,28.7915433 C24.0477451,27.175661 23.9722059,25.5972198 24.0096471,23.9813375 C24.0096471,23.9438963 23.9722059,23.9064551 23.9347647,23.8683571 L15.2543235,23.8683571 Z M48.0219216,23.8683571 L39.266598,23.8683571 C39.2620149,23.9322962 39.2494365,23.995409 39.2291569,24.0562198 C39.2291569,25.4087002 39.2291569,26.7243963 39.266598,28.0768767 C39.260867,28.5323938 39.3113896,28.9868763 39.4170196,29.4300139 C39.988982,31.4041976 41.8577921,32.7142718 43.9086896,32.5787666 C45.9595871,32.4432615 47.6397881,30.8987 47.9470392,28.8664257 C48.0219216,28.0781904 48.0219216,27.2505433 48.0219216,26.4235531 L48.0219216,23.8683571 Z M51.2536863,23.8683571 L51.2536863,28.1149747 C51.2536863,30.6327296 52.6817059,32.248612 55.1994608,32.5494551 C56.3723608,32.7151113 57.5605703,32.3765038 58.4699539,31.6174532 C59.3793375,30.8584027 59.9248922,29.74986 59.9715686,28.5662394 C60.046451,27.175661 60.0090098,25.7476414 60.0090098,24.3577198 C60.0138896,24.1939512 60.0013386,24.030128 59.9715686,23.8690139 L51.2536863,23.8683571 Z M27.3162941,23.8683571 L27.3162941,29.0917296 C27.3231389,29.2199105 27.3483572,29.346444 27.3911765,29.4674551 C27.9250124,31.5066804 29.8826277,32.8384984 31.9754216,32.5862394 C34.3401275,32.3234943 35.8837549,30.7470237 35.9586373,28.4900433 C35.9960784,27.2498865 35.9586373,26.0097296 35.9586373,24.7321316 L35.9586373,23.8677002 L27.3162941,23.8683571 Z" id="Path_134" fill="#1A1A1A"></path>
                <g id="Group_63" transform="translate(6.653363, 35.629485)" fill="#1A1A1A">
                    <path d="M49.8637647,0.223333333 L47.6862647,0.223333333 C47.2578444,0.224712248 46.8301963,0.186894519 46.4086667,0.110352941 C46.4743287,0.380806018 46.4995634,0.659494414 46.483549,0.937343137 C46.4461078,5.70945098 46.483549,10.4822157 46.483549,15.256951 L46.483549,15.9335196 L34.1956176,15.9335196 L34.1956176,6.42608824 C34.2649759,5.90967725 34.0894833,5.39046809 33.7210468,5.02203162 C33.3526103,4.65359515 32.8334012,4.47810256 32.3169902,4.54746078 L17.6216569,4.54746078 C17.1052459,4.47810256 16.5860367,4.65359515 16.2176002,5.02203162 C15.8491638,5.39046809 15.6736712,5.90967725 15.7430294,6.42608824 L15.7430294,15.9709608 L3.45509804,15.9709608 L3.45509804,0.300843137 C3.44644046,0.199047942 3.45919454,0.0965678401 3.49253922,0 C2.95274566,0.13864048 2.39635327,0.201861864 1.83921569,0.187862745 L0,0.187862745 C0.150421569,0.300843137 0.187862745,0.450607843 0.187862745,0.75145098 L0.187862745,23.9387059 C0.169384744,24.392689 0.207335063,24.8472103 0.300843137,25.2918431 C0.730236577,27.2026747 2.4791799,28.5222334 4.43448039,28.4106275 L45.3195882,28.4106275 C46.3043655,28.4802092 47.2804327,28.1859399 48.0626471,27.5836373 C49.1590824,26.7479662 49.7767179,25.4282826 49.7159706,24.0510294 L49.7159706,0.715323529 C49.7507843,0.561617647 49.7133431,0.373754902 49.8637647,0.223333333 Z M15.7430294,25.2123627 C15.5551667,25.2123627 15.3673039,25.2498039 15.2175392,25.2498039 L4.65847059,25.2498039 C3.75659804,25.2498039 3.53129412,25.0245 3.53129412,24.0851863 L3.53129412,19.3097941 L15.7817843,19.3097941 C15.7430294,21.2672451 15.7430294,23.2214118 15.7430294,25.2130196 L15.7430294,25.2123627 Z M30.9244412,25.1749216 L19.047049,25.1749216 L19.047049,7.85148039 L30.9218137,7.85148039 L30.9244412,25.1749216 Z M46.4815784,24.1981667 C46.4815784,24.9121765 46.1807353,25.2130196 45.5048235,25.2130196 L34.457049,25.2130196 C34.3923439,25.2156281 34.3279475,25.2027939 34.2691863,25.1755784 L34.2691863,19.2756373 L46.4822353,19.2756373 C46.4822353,19.4635 46.5196765,19.6139216 46.5196765,19.8011275 C46.4822353,21.2665882 46.4822353,22.732049 46.4822353,24.1975098 L46.4815784,24.1981667 Z" id="Path_135"></path>
                </g>
            </g>
        </g>
    </g>
</svg>