<?xml version="1.0" encoding="UTF-8"?>
<svg width="24px" height="24px" viewBox="0 0 24 24" version="1.1" xmlns="http://www.w3.org/2000/svg" xmlns:xlink="http://www.w3.org/1999/xlink">
    <title>Sprite/Icon/System/Navigation/Menu</title>
    <g id="Sprite/Icon/System/Navigation/Menu" stroke="none" stroke-width="1" fill="none" fill-rule="evenodd">
        <g id="Group" fill-rule="nonzero">
            <g>
                <rect id="Path" x="0" y="0" width="24" height="24"></rect>
                <path d="M7.75952667,6.22876867 L7.86229831,6.31951988 L12,10.4563636 L16.1377017,6.31951988 C16.5637282,5.89349337 17.2544536,5.89349337 17.6804801,6.31951988 C18.0737354,6.71277511 18.1039858,7.33157262 17.7712313,7.75952667 L17.6804801,7.86229831 L13.5436364,12 L17.6804801,16.1377017 C18.1065066,16.5637282 18.1065066,17.2544536 17.6804801,17.6804801 C17.2872249,18.0737354 16.6684274,18.1039858 16.2404733,17.7712313 L16.1377017,17.6804801 L12,13.5436364 L7.86229831,17.6804801 C7.43627181,18.1065066 6.74554638,18.1065066 6.31951988,17.6804801 C5.92626464,17.2872249 5.89601424,16.6684274 6.22876867,16.2404733 L6.31951988,16.1377017 L10.4563636,12 L6.31951988,7.86229831 C5.89349337,7.43627181 5.89349337,6.74554638 6.31951988,6.31951988 C6.68000384,5.95903591 7.23000597,5.90357684 7.64880321,6.15314266 L7.75952667,6.22876867 Z" id="Close" fill="#006FB9"></path>
            </g>
        </g>
    </g>
</svg>