<?xml version="1.0" encoding="UTF-8"?>
<svg width="26.5px" height="26px" viewBox="0 0 26.5 26" version="1.1" xmlns="http://www.w3.org/2000/svg" xmlns:xlink="http://www.w3.org/1999/xlink">
    <title>Sprite/Steps/5</title>
    <g id="Sprite/Steps/5" stroke="none" stroke-width="1" fill="none" fill-rule="evenodd">
        <circle id="Oval" fill="#FFE100" cx="12" cy="12" r="12"></circle>
        <g id="Group" transform="translate(2.500000, 2.000000)">
            <circle id="Oval" stroke="#212121" stroke-width="0.8" fill="#F7F8FB" cx="12" cy="12" r="11.6"></circle>
            <path d="M11.978,18.176 C12.6393333,18.176 13.218,18.072 13.714,17.864 C14.21,17.656 14.6233333,17.376 14.954,17.024 C15.2846667,16.672 15.5326667,16.2693333 15.698,15.816 C15.8633333,15.3626667 15.946,14.896 15.946,14.416 C15.946,13.7653333 15.85,13.1973333 15.658,12.712 C15.466,12.2266667 15.2046667,11.8213333 14.874,11.496 C14.5433333,11.1706667 14.154,10.928 13.706,10.768 C13.258,10.608 12.7833333,10.528 12.282,10.528 C11.898,10.528 11.5113333,10.5946667 11.122,10.728 C10.7326667,10.8613333 10.4153333,11.0666667 10.17,11.344 L10.138,11.312 L10.746,8.048 L15.322,8.048 L15.322,6.848 L9.722,6.848 L8.666,12.736 L9.834,12.8 C10.1006667,12.48 10.4073333,12.2213333 10.754,12.024 C11.1006667,11.8266667 11.498,11.728 11.946,11.728 C12.33,11.728 12.6793333,11.792 12.994,11.92 C13.3086667,12.048 13.578,12.2266667 13.802,12.456 C14.026,12.6853333 14.1993333,12.9573333 14.322,13.272 C14.4446667,13.5866667 14.506,13.9306667 14.506,14.304 C14.506,14.752 14.442,15.144 14.314,15.48 C14.186,15.816 14.0126667,16.096 13.794,16.32 C13.5753333,16.544 13.3193333,16.712 13.026,16.824 C12.7326667,16.936 12.426,16.992 12.106,16.992 C11.7646667,16.992 11.4526667,16.9413333 11.17,16.84 C10.8873333,16.7386667 10.642,16.5946667 10.434,16.408 C10.226,16.2213333 10.0606667,16.0026667 9.938,15.752 C9.81533333,15.5013333 9.74333333,15.232 9.722,14.944 L8.362,14.944 C8.37266667,15.456 8.474,15.9146667 8.666,16.32 C8.858,16.7253333 9.11933333,17.064 9.45,17.336 C9.78066667,17.608 10.162,17.816 10.594,17.96 C11.026,18.104 11.4873333,18.176 11.978,18.176 Z" id="5" fill="#212121" fill-rule="nonzero"></path>
        </g>
    </g>
</svg>