<svg xmlns="http://www.w3.org/2000/svg" width="312.968" height="412.962" viewBox="0 0 312.968 412.962">
    <defs>
        <style>
            .cls-1{fill:#fff}.cls-2{fill:#3c3372}.cls-3{fill:#ffbd5c}.cls-4{opacity:.1}.cls-5{fill:#5c7bff}.cls-6{fill:#848ab2}.cls-7{fill:#ead6c1}.cls-8{fill:#ffc9b5}.cls-9{fill:#ffbe55}.cls-10{fill:#5db3c1}.cls-11{fill:#4f9ba3}.cls-12{fill:#bc9660}.cls-13{fill:#707597}.cls-14{fill:#e53350}.cls-17{fill:#866dd8}
        </style>
    </defs>
    <g id="Grupo_15">
        <g id="Grupo_8" transform="translate(4.668)">
            <path id="Trazado_9" d="M583.993 227.128c-2.937 1.537-3.661 3.579-2.148 6.118.712-.019 1.481-.066 2.247-.052a5.1 5.1 0 0 1 4.1 1.912c.476.592.488.776.229 2.105-2.695 1.539-4.774-.224-7.028-1.5-2.233.507-2.167 2.881-3.131 4.206-.787.222-1.155-.016-1.379-.62a7.093 7.093 0 0 1 3.055-5.116c-.472-1.723-1.082-3.348-.394-5.069a7.717 7.717 0 0 1 3.31-3.633 13.422 13.422 0 0 0-.255-1.412 8.2 8.2 0 0 1 3.791-9.746 13.877 13.877 0 0 1 12.085-1.294 5.6 5.6 0 0 1 3.232 2.633 2.707 2.707 0 0 1-.288 3.359 6.359 6.359 0 0 1-5.13 2.16 1.246 1.246 0 0 1-1.276-.8c-.109-.472.144-.842.724-.955a6.337 6.337 0 0 1 1.061-.047 4.325 4.325 0 0 0 3.426-1.829 2.338 2.338 0 0 0-1.346-2.282 9.211 9.211 0 0 0-2.367-.917 12.474 12.474 0 0 0-7.921.825 8.836 8.836 0 0 0-2.457 1.65c-2.324 2.157-2.695 4.786-1.139 7.86.5-.035 1.049-.054 1.6-.115a11.938 11.938 0 0 1 5.844.835 6.035 6.035 0 0 1 2.678 2.039c1.294 1.766.578 3.619-1.6 3.918a8.757 8.757 0 0 1-2.947-.193 11.718 11.718 0 0 1-5.363-2.94c-.414-.367-.827-.747-1.213-1.1zm9.861 1.881a3.779 3.779 0 0 0-2.409-2.032 8.509 8.509 0 0 0-5.069-.446 5 5 0 0 0 2.242 1.936 8.132 8.132 0 0 0 3.586 1.162 1.689 1.689 0 0 0 1.65-.62z" class="cls-2" transform="translate(-432.113 47.459)"/>
            <path id="Trazado_10" d="M641.743 187.534a10.644 10.644 0 0 1-4.7-5.724 16.406 16.406 0 0 1-1.169-4.741 31.111 31.111 0 0 1 .375-8.909 7.486 7.486 0 0 1 .469-1.631c.123-.283.457-.474.648-.658a.986.986 0 0 1 .938 1.273c-.193 1.259-.476 2.511-.627 3.774a23.077 23.077 0 0 0 .217 7.424 13.229 13.229 0 0 0 2.827 6.12 8.725 8.725 0 0 0 1.089.889c.165-.585.3-.964.377-1.356a9.978 9.978 0 0 1 1.872-4.251 6.719 6.719 0 0 1 1.69-1.587 2.517 2.517 0 0 1 4.079 1.674 6.363 6.363 0 0 1-4 7.561c-.589.236-1.207.391-1.789.58a11 11 0 0 0 1.674 6.481c.839 1.323 1.78 2.577 3.4 2.949.622-.283.561-.823.653-1.3.2-1.04.337-2.105.632-3.119a4.613 4.613 0 0 1 1.7-2.393 2.1 2.1 0 0 1 3.454.95 4.887 4.887 0 0 1 0 3.543 6.615 6.615 0 0 1-2.412 3.173c-.462.325-.952.611-1.445.924a3.354 3.354 0 0 0 .066 2.275 35.421 35.421 0 0 0 2.487 6.787c.384.832.766 1.669 1.183 2.574-.292.349-.54.644-.747.894-.271-.064-.462-.049-.535-.137a6.365 6.365 0 0 1-.865-1.174 33.634 33.634 0 0 1-3.614-10.413 1.893 1.893 0 0 0-.212-.455c-3.819-1.023-5.667-3.951-6.743-7.506-.43-1.412-.635-2.897-.972-4.491zm5.731-8.084a3.744 3.744 0 0 0-2.575 2.355c-.629 1.235-1.3 2.5-.87 4.079a4.3 4.3 0 0 0 3.784-2.692c.526-1.269.795-2.56-.339-3.742zm6.031 12.495a3.713 3.713 0 0 0-1.721 2.7 2.354 2.354 0 0 0 .12 2.164 4.309 4.309 0 0 0 2.084-2.8 1.889 1.889 0 0 0-.488-2.064z" class="cls-2" transform="translate(-352.254 -15.463)"/>
            <path id="Trazado_11" d="M533.506 123.812a13.115 13.115 0 0 0 4.192 7.664 4.3 4.3 0 0 0 4.413.816 8.845 8.845 0 0 0-.127-2.381 9.257 9.257 0 0 1 1.264-5.722 7.474 7.474 0 0 1 1.664-1.9 1.915 1.915 0 0 1 3.249.865 6.655 6.655 0 0 1 .46 2.06 9.183 9.183 0 0 1-2.692 7.15c-.2.2-.429.372-.632.568-.153.144-.292.3-.509.53a4.95 4.95 0 0 0 1.938 2.65 2.355 2.355 0 0 0 2.8.127 17.48 17.48 0 0 0 1.806-1.455 8.689 8.689 0 0 0 .764-.865l1.132.436a3.065 3.065 0 0 1-.118.927c-1.466 2.869-5.936 4.75-8.777 1.049-.514-.67-.962-1.386-1.459-2.108-.533.059-1.018.125-1.5.165a6.507 6.507 0 0 1-5.394-2.013 15.983 15.983 0 0 1-3.371-5.13c-.243-.585-.465-1.179-.743-1.886-.629.156-1.221.347-1.825.434a1.22 1.22 0 0 1-1.282-.58 2.718 2.718 0 0 1-.125-.981c.893-.559 2.159-.092 2.73-1.389-.016-.255-.024-.674-.075-1.089a18.263 18.263 0 0 1 .875-7.973 8.322 8.322 0 0 1 1.886-3.3 5.539 5.539 0 0 1 1.506-1.143 2.138 2.138 0 0 1 3.178 1.431 6.712 6.712 0 0 1 .186 2.3 16.24 16.24 0 0 1-3.277 7.978c-.673.917-1.387 1.796-2.137 2.765zm-.156-2.841a15.326 15.326 0 0 0 3.451-6.45 14.247 14.247 0 0 0 .3-2.515 3.807 3.807 0 0 0-.321-1.1c-.432.179-.837.222-1.026.446a10.692 10.692 0 0 0-1.473 2.058 14.913 14.913 0 0 0-1.292 6.62 3.51 3.51 0 0 0 .362.941zm12.919 2.855c-.679 0-.967.516-1.275.971a6.8 6.8 0 0 0-1.16 3.14 6.081 6.081 0 0 0 .4 3.282 3.463 3.463 0 0 0 1.653-1.818 7.771 7.771 0 0 0 1-3.635 2.3 2.3 0 0 0-.617-1.94z" class="cls-2" transform="translate(-497.631 -92.584)"/>
            <path id="Trazado_12" d="M592.307 139.315c.2-.5.325-.908.509-1.285a5.763 5.763 0 0 1 8.112-2.617 11.062 11.062 0 0 1 2.15 1.714 1.328 1.328 0 0 1 .255.964c-.014.222-.292.424-.5.71-.375-.184-.7-.3-.981-.483a20.978 20.978 0 0 0-2.327-1.476 3.815 3.815 0 0 0-4.946 1.683 3.5 3.5 0 0 0-.193.95c.8.443 1.584.9 2.393 1.318a7.3 7.3 0 0 1 2.409 2.058 3.839 3.839 0 0 1 .882 2.134 1.833 1.833 0 0 1-1.912 2.065 3.936 3.936 0 0 1-2.56-.879 8.348 8.348 0 0 1-2.518-3.371c-.172-.464-.349-.926-.514-1.363a2.324 2.324 0 0 0-2.077.3 3.169 3.169 0 0 0-1.351 1.6 5.91 5.91 0 0 0-.13 4.241c.424.177.868.38 1.32.552a7.2 7.2 0 0 1 2.61 1.8 3.711 3.711 0 0 1 1.092 2.69 1.4 1.4 0 0 1-1.636 1.506 4.362 4.362 0 0 1-1.726-.736 8.511 8.511 0 0 1-2.284-2.5c-.3-.474-.587-.955-.882-1.433a2.821 2.821 0 0 0-2.859 1.11 3.47 3.47 0 0 0-.563 3.494c.264.217.61.46.912.75.872.839.8 1.457-.339 2.482-.462-.165-.976-.351-1.532-.552-.139.123-.359.231-.434.4-.8 1.813-1.57 3.64-2.4 5.585-.342.323-.771.271-1.181-.151a1.991 1.991 0 0 1 .085-1.844 27.233 27.233 0 0 1 2.935-6.068c-.333-4.444.533-5.769 4.715-7.344.066-1.139.045-2.273.212-3.378a5.019 5.019 0 0 1 3.866-4.331c.402-.11.824-.174 1.388-.295zm5.736 5.8c.042-1.146-.717-1.613-1.308-2.167-.693-.646-.7-.632-1.763-.769a3.08 3.08 0 0 0 1.1 1.964 2.53 2.53 0 0 0 1.971.97z" class="cls-2" transform="translate(-429.377 -57.841)"/>
            <path id="Trazado_13" d="M523.808 202.866c-2.426 3.239-2.374 6.568-1.389 9.956.79 2.714 2.056 4.194 4.027 5 .042-.651.09-1.261.116-1.872a7.488 7.488 0 0 1 1.509-4.14 4.661 4.661 0 0 1 2.16-1.667 2.447 2.447 0 0 1 3.166.952 4.764 4.764 0 0 1 .865 2.374 6.1 6.1 0 0 1-3.166 6.054c-.245.144-.519.233-.769.361-.186.1-.361.219-.641.394a4.651 4.651 0 0 0 2.676 2.237 3.781 3.781 0 0 0 3.173-.083c.028-.712.052-1.407.08-2.1a4.593 4.593 0 0 1 1.056-2.732 1.721 1.721 0 0 1 1.662-.764 1.81 1.81 0 0 1 1.44 1.412 4.356 4.356 0 0 1-.509 3.484c-.321.545-.724 1.042-1.1 1.577a14.168 14.168 0 0 0 2.673 3.324 18.287 18.287 0 0 1 1.4 1.594.8.8 0 0 1-1.082 1.117 4.641 4.641 0 0 1-.974-.811c-1.261-1.344-2.5-2.706-3.857-4.175a7.426 7.426 0 0 1-5.238-.4 9.268 9.268 0 0 1-3.708-3.654c-.469-.16-.87-.292-1.268-.436a7.011 7.011 0 0 1-3.5-2.678 13.73 13.73 0 0 1-1.893-12.563 8.2 8.2 0 0 1 1.259-2.185 1.143 1.143 0 0 1 .96-.257c.28.054.509.384.872.681zm7.792 8.992a2.106 2.106 0 0 0-1.99.943 5.858 5.858 0 0 0-1.287 3.322 2.466 2.466 0 0 0 .547 2.19 3.918 3.918 0 0 0 3.31-2.659 3.38 3.38 0 0 0-.58-3.796z" class="cls-2" transform="translate(-509.379 33.816)"/>
            <path id="Trazado_14" d="M622.451 109.973a5.752 5.752 0 0 1 4.734-4.366 2.529 2.529 0 0 1 1.047-.021.985.985 0 0 1 .656.467 2.839 2.839 0 0 1 .028.985c-1.391.563-3.093.37-3.951 2.06.655.085 1.207.132 1.747.233a5.573 5.573 0 0 1 2.876 1.285 2.855 2.855 0 0 1 .762 3.473 3.144 3.144 0 0 1-3.362 1.7 6 6 0 0 1-3.291-1.837c-.384-.408-.719-.861-1.018-1.224a.6.6 0 0 0-.757.375 7.228 7.228 0 0 0-.047 7.2h2.308a7.553 7.553 0 0 1 4.184 1.386 2.763 2.763 0 0 1 1.4 2.876c-.238.976-1.254 1.6-2.671 1.723a5.769 5.769 0 0 1-4.628-1.742c-.507-.476-.983-.988-1.537-1.549a4.422 4.422 0 0 0-2.136 2.6 7.459 7.459 0 0 0 1.051 7.07c.361.523.865.95 1.2 1.485a3.6 3.6 0 0 1 .313 1.084.957.957 0 0 1-1.57.106 9.37 9.37 0 0 1-2.982-5.052c-.559-3-.229-5.809 2.077-8.089.347-.347.712-.674 1.134-1.07l-.533-1.822a9.629 9.629 0 0 1-.106-4.64c.403-1.969 1.021-2.892 3.072-4.696zm1.841 1.466A3.848 3.848 0 0 0 627 113.9a1.311 1.311 0 0 0 1.636-.618 1.252 1.252 0 0 0-.681-1.594 4.125 4.125 0 0 0-3.663-.248zm3.635 12.386a5.672 5.672 0 0 0-4.189-1.78c-.3-.017-.54.106-.537.54a4.492 4.492 0 0 0 2.86 1.919 1.552 1.552 0 0 0 1.866-.678z" class="cls-2" transform="translate(-378.236 -97.363)"/>
            <path id="Trazado_15" d="M582.532 131.581a12.091 12.091 0 0 0-.992-1.379q-6.694-8.123-13.417-16.222a6.821 6.821 0 0 0-1.2-.9c-1.935 1.924-3.8 3.756-5.63 5.611a3.152 3.152 0 0 0-.457.82 2.656 2.656 0 0 0 .922 1.752 117.206 117.206 0 0 1 11.821 14.753c.365.523.757 1.028 1.129 1.544a1.967 1.967 0 0 0 1.6.9 20.86 20.86 0 0 0 5.745-3.987 3.667 3.667 0 0 0 .4-.5 2.029 2.029 0 0 0 .079-2.392z" class="cls-2" transform="translate(-453.906 -87.132)"/>
            <path id="Trazado_16" d="M631.848 150.18a21.006 21.006 0 0 1-3.5-5.415 146.488 146.488 0 0 1 13.66-10.607c1.03.634 1.462 1.8 2.1 2.768.622.936 1.146 1.936 1.693 2.867-1.801 1.947-11.808 9.392-13.953 10.387z" class="cls-2" transform="translate(-362.251 -58.514)"/>
            <path id="Trazado_17" d="M532.96 188.473a3.63 3.63 0 0 0-.295-.306q-5.1-4.679-10.2-9.343a3.361 3.361 0 0 0-2.006-1.08c-1.358.707-1.37.7-3.607 4.055-.613.919-1.429 1.778-1.37 2.97.608.6 1.2 1.1 1.7 1.69.547.648 1.011 1.367 1.511 2.058 1.829 2.527 3.633 5.078 5.5 7.575a8.1 8.1 0 0 0 3.176 2.853 9.219 9.219 0 0 0 1.058-1.084c.526-.752.943-1.587 1.481-2.334.995-1.379 2.042-2.721 3.072-4.076.981-1.299.981-1.834-.02-2.978z" class="cls-2" transform="translate(-515.478 .655)"/>
            <path id="Trazado_18" d="M538.519 130.38c-.721-1.221-1.53-2.391-2.318-3.569a5.133 5.133 0 0 0-.7-.8 1.894 1.894 0 0 0-2.676-.3 17.21 17.21 0 0 0-1.678 1.306q-5.531 4.675-11.045 9.367c-.217.182-.455.342-.469.354a2.494 2.494 0 0 0-.014 2.322 20.6 20.6 0 0 0 3.1 4.508 2.229 2.229 0 0 0 2.374-.568c1.865-1.417 3.739-2.822 5.6-4.239q3.137-2.383 6.262-4.781a12.649 12.649 0 0 0 1.136-.962c.965-.936 1.093-1.518.428-2.638z" class="cls-2" transform="translate(-510.228 -70.562)"/>
            <path id="Trazado_19" d="M651.88 217.873c-.236-.156-.481-.3-.724-.446-3.036-1.834-6.068-3.68-9.114-5.5a22.96 22.96 0 0 0-2.813-1.492 1.664 1.664 0 0 0-2.249.644 37.35 37.35 0 0 0-3.055 4.921 2.388 2.388 0 0 0 1.384 2.372c.5.276.981.578 1.5.811a24.347 24.347 0 0 1 5.486 3.635c.922.776 1.78 1.629 2.669 2.442a5.118 5.118 0 0 0 2.358 1.492 1.753 1.753 0 0 0 1.4-1.056c.884-1.452 1.8-2.886 2.711-4.326a10.657 10.657 0 0 0 .882-1.45 7.827 7.827 0 0 0 .29-1.551c-.256-.169-.487-.341-.725-.496z" class="cls-2" transform="translate(-354.686 44.776)"/>
            <path id="Trazado_20" d="M609.955 104.748c-1.016-.776-2.075-1.5-3.143-2.2a6.357 6.357 0 0 0-1.2-.476 11.618 11.618 0 0 0-1.266.823q-4.615 3.954-9.2 7.943a4.506 4.506 0 0 0-.877.922 3.125 3.125 0 0 0-.269.915 25.8 25.8 0 0 0 5.837 5.752 3.87 3.87 0 0 0 2.065-1.636q3.833-4.58 7.657-9.166c.226-.273.469-.535.672-.825a1.325 1.325 0 0 0-.276-2.052z" class="cls-2" transform="translate(-408.889 -102.072)"/>
        </g>
        <g id="Grupo_14" transform="translate(0 51.463)">
            <g id="Grupo_13">
                <path id="Trazado_27" d="M554.242 130.919a9.331 9.331 0 0 1 1.759.769 4.274 4.274 0 0 1 .769 6.193 3.542 3.542 0 0 1-3.866 1.009 4.3 4.3 0 0 1-2.612-4.031 3.948 3.948 0 0 1 2.909-3.76c.273-.072.556-.099 1.041-.18zm-2.056 4.145a2.2 2.2 0 0 0 .915 1.86 1.61 1.61 0 0 0 1.391.316 2.206 2.206 0 0 0 1.447-2.308 2.1 2.1 0 0 0-2.023-2.035c-.984.014-1.696.842-1.729 2.167z" class="cls-2" transform="translate(-463.552 -114.374)"/>
                <path id="Trazado_28" d="M551.076 133.925c.033-1.325.745-2.152 1.73-2.167a2.108 2.108 0 0 1 2.025 2.035 2.2 2.2 0 0 1-1.45 2.308 1.605 1.605 0 0 1-1.389-.316 2.2 2.2 0 0 1-.916-1.86z" class="cls-3" transform="translate(-462.486 -113.235)"/>
                <path id="Trazado_29" d="M665.1 279.185c0 7.091-33.762 12.839-75.413 12.839s-75.413-5.748-75.413-12.839 33.765-12.837 75.413-12.837S665.1 272.1 665.1 279.185z" class="cls-4" transform="translate(-512.442 69.476)"/>
                <path id="Trazado_30" d="M733.1 279.185c0 7.091-33.765 12.839-75.413 12.839s-75.413-5.748-75.413-12.839 33.762-12.837 75.413-12.837S733.1 272.1 733.1 279.185z" class="cls-4" transform="translate(-420.131 69.476)"/>
                <path id="Trazado_31" d="M610.054 337.98c-.259-6.387-.46-12.775-.816-19.16q-.492-8.827-1.264-17.637c-.623-6.929-1.379-13.848-2.124-20.765-.915-8.478-2.185-16.906-3.577-25.313-1.879-11.354-4.069-22.644-6.757-33.835-1.709-7.115-3.593-14.181-5.915-21.124a12.088 12.088 0 0 0-1.106-2.735 18.816 18.816 0 0 0-1.971.009 102.456 102.456 0 0 1-11.691.712c-3.909-.009-7.815.019-11.724.045a95.908 95.908 0 0 1-14.666-.783 3.3 3.3 0 0 0-2.188.125c-.09.493-.217 1.037-.276 1.589-.321 3.18-.6 6.363-.941 9.543-.641 6-1.278 12-1.983 18-.719 6.137-1.431 12.276-2.306 18.391-1.28 8.928-2.622 17.849-4.095 26.746-1.521 9.175-3.088 18.349-4.892 27.472-2.657 13.445-5.538 26.843-8.32 40.262-.139.679-.233 1.367-.361 2.124a27.879 27.879 0 0 0 5.413.269c1.775.066 3.553.057 5.328.026a32.274 32.274 0 0 0 5.345-.156c.191-.578.387-1.106.545-1.648 1.914-6.542 3.84-13.082 5.734-19.631 5.627-19.443 11.01-38.949 15.329-58.733q2.589-11.861 4.809-23.8c1.1-5.88 1.978-11.8 2.716-17.738a1.257 1.257 0 0 1 1.539.545 7.414 7.414 0 0 0 .948 1.24 1.012 1.012 0 0 0 .846.25 340.121 340.121 0 0 1 8.885 34.686q2.433 11.79 4.548 23.639c1.179 6.57 2.164 13.174 3.185 19.77.7 4.491 1.33 8.992 1.952 13.495.641 4.644 1.242 9.291 1.848 13.942.483 3.73.938 7.469 1.426 11.2.082.615.273 1.219.41 1.82l16.036-.149a9.8 9.8 0 0 0 .131-2.693z" class="cls-5" transform="translate(-500.482 -24.303)"/>
                <path id="Trazado_32" d="M609.909 238.548a1.792 1.792 0 0 0-.318-.83 13.67 13.67 0 0 0-1.853-1.945c.068-2.883.13-5.767.165-8.65a3.65 3.65 0 0 0-.269-.971l-.1-.007a8.515 8.515 0 0 0-.207-1.82h.035a10.913 10.913 0 0 0 1.316-.078c-.21-.771-.33-1.32-.512-1.853-.568-1.683-1.143-3.362-1.747-5.033-2.556-7.077-5.1-14.166-7.693-21.23-2.011-5.465-4.1-10.9-6.507-16.21a54.8 54.8 0 0 0-15.01-19.351 2.29 2.29 0 0 0-.318-.5q-.948-1.224-1.893-2.449a2.059 2.059 0 0 0-.719-.646 1.806 1.806 0 0 0 .2-.273 2.4 2.4 0 0 0 .007-1.98c.045-.273.089-.552.132-.825.016-.094-.144-.215-.285-.408-.412.038-.882.08-1.381.123-.014.038-.019.078-.033.116l-1.365-.205a2.639 2.639 0 0 0-.936.038c-.007-.057-.007-.125-.014-.177a18.444 18.444 0 0 1-6.054-2.716c-.191.148-.363.215-.4.323a35.029 35.029 0 0 0-1.1 3.515 6.221 6.221 0 0 0-2.214.552v-.026a4.328 4.328 0 0 0-.533.068 5.873 5.873 0 0 0-.8.285 20.719 20.719 0 0 0-8.4 6.7 44.335 44.335 0 0 0-2.64 4.128 101.081 101.081 0 0 0-8.046 19.233 117.423 117.423 0 0 0-3.567 14.909c-.872 5.328-1.888 10.63-2.782 15.953-.856 5.113-1.636 10.241-2.44 15.364a117.747 117.747 0 0 0-1.275 12.5 14.756 14.756 0 0 0 .33 3.593 6.743 6.743 0 0 0 2.617 4.293c.243.035.5.073.75.1a10.833 10.833 0 0 0 .566 2.169c-.309 2.185-.281 2.556.29 4.076 1.7.191 3.468.37 5.227.592a99.063 99.063 0 0 0 13.4.637c3.055-.033 6.111-.085 9.166-.118 1.136-.014 2.277.019 3.414-.014a7.256 7.256 0 0 0 1.276-.269v-.066c.608.04 1.29.1 1.971.12v.012c2.959.264 5.811-.4 8.688-.523a5.251 5.251 0 0 0 1.209-.361 14.35 14.35 0 0 0-.2-4.321 3.345 3.345 0 0 0-.118-2.605c.292-.1.573-.231.82-.328a42.847 42.847 0 0 0 .422-8.706 8.727 8.727 0 0 0 .328-4.017c1.655.031 3.312.075 4.967.078q3.625 0 7.247-.123a13.529 13.529 0 0 0 2.523-.38 2.544 2.544 0 0 0 .776-.38 5.519 5.519 0 0 0 2.933-.964 40.171 40.171 0 0 0 4.948.09.982.982 0 0 0 .283.108c.521.08.764.561 1.073.948a7.052 7.052 0 0 0 1.153 1.143c.662.526 1.587 1.308 2.506 1.1.91.212 1.86.292 2.836.476a7.833 7.833 0 0 0-1.845-1.984zm-26.4-13.832c-.688-.021-1.379-.024-2.065-.038a12.228 12.228 0 0 0-.165-1.9c.014-.047.038-.094.054-.139a2.162 2.162 0 0 0 .321-.071c.453-1.4.865-2.751 1.327-4.083.7-2.013 1.469-4 2.148-6.019.339-1.007.627-2.023.889-3.044.547.493 1.047 1 1.365 1.238s.658.467.985.7c.481 1.028.964 2.049 1.433 3.091.637 1.426 1.183 2.9 1.87 4.3.573 1.169.948 2.433 1.568 3.6a25.326 25.326 0 0 0 .7 2.754c-3.47-.183-6.95-.287-10.428-.389z" class="cls-6" transform="translate(-490.645 -87.56)"/>
                <path id="Trazado_33" d="M582.257 199.331v-.064a1.766 1.766 0 0 0-.033-.4v-.066c-.019-.073-.047-.146-.071-.219v-.009a11.259 11.259 0 0 0-.651-1.768 38.519 38.519 0 0 0-9.9-12.4 7.672 7.672 0 0 0-1.41-.952 4.957 4.957 0 0 0-1.589-.575 11.063 11.063 0 0 0-4.26.144c-.528 1.464-.269 2.966-.283 4.437a22.253 22.253 0 0 0 .021 4.637 44.444 44.444 0 0 0 6.889 6.094 18.139 18.139 0 0 0 2 1.216 1.535 1.535 0 0 0 .608.1 1.738 1.738 0 0 0 1.45 1.273 1.8 1.8 0 0 0 2.626.281c.031.031.057.066.087.1a3.4 3.4 0 0 0 2.082-.085 2.193 2.193 0 0 0 2.3-1.228l.115-.026c0-.153.014-.309.024-.467z" class="cls-7" transform="translate(-445.038 -44.023)"/>
                <path id="Trazado_34" d="M607.217 183.493a1.482 1.482 0 0 0-.231-.54c-.1-.042-.172-.1-.236-.092a28.132 28.132 0 0 0-7.485 1.469 8.533 8.533 0 0 0-4.474 3.442 34.042 34.042 0 0 1-2.075 2.7 54.38 54.38 0 0 0-5.606 8.539 7.582 7.582 0 0 0-.684 1.556 2.122 2.122 0 0 0 .075 1.535 1.826 1.826 0 0 0 1.877 1.73 2.017 2.017 0 0 0 .773-.156 1.073 1.073 0 0 0 .049.146 3.536 3.536 0 0 0 1.971.266 2.71 2.71 0 0 0 2.013-.611c.09-.172.191-.368.285-.542a1.918 1.918 0 0 0 3.168-.712 13.828 13.828 0 0 0 5.29-4.354 18.673 18.673 0 0 0 1.766-2.662 3.336 3.336 0 0 1 3.138-2.129c.109 0 .214-.156.394-.295.002-3.054.009-6.171-.008-9.29z" class="cls-8" transform="translate(-414.639 -43.861)"/>
                <path id="Trazado_35" d="M670.295 256.694c.019.278 0 .535 0 .754-.219.12-.339.259-.457.259-6.181-.021-12.379.04-18.561-.08-10.135-.219-20.289-.021-30.325-.318-.16-.2-.219-.238-.259-.3a.778.778 0 0 1-.04-.2c-.158-4.887-.318-9.777-.436-14.645l-.1-3.657-.6-19.575-.1-3.159v-.457l-3.777-2.086c-7.393-2.009-13.495-6.04-19.016-11.269.278-.7.516-1.351.832-1.966 2.544-4.93 5.107-9.838 7.653-14.765 1.014-1.947 2.105-3.876 3.039-5.863a78.305 78.305 0 0 1 8.327-13.851 47.635 47.635 0 0 1 7.511-7.848c.219-.179.457-.318.7-.479.061-.019.139 0 .219-.019.5.2.4.677.5 1.073a3.969 3.969 0 0 0 3.815 3.1 7.046 7.046 0 0 0 5.425-2.009 27.419 27.419 0 0 0 4.213-4.809c.417-.575.816-1.151 1.273-1.766a13 13 0 0 1 5.922 2.244 18.279 18.279 0 0 1 3.7 3.52 30.907 30.907 0 0 1 5.066 8.822 95.28 95.28 0 0 1 3.421 12.537c1.37 6.4 2.5 12.82 3.475 19.278q1.821 12.013 3.656 24.026c.757 5.128 1.471 10.255 2.228 15.381.615 4.154 1.308 8.287 1.945 12.419.294 1.914.51 3.82.751 5.708z" class="cls-9" transform="translate(-400.644 -84.721)"/>
                <g id="Grupo_10" transform="translate(198.615 174.587)">
                    <path id="Trazado_36" d="M688.522 340.759c-.625-3.5-1.261-6.988-1.884-10.486q-2.659-15-5.314-30.009-3.084-17.307-6.2-34.609-2.878-16.154-5.719-32.312-2.925-16.469-5.875-32.937a6.33 6.33 0 0 0-.677-2.247c-.842-.019-1.617-.052-2.393-.054-3.7-.019-7.393-.021-11.09-.038q-13.329-.057-26.657-.111a11.464 11.464 0 0 0-1.469.184c-.167.629-.323 1.174-.455 1.723-1.221 5.111-2.409 10.232-3.661 15.336-4.548 18.558-9.069 37.124-12.278 55.973-1.228 7.209-2.2 14.466-3.206 21.713-.568 4.078-1.023 8.176-1.448 12.273-.573 5.583-1.092 11.172-1.591 16.762-.226 2.546-.389 5.1-.516 7.655-.156 3.121-.25 6.247-.349 9.371a7.122 7.122 0 0 0 .16 1.2c1.959.314 14.138 1.115 16.027 1.047a11.133 11.133 0 0 0 1.132-.137c.137-.255.248-.372.257-.5.116-1.417.243-2.831.316-4.251.172-3.407.245-6.818.5-10.218.255-3.541.592-7.082 1.033-10.6.745-5.917 1.589-11.825 2.414-17.736.844-6.052 1.872-12.075 3.263-18.026 2.023-8.645 4.076-17.283 6.24-25.893 2.41-9.574 4.993-19.1 8.023-28.5 1.165-3.609 2.426-7.193 3.77-11.163a6.969 6.969 0 0 0 1.08-1.2l.363-.151c.109.257.186.53.271.8 1.026 3.329 1.716 6.74 2.464 10.137q5.651 25.7 11.29 51.4 4.852 22.059 9.725 44.112 2.5 11.341 5.026 22.675a11.128 11.128 0 0 0 .382 1.139 4.331 4.331 0 0 0 .722.123c5.189-.023 10.371-.217 15.534-.752a4.826 4.826 0 0 0 .969-.316c-.07-.536-.101-.96-.179-1.377z" class="cls-10" transform="translate(-597.745 -197.956)"/>
                </g>
                <path id="Trazado_37" d="M606.4 182.65a23.893 23.893 0 0 1-.1-3.159z" class="cls-1" transform="translate(-387.522 -48.436)"/>
                <path id="Trazado_38" d="M573.218 141.781c.905 2.669 2.146 5.04 5.58 4.729a13.345 13.345 0 0 1 2.219 3.147 3.96 3.96 0 0 1 .384 2.263 9.433 9.433 0 0 1-5.366 8.129c-1.018.5-2.091.886-3.128 1.344-1.492.655-3.006 1.275-4.461 2.009a14.363 14.363 0 0 0-7.087 7.9 33.481 33.481 0 0 0-1.627 6.382c-.375 2.094-.755 4.194-1.285 6.252a23.292 23.292 0 0 1-3.171 6.943 20.725 20.725 0 0 1-13.294 9.216 27.135 27.135 0 0 1-20.442-3.6 15.671 15.671 0 0 1-5.865-6.332 11.265 11.265 0 0 1-.408-10.064 19.588 19.588 0 0 1 3.23-5.236c1.117-1.285 2.313-2.5 3.482-3.739.882-.929 1.8-1.818 2.664-2.758a13.079 13.079 0 0 0 3-5.335c.462-1.641.837-3.3 1.308-4.939.394-1.36.811-2.721 1.332-4.036a10.8 10.8 0 0 1 4.689-5.347 22.736 22.736 0 0 1 7.563-2.747 27.053 27.053 0 0 1 10.783.2 34.993 34.993 0 0 0 9.315.688 11.134 11.134 0 0 0 6.658-2.494c.66-.54 1.309-1.094 1.992-1.6a3.166 3.166 0 0 1 1.935-.975z" class="cls-11" transform="translate(-512.442 -99.628)"/>
                <path id="Trazado_39" d="M568.291 178.261c.217-.125.332-.243.455-.252.566-.042 1.132-.075 1.7-.073q24.814.209 49.626.431a1.861 1.861 0 0 1 .563.184c.4 1.488.556 8.211.276 11.828-2.636 1.86-4.175 4.812-6.2 7.348a52.935 52.935 0 0 0-5.036 7.99 3.27 3.27 0 0 1-.283.193.542.542 0 0 1-.2.064 7.854 7.854 0 0 1-.846.045q-14.156-.456-28.309-.927c-.493-.017-.983-.113-1.579-.184a30.173 30.173 0 0 0-4.432-7.919c-1.877-2.308-3.866-4.529-5.882-6.875 0-3.607 0-7.365.007-11.123a3.458 3.458 0 0 1 .14-.73z" class="cls-3" transform="translate(-439.322 -50.547)"/>
                <path id="Trazado_40" d="M618.757 170.561c.615-.776 1.827-.78 2.018-1.886a1.282 1.282 0 0 0-1.589-.684c-.966.21-1.931.446-2.9.667a10.342 10.342 0 0 1-6.042-.707 12 12 0 0 1-2.982-1.61 13.048 13.048 0 0 1-2.174-2.294 16.787 16.787 0 0 1-3.623-9.8 25.556 25.556 0 0 1 .58-7.186 21.092 21.092 0 0 1 3.789-7.513c1.462-2.07 3.671-2.813 5.844-3.593a8.277 8.277 0 0 1 6.026.479 20.417 20.417 0 0 1 5.408 3.428 19.637 19.637 0 0 0-.856 6.559 8.123 8.123 0 0 0 .667 3.1 4.449 4.449 0 0 0 .408.743.907.907 0 0 0 1.573-.1 4.73 4.73 0 0 0 .264-.8 3.917 3.917 0 0 1 2.978-2.994c1.917-.014 2.779 1.136 3.235 2.808a5.567 5.567 0 0 1-.175 4.145 6.294 6.294 0 0 1-3.652 3.1c-.563-.17-1.169-.356-1.674-.509a1.169 1.169 0 0 0-1.054 1.448 5.9 5.9 0 0 0 .356 1.219q2.811 7.7 5.639 15.385c.2.528.467 1.033.712 1.561a21.011 21.011 0 0 1-5.073 6.16 9.8 9.8 0 0 1-1.862 1.007 3.651 3.651 0 0 1-1.445.259 2.407 2.407 0 0 1-2.6-2.508 5.755 5.755 0 0 1 .13-1.473c.108-.556.3-1.094.472-1.69-.581-2.303-1.855-4.402-2.398-6.721z" class="cls-8" transform="translate(-394.139 -108.055)"/>
                <path id="Trazado_41" d="M627.533 188.143c2.2-3.388 2.8-7.363 4.661-10.92a63.726 63.726 0 0 1 6.728 2.574c2.169.844 4.42 1.492 6.62 2.577a5.035 5.035 0 0 1-.259 1.047c-1.825 3.692-3.647 7.388-5.528 11.052-.585 1.132-1.36 2.164-2.03 3.256a8.035 8.035 0 0 1-6.353 3.758 202.646 202.646 0 0 1-22.75 1.332c-3.409.019-6.816.2-10.227.3-.7.024-1.4 0-2.211 0-.415-4.34-.111-8.56-.224-12.827a8.68 8.68 0 0 1 1.2-.288q5.945-.439 11.9-.842c.851-.057 1.7-.045 2.556-.082 4.046-.174 8.091-.337 12.134-.545 1.199-.055 2.395-.241 3.783-.392z" class="cls-10" transform="translate(-401.558 -51.514)"/>
                <path id="Trazado_42" d="M636.4 154.731c.4.2.792.351 1.144.573a6.76 6.76 0 0 1 3.555 6.545 9.736 9.736 0 0 1-1.582 5.017c-.931 1.341-1.822 2.716-2.846 3.987a43.179 43.179 0 0 0-5.6 8.152c-.486.113-.611-.137-.71-.408l-1.846-5.012c.2-.66.613-.568.934-.655a7.411 7.411 0 0 0 5.314-7.15 8.824 8.824 0 0 0-1.007-4.1 4.518 4.518 0 0 0-6.052-1.844 26.435 26.435 0 0 0-2.2 1.476 10.314 10.314 0 0 1 1.016-6.445 2.666 2.666 0 0 0-1.278-1.976 22.1 22.1 0 0 0-5.217-3.275 11.629 11.629 0 0 0-10.005.231 11.042 11.042 0 0 1-1.169-.761 20.661 20.661 0 0 1-4.623-5.26 28.617 28.617 0 0 1-3.522-7.959 8.2 8.2 0 0 1-.073-3.8c.238-1.014.736-1.867 2.082-1.78.481.46.983.936 1.464 1.393a2.624 2.624 0 0 0 .693-.1 4.913 4.913 0 0 0 .688-.474c.252-1.709-.547-3.628 1.019-4.989.945.038 1.266.733 1.711 1.257s.691 1.273 1.6 1.415l.634-.349c.457-1.167-.323-2.5.613-3.525a1.41 1.41 0 0 1 1.6.113 5.116 5.116 0 0 1 1.749 2.1q1.715 2.946 3.435 5.889a26.843 26.843 0 0 0 5.149 6.217 66.076 66.076 0 0 0 8.72 6.825 9.306 9.306 0 0 1 2.9 2.787 8.955 8.955 0 0 1 1.429 3.751c.081.694.181 1.389.281 2.134z" class="cls-11" transform="translate(-395.466 -122.806)"/>
                <path id="Trazado_43" d="M551.857 147.3c.934.042 1.2-.561 1.422-1.167a15.726 15.726 0 0 0 .792-4.6 6.025 6.025 0 0 1 .273-2.454c2.718-.483 5.54-.618 8.341-.87a71.449 71.449 0 0 1 8.141-.644 4.37 4.37 0 0 1 .839 2.52 31.65 31.65 0 0 1 .288 11.858 19.182 19.182 0 0 1-1.445 4.668 12.426 12.426 0 0 1-10.84 7.462c-.561.052-1.129.066-1.7.1-1.424 1.3-.894 3.251-1.726 4.857a4 4 0 0 1-2.348.471 12.957 12.957 0 0 1-5.894-1.677 3.548 3.548 0 0 1-1.82-2.247c.149-.5.344-1.174.549-1.844.559-1.832 1.106-3.668 1.693-5.493.361-1.122.462-2.374 1.551-3.173.156-.116.021-.629.021-.9-.224-.132-.344-.269-.462-.269a4.032 4.032 0 0 1-3.631-2.216 14.5 14.5 0 0 1-1.047-1.851 6.278 6.278 0 0 1 .934-6.792 2.015 2.015 0 0 1 3-.467 4.473 4.473 0 0 1 2.259 3.194 1.874 1.874 0 0 0 .81 1.534z" class="cls-7" transform="translate(-471.742 -105.364)"/>
                <path id="Trazado_44" d="M595.035 282.328a4.335 4.335 0 0 1-2.669.42q-9.689-.021-19.374-.087c-5.18-.038-10.357-.108-15.536-.17-.493 0-.983-.061-1.565-.1a4.128 4.128 0 0 1-.266-.985q-.039-6.6-.04-13.2a8.164 8.164 0 0 1 .109-.919c.662-.042 1.282-.073 1.9-.125.566-.045 1.129-.148 1.695-.165a10.773 10.773 0 0 0 7.287-3.039c.151-.144.33-.259.589-.46a54.9 54.9 0 0 1 5.932 1.311 36.6 36.6 0 0 1 12.851 5.953c1.125.86 2.226 1.763 3.282 2.706a26.757 26.757 0 0 1 5.6 7.952 4.139 4.139 0 0 1 .205.908z" class="cls-12" transform="translate(-456.364 65.611)"/>
                <path id="Trazado_45" d="M622.058 280.409c-1.844.306-32.819.71-34.762.462-.309-.3-.144-.639-.04-.964a18.809 18.809 0 0 1 9.852-11.743 45.008 45.008 0 0 1 5.1-2.134 52.451 52.451 0 0 1 7.726-1.9c2.423 2.466 5.7 2.947 8.885 3.614 1.308.273 2.643.427 4.048.648a3.764 3.764 0 0 1 .146.835q-.325 5.1-.688 10.2a4.9 4.9 0 0 1-.267.982z" class="cls-13" transform="translate(-413.555 66.465)"/>
                <path id="Trazado_46" d="M558.358 279.9a11.613 11.613 0 0 1-1.172.167c-6.9.226-35.113.1-37.126-.179a14.21 14.21 0 0 1 .729-3.645c.262-1.318.613-2.622.971-3.921a16.56 16.56 0 0 1 1.016-3.612c5.01.224 7.084-.321 12.29-3.251a8.266 8.266 0 0 1 1.511.245 60.7 60.7 0 0 1 15.689 7.464 20.416 20.416 0 0 1 5.444 5.326 10.112 10.112 0 0 1 .648 1.406z" class="cls-12" transform="translate(-504.6 68.273)"/>
                <path id="Trazado_47" d="M567.321 181.046a3.651 3.651 0 0 1-.255-.865c.094-1.839.21-3.678.325-5.613a5.662 5.662 0 0 1 1.214-.245c4.189.061 8.379.148 12.568.229.354.009.71.024 1.066.024 6.323.054 12.646.085 18.969.165 7.245.1 14.487.236 21.732.363.415.007.825.083 1.207.12a15.157 15.157 0 0 1 .033 6.033 5.33 5.33 0 0 1-2.447.2c-2.344-.021-4.687-.111-7.03-.123q-22.487-.124-44.975-.224c-.773-.01-1.549-.041-2.407-.064z" class="cls-14" transform="translate(-440.777 -55.453)"/>
                <path id="Trazado_48" d="M644.292 265.791c.295.3.575.608.879.894a7.4 7.4 0 0 0 3.982 1.851 19.377 19.377 0 0 0 8.013-.351 3.967 3.967 0 0 1 .627-.08 1.615 1.615 0 0 1 .33.083c.7 1.485.71 3.209 1.056 4.84.354 1.66.549 3.355.813 5.019-.528.566-1.207.431-1.813.457-3.9.17-7.8.3-11.7.464-4.607.193-9.211.417-13.817.6-3.119.123-6.24.193-9.362.281a4.49 4.49 0 0 1-.752-.13 4.018 4.018 0 0 1 .311-.967 19.072 19.072 0 0 1 4.251-4.727 48.17 48.17 0 0 1 16.281-8.089 7.627 7.627 0 0 1 .901-.145z" class="cls-13" transform="translate(-365.451 68.72)"/>
                <path id="Trazado_49" d="M558.585 141.258c-1.667.509-3.154.948-4.628 1.426s-2.963.985-4.427 1.523c-1.4.514-2.761 1.127-4.17 1.608-1.45.5-2.711 1.521-4.336 1.622a2.249 2.249 0 0 1-.229-.655 26.824 26.824 0 0 1 1.917-9.543 15.036 15.036 0 0 1 2.252-3.6 7.13 7.13 0 0 1 11.227.587 17.3 17.3 0 0 1 2.394 7.032z" class="cls-5" transform="translate(-476.441 -114.016)"/>
                <path id="Trazado_50" d="M617.116 182.29a40 40 0 0 1-2.761 7.233c-1.9.3-3.876.365-5.849.5a92.361 92.361 0 0 0-14.35 1.721c-.818.186-1.629.415-2.383.608-.618-.526-.469-1.08-.328-1.74 1.37-.488 2.883-.292 4.324-.573 1.384-.273 2.791-.427 3.949-.594a3.191 3.191 0 0 0 1.209-1.749c1.438-3.4 2.86-6.8 4.3-10.2a3.932 3.932 0 0 1 1.068-1.865c1.778 1.219 3.482 2.49 5.283 3.6s3.699 2.05 5.538 3.059z" class="cls-10" transform="translate(-407.851 -53.67)"/>
                <path id="Trazado_51" d="M631.837 260.657c.872-.068 1.426-.123 1.98-.153q4.237-.233 8.473-.453c.123 0 .252.106.49.212a6.882 6.882 0 0 1 .285.905c.74 4.1 1.466 8.209 2.212 12.4a5.994 5.994 0 0 1-1.12.622 18.516 18.516 0 0 1-7.374.365 6.026 6.026 0 0 1-2.9-1.391c-.657-4.043-1.329-8.15-2.046-12.507z" class="cls-8" transform="translate(-352.848 60.927)"/>
                <path id="Trazado_52" d="M597.816 270.191a49.8 49.8 0 0 1 .123-10.868 2.6 2.6 0 0 1 .729-.186c1.271.021 2.546.049 3.817.125 2.117.123 4.237.273 6.351.431a7.484 7.484 0 0 1 1.04.226 3.74 3.74 0 0 1 .158.875c-.295 4.013-.608 8.027-.9 11.865a1.61 1.61 0 0 1-1.716.479c-5.061-.676-7.801-1.513-9.602-2.947z" class="cls-8" transform="translate(-399.358 59.686)"/>
                <path id="Trazado_53" d="M533.54 259.57c-.441 4.418-1.141 8.666-1.945 12.8-3.3 2.407-7.315 3.4-10.133 2.492a4.486 4.486 0 0 1 .01-.974q1.471-6.528 2.975-13.049c.1-.413.262-.806.387-1.183a35.649 35.649 0 0 1 8.706-.086z" class="cls-7" transform="translate(-502.719 59.975)"/>
                <path id="Trazado_54" d="M569.193 140.306c-1.811.127-3.567.2-5.309.391-1.829.207-3.645.575-5.469.811-1.737.222-3.421.811-5.295.9-.2-.757-.394-1.429-.552-2.11a16.959 16.959 0 0 0-1.542-4.18 8.3 8.3 0 0 0-4.128-4.128 5.665 5.665 0 0 1-.684-.429 3.655 3.655 0 0 1 .863-.53 38.142 38.142 0 0 1 11.83-1.018c4.583.351 7.551 2.94 9.411 6.964a6.592 6.592 0 0 1 .875 3.329zm-9.513-8.034c-.486.08-.771.108-1.042.179a3.953 3.953 0 0 0-2.911 3.76 4.31 4.31 0 0 0 2.612 4.031 3.543 3.543 0 0 0 3.869-1.009 4.278 4.278 0 0 0-.769-6.193 9.253 9.253 0 0 0-1.759-.769z" class="cls-6" transform="translate(-469.084 -115.75)"/>
                <path id="Trazado_55" d="M555.946 271.494c-.455-4.071-.365-7.9-.627-11.71-.014-.189.134-.387.229-.651 3.508-.545 7.009 0 10.375-.127.205.33.337.446.34.563.064 2.336.111 4.673.163 7.009a3.51 3.51 0 0 1-1.6 3.062 9.658 9.658 0 0 1-3.034 1.481 17.939 17.939 0 0 1-5.846.373z" class="cls-7" transform="translate(-456.726 59.348)"/>
                <path id="Trazado_56" d="M580.507 137.834c-1.155.165-2.056.332-2.963.415q-16.416 1.521-32.829 3.011c-.1.009-.21-.108-.325-.172a2.205 2.205 0 0 1 1.259-.71 90.131 90.131 0 0 1 18.712-4.758 36.777 36.777 0 0 1 5.929-.448 24.19 24.19 0 0 1 9.084 1.858 4.464 4.464 0 0 1 .568.292 5.632 5.632 0 0 1 .565.512z" class="cls-5" transform="translate(-471.562 -108.608)"/>
                <path id="Trazado_57" d="M556.026 141.793c-.448-.318-.67-.464-.884-.627a20.062 20.062 0 0 0-1.686-1.29 3.5 3.5 0 0 0-4.649.476 6.6 6.6 0 0 0-1.764 2.626 8.487 8.487 0 0 0 .462 7.379 10.581 10.581 0 0 0 3.564 4.038c.125 1-.417 1.707-.523 2.68a13.506 13.506 0 0 1-1.332-.632 13.643 13.643 0 0 1-3.275-3.013 21.016 21.016 0 0 1-4.574-11.913 14.711 14.711 0 0 1 .085-1.761c2.45-.736 4.946-.653 7.377-.891a44.069 44.069 0 0 1 7.238-.538 6.528 6.528 0 0 1-.039 3.466z" class="cls-11" transform="translate(-475.678 -104.358)"/>
                <path id="Trazado_58" d="M542.931 146.016c-1.483-.134-2.06-.686-2.615-2.358-.471-1.433-.337-1.9.971-3.006a2.084 2.084 0 0 1 .318.512c.437 1.557.852 3.115 1.326 4.852z" class="cls-3" transform="translate(-477.428 -101.159)"/>
                <path id="Trazado_59" d="M574.28 164.544s-10.267 5.986-9.109 12.775c0 0-6.455 4.3-3.64 20.369s10.641 40.984 15.069 44.712 12.7 5.057 12.7 5.057-18.825 5.012-23.462-19.15l-1.325 29.5 9.739 4.536-18.4-.74-.615 6.17s19.484 1.858 35.444 1.122c0 0-31.5 6.138-36.354 13.4 0 0-9.852 79.9-25.006 131.623l6.4 1.224-14.28 9.652s22.13-92.312 27.055-155.894l-2.034-1.122-1.117-6.17s-3.958-2.6-4.1-9.185 6.087-39.656 6.087-39.656 7.33-48.025 26.579-51.151l5.941-16.913 1.1.684-4.982 21.935z" opacity="0.154" transform="translate(-502.718 -95.674)"/>
                <path id="Trazado_60" d="M542.971 204.778a506.3 506.3 0 0 1 22.2 89.367c2.98 14.9 6.91 36.438 6.91 36.438l11.719 1.2-11.441 8.2-1.351-7.646-4.595-1.061-10.433-68.43s-10.121-47.966-13.009-54.537z" class="cls-4" transform="translate(-473.486 -14.108)"/>
                <path id="Trazado_61" d="M554.283 165.874l11.317 30.452a8.2 8.2 0 0 0 6.132 5.2l4.68.905.61 1.266-.856.766-15.546-.766-6.334-13.106s3.104-13.912-.003-24.717z" class="cls-4" transform="translate(-458.13 -66.921)"/>
                <path id="Trazado_62" d="M628.628 137.216a13.351 13.351 0 0 1-2.558 11.939 25.248 25.248 0 0 1-10.18 7.193l4.8 21.116a18.4 18.4 0 0 1 11.427 12.655c2.815 10.1-3.282 45.408-3.282 45.408l-12.94-5s8.44 4.781 7.28 9.51-5.29 14.2-13.007 17.4c0 0 9.529-.818 15.326-1.033s9.524-17.9 9.524-17.9l2.945-.71 4.423 41.908h-34.12l34.156 7.589 26.9 137.956-5.491 2.153 13.44 11.3-28.1-159.9 6.085.611-11.056-74.138s-2.607-29.561-20.866-32.541l-2.73-8.072s.5-3.975 7.2-11.677.824-15.767.824-15.767z" class="cls-4" transform="translate(-384.846 -105.825)"/>
                <path id="Trazado_63" d="M625.719 164.662l-7.834 30.356-11.385-5.392s6.955 5.46 4.97 10-20.711 5.156-20.711 5.156v2.789l15.494-1.547 9.654-.5 3.388-8.942 5.215 1.452 1.214-3.758z" class="cls-4" transform="translate(-408.619 -68.566)"/>
                <path id="Trazado_64" d="M640.894 204.831s-22.562 39.7-32.284 127.441l-10.88.773 11.191 13.337.745-12.74 7.4-.849s.156-49.685 13.122-88.151 10.706-39.811 10.706-39.811z" class="cls-4" transform="translate(-399.149 -14.036)"/>
                <path id="Trazado_65" d="M567.814 182.658l54.082 5.1-.823-8.207-52.362-2.351z" class="cls-4" transform="translate(-439.761 -51.544)"/>
                <g id="Grupo_11" transform="translate(21.629 11.29)">
                    <path id="Trazado_66" d="M614.077 134.669c-.733-1.049-1.532-2.051-2.358-3.029a5.363 5.363 0 0 0-1.365-1.535c-1.141-1.1-2.581-1.994-4.086-.95-1.947 1.353-.358 3.145.712 4.38 1.087 1.254 2.131 2.56 3.265 3.772a3.522 3.522 0 0 0 2.565 1.389h.038c1.157.146 2.409-.151 2.541-1.327.111-.984-.803-1.969-1.312-2.7z" class="cls-1" transform="translate(-410.436 -128.69)"/>
                    <path id="Trazado_67" d="M614.224 135.044c-.222-1-.992-1.233-1.888-1.393a.955.955 0 0 0-.436.024.776.776 0 0 0-1.084.368c-.79 1.6.472 3.836 2.4 2.987a1.745 1.745 0 0 0 1.008-1.986z" class="cls-1" transform="translate(-403.34 -122.047)"/>
                    <path id="Trazado_68" d="M549.109 132.757c-.406-.608-1.2-.573-1.888-.545-.014 0-.021-.007-.038-.007a4.643 4.643 0 0 0-4.734 4.255c-.083.83 1.033 1.148 1.561.646a25.2 25.2 0 0 1 2.155-1.985 2.756 2.756 0 0 1 1.384-.629 2.72 2.72 0 0 0 1.115-.132 1.106 1.106 0 0 0 .445-1.603z" class="cls-1" transform="translate(-495.83 -123.925)"/>
                    <path id="Trazado_69" d="M550.307 130.837a1.453 1.453 0 0 0-.943-.233l-.038.009a.846.846 0 0 0-.773.229 1.192 1.192 0 0 0 .075 1.867 1.494 1.494 0 0 0 2.006-.62.927.927 0 0 0-.327-1.252z" class="cls-1" transform="translate(-488.099 -126.103)"/>
                    <path id="Trazado_70" d="M536.359 144.821a11.863 11.863 0 0 0-3.557-.25.819.819 0 0 0-.464-.108c-2.327.144-5.526-.952-6.827 2.027-1.007 2.313 2.211 2.426 3.607 2.374.78-.028 1.535-.193 2.315-.17a23.926 23.926 0 0 1 2.431.481 4.433 4.433 0 0 0 3.093-.681 1.981 1.981 0 0 0-.598-3.673z" class="cls-1" transform="translate(-519.081 -107.39)"/>
                    <path id="Trazado_71" d="M525.866 146.176a1.351 1.351 0 0 0-1.45.13.841.841 0 0 0-.733.073 1.83 1.83 0 0 0-.493 2.9 1.89 1.89 0 0 0 2.864-.34c.593-.801.937-2.244-.188-2.763z" class="cls-1" transform="translate(-522.672 -105.157)"/>
                    <path id="Trazado_72" d="M540.181 143.72a.972.972 0 0 0-.9-.375c-.016 0-.028-.009-.049-.009a1.249 1.249 0 0 0-1.334.974.927.927 0 0 0 .422 1.033 1.443 1.443 0 0 0 2.009-.512.939.939 0 0 0-.148-1.111z" class="cls-1" transform="translate(-502.056 -108.814)"/>
                    <path id="Trazado_73" d="M610.569 184.512c-.184-1.174-1.122-1.523-2.214-1.469a.836.836 0 0 0-.394.127c-2.117-.085-4.236-.205-6.354-.215-1.051 0-2.714.009-3.35 1.051-1.714 2.808 4.244 2.721 5.33 2.824 1.294.125 6.941 1.313 6.67-1.464a.927.927 0 0 0 .312-.854z" class="cls-1" transform="translate(-420.479 -55.022)"/>
                    <path id="Trazado_74" d="M606.91 183.07a.791.791 0 0 0-.233-.066.72.72 0 0 0-.679.1 1.419 1.419 0 0 0-.929 1.66 2.014 2.014 0 0 0 2.136 1.351c.837-.035 1.759-.641 1.683-1.568-.088-1.182-1.123-1.196-1.978-1.477z" class="cls-1" transform="translate(-410.865 -55.013)"/>
                    <path id="Trazado_75" d="M552.887 182.547a.781.781 0 0 0-.832.57c-.068 0-.132-.009-.2 0a.926.926 0 0 0-.646 1.561c1.884 1.7 4.3 1.681 6.693 1.44a.934.934 0 0 0 .882-1.158c-.321-2.102-4.284-2.336-5.897-2.413z" class="cls-1" transform="translate(-484.312 -55.579)"/>
                    <path id="Trazado_76" d="M557.187 182.943h-.915a.915.915 0 0 0 0 1.829h.915a.915.915 0 0 0 0-1.829z" class="cls-1" transform="translate(-478.255 -55.039)"/>
                    <path id="Trazado_77" d="M556.371 162.482a6.694 6.694 0 0 0-3.385-4.7 4.265 4.265 0 0 0-1.023-.641.881.881 0 0 0-.889.236c-.851.938-.1 2.35.358 3.334a11.351 11.351 0 0 0 2.487 3.437.883.883 0 0 0 1.313-.078 1.236 1.236 0 0 0 .469-.264 1.125 1.125 0 0 0 .295-.4.926.926 0 0 0 .375-.924z" class="cls-1" transform="translate(-484.641 -90.127)"/>
                    <path id="Trazado_78" d="M555.4 160.832a.9.9 0 0 0-1.65.259.873.873 0 0 0-.342.922 1.522 1.522 0 0 0 .728.995.922.922 0 0 0 1.25-.328 1.768 1.768 0 0 0 .014-1.848z" class="cls-1" transform="translate(-480.986 -85.671)"/>
                    <path id="Trazado_79" d="M544.073 161.187a.921.921 0 0 0-1.141-.354c-1.136-.038-1.426 1.1-1.285 2.119.151 1.089.271 2.869 1.32 3.527 1.181.74 2.148-.474 2.294-1.558a5.778 5.778 0 0 0-1.188-3.734z" class="cls-1" transform="translate(-496.958 -85.151)"/>
                    <path id="Trazado_80" d="M542.387 166.776v.153a.915.915 0 0 0 1.829 0v-.153a.915.915 0 0 0-1.829 0z" class="cls-1" transform="translate(-495.909 -78.184)"/>
                </g>
                <g id="Grupo_12">
                    <path id="Trazado_81" d="M537.033 199.761a4.21 4.21 0 0 1 .714-.1c.125.007.245.12.368.189.068.12.21.248.2.361-.1 1.054-.177 2.11-.344 3.154-.571 3.574-1.181 7.146-1.768 10.717-.108.653-.25 1.264-1.11 1.49l-.733-.5a130.633 130.633 0 0 1 2.673-15.311z" class="cls-2" transform="translate(-485.18 -21.051)"/>
                    <path id="Trazado_82" d="M626.942 214.886a.8.8 0 0 1-1.146-.29 6.45 6.45 0 0 1-.5-1.391q-1.538-5.761-3.048-11.526a9.636 9.636 0 0 1-.255-1.466.809.809 0 0 1 .648-.945.928.928 0 0 1 .978.658c.125.332.215.679.307 1.021 1.04 3.909 2.086 7.815 3.11 11.731.188.737.457 1.517-.094 2.208z" class="cls-2" transform="translate(-366.225 -21.591)"/>
                    <path id="Trazado_83" d="M552.149 181.783a.836.836 0 0 1 .556 1.169 1.419 1.419 0 0 1-.325.535c-1.426 1.57-2.855 3.14-4.3 4.689a5.366 5.366 0 0 1-.924.634c-.247-.158-.594-.257-.665-.455a1.969 1.969 0 0 1 .007-.993c.038-.186.231-.347.373-.5 1.29-1.412 2.572-2.824 3.871-4.225a1.921 1.921 0 0 1 1.407-.854z" class="cls-2" transform="translate(-468.798 -45.324)"/>
                    <path id="Trazado_84" d="M559.9 183.749a6.63 6.63 0 0 1 .153.9c.031.483.007.976.007 1.318-.544.6-.978.58-1.48.163a3.151 3.151 0 0 1-.1-2.358c.434-.516.856-.542 1.42-.023z" class="cls-2" transform="translate(-452.681 -43.167)"/>
                    <path id="Trazado_85" d="M625.22 451.245c.943.224 1.759.439 2.584.615a46.332 46.332 0 0 1 12.024 4.218 34.405 34.405 0 0 1 10.656 8.716 19.985 19.985 0 0 1 3.355 5.9 5.691 5.691 0 0 1 .217.6 1.865 1.865 0 0 1-1.688 2.61 10.994 10.994 0 0 1-1.912.109q-18.339-.085-36.681-.184a11.7 11.7 0 0 1-1.7-.042 5.489 5.489 0 0 1-1.16-.464c.3-10.317-.132-20.518-.688-30.631-.545-.587-1.139-.377-1.683-.361a9.758 9.758 0 0 1-3.249-.148c-.1-.422-.229-.816-.283-1.221-.519-3.944-1.019-7.891-1.532-11.835-.625-4.788-1.238-9.581-1.893-14.367-.62-4.5-1.254-9.006-1.94-13.5-.884-5.828-1.733-11.665-2.761-17.472q-2.136-12.059-4.534-24.078c-2.306-11.5-5.026-22.892-8.433-34.116a6.149 6.149 0 0 0-.806-2.1c-.519.165-.521.547-.575.886-.575 3.647-1.129 7.3-1.726 10.946-1.268 7.782-2.86 15.5-4.522 23.212-4.647 21.536-10.482 42.763-16.606 63.915-1.756 6.073-3.553 12.134-5.316 18.2a4.771 4.771 0 0 1-1.278 2.49c-2.117.467-4.331-.073-6.589.222-.893 1.933-.75 4.038-1.092 6.038a43.923 43.923 0 0 0-.908 6.158c.436.182.806.365 1.2.49a62.234 62.234 0 0 1 16.331 7.683 21.773 21.773 0 0 1 6.422 6.448 6.443 6.443 0 0 1 .83 1.935 1.405 1.405 0 0 1-1.483 1.834c-.5 0-1 .012-1.495.012l-36.681.017c-.641 0-1.283.019-1.919-.035a5.192 5.192 0 0 1-1.042-.337 6.558 6.558 0 0 1 .09-1.094c3.315-12.573 6.141-25.261 8.86-37.973 2.447-11.458 4.842-22.932 7.091-34.432 1.775-9.062 3.348-18.162 4.911-27.263 1.167-6.79 2.225-13.6 3.235-20.414.846-5.691 1.579-11.4 2.31-17.109.686-5.352 1.349-10.71 1.945-16.076.542-4.871.978-9.753 1.469-14.629.193-1.91.413-3.814.613-5.722.066-.632.108-1.266.17-2-.443-.224-.868-.436-1.346-.679a6.047 6.047 0 0 1-.448-2.857c-.057-.917-.064-1.837-.092-2.73-.471-.547-.872-1.042-1.3-1.5a10.335 10.335 0 0 1-2.718-6.99 53.223 53.223 0 0 1 .608-9.35c.806-5.767 1.728-11.519 2.648-17.269.863-5.4 1.8-10.79 2.676-16.187a136.377 136.377 0 0 1 4.267-18.464 106.133 106.133 0 0 1 7.992-19.03c.606-1.125 1.306-2.2 1.995-3.275a23.068 23.068 0 0 1 11.08-8.965c.526-.215 1.059-.413 1.587-.625.061-.024.1-.09.269-.233 1.016-3.256 2.075-6.632 3.147-10.064a21.034 21.034 0 0 0-3.308-2.122c-.21.8-.377 1.473-.571 2.141a10.909 10.909 0 0 1-6.245 7.389c-.91.4-1.827.787-2.74 1.181-1.367.594-2.754 1.146-4.1 1.789a12.967 12.967 0 0 0-6.809 7.556 35.178 35.178 0 0 0-1.539 6.629 35.677 35.677 0 0 1-2.119 8.235 24.462 24.462 0 0 1-9.72 11.816 23.96 23.96 0 0 1-8.97 3.192c-6.8 1.113-13.124-.377-19.091-3.64a18.032 18.032 0 0 1-6.948-6.764 13.125 13.125 0 0 1-.823-12.648 24.082 24.082 0 0 1 4.484-6.7c1.214-1.294 2.445-2.582 3.737-3.8a15.16 15.16 0 0 0 4.557-8.027c.255-1.179.549-2.353.87-3.515.262-.96.561-1.91.891-2.846a13.487 13.487 0 0 1 6.919-7.752 25.368 25.368 0 0 1 9.8-2.671 32.568 32.568 0 0 1 9.534.681 27.554 27.554 0 0 0 7.631.582 9.94 9.94 0 0 0 6.1-2.211c.38-.321.776-.62 1.158-.941a9.25 9.25 0 0 1 4.015-2.315 4.424 4.424 0 0 1 2.872-2.52l.125-1.9c-.441-.377-.811-.7-1.165-1a2.747 2.747 0 0 1-.179-.651 27.731 27.731 0 0 1 2.023-11.453 16.452 16.452 0 0 1 2.053-3.475 10.455 10.455 0 0 1 4.517-3.44 44.347 44.347 0 0 1 16.4-3.27 21.7 21.7 0 0 1 4.647.526c4.218.964 6.858 3.829 8.636 7.6a26.069 26.069 0 0 1 .978 2.813c.177.535.333 1.073.516 1.664.792.193 1.544.38 2.3.563a25.2 25.2 0 0 1 6.507 2.6c.9.512.9.521 1.678 1.629a1.469 1.469 0 0 1-1.488 1.209c-1.412.148-2.827.278-4.239.413-1.558.151-3.114.288-4.666.455a8.017 8.017 0 0 0-1.117.292c.233 1.459.49 2.848.672 4.246a33.487 33.487 0 0 1-.2 11.453 17.715 17.715 0 0 1-3.018 6.99 13.756 13.756 0 0 1-9.885 5.63c-.49.057-.983.1-1.523.156-.832 1.4-.792 3.006-1.148 4.5-.363 1.511-.594 3.051-.882 4.581 1.358 1.158 2.666 2.237 3.937 3.362a52.5 52.5 0 0 1 12.981 16.734c1.191 2.5 2.376 5.01 3.4 7.579 1.683 4.22 3.256 8.489 4.84 12.75q2.783 7.49 5.5 15c1.155 3.206 2.237 6.441 3.362 9.659.229.667.486 1.325.757 2.058a29.507 29.507 0 0 1 3.407.21 24.259 24.259 0 0 1 3.025.927.565.565 0 0 0 .193-.078.3.3 0 0 0 .089-.189q.11-4.47.205-8.942a10.474 10.474 0 0 0-.1-1.094l-2.025-.429c-.523-1.53-.568-3.949-.179-7.886a3.58 3.58 0 0 1 .752-2.07 15.709 15.709 0 0 1 1.589-.139q13.113.124 26.232.273c9.378.12 18.759.276 28.142.413a11.528 11.528 0 0 1 3.687.4 6.614 6.614 0 0 1 .3 1.384c.012 2.487-.024 4.974-.052 7.462 0 .127-.108.255-.215.5-.443.153-.964.33-1.476.5-.427.608-.446 4.536-.014 6.632 2.383.453 4.715-.238 7.172-.528a8.318 8.318 0 0 0 .636-1.04q2.415-5.686 4.8-11.389c.161-.384.245-.8.354-1.15-.821-.905-1.589-1.728-2.315-2.586a2.91 2.91 0 0 1-.3-.922c.62-1.353 1.2-2.805 1.919-4.182 2.53-4.852 5.111-9.678 7.657-14.518.761-1.445 1.53-2.89 2.211-4.373a80.215 80.215 0 0 1 8.553-14.228 52.8 52.8 0 0 1 9.265-9.383c.387-.311.771-.625 1.15-.945a1.938 1.938 0 0 0 .21-.337c-.537-2.07-1.589-4.074-2.334-6.278-1.146 0-2.2.059-3.253-.012a14.034 14.034 0 0 1-8.218-3.649 13.247 13.247 0 0 1-4.06-5.6c-.415-1.127-.875-2.233-1.275-3.371-1.054-2.985-.78-6.04-.587-9.079a12.446 12.446 0 0 1 .91-3.487c.9-2.376 1.674-4.84 3.383-6.816.832-.957 1.745-1.846 2.558-2.7.014-.644-.446-.809-.738-1.075a28.619 28.619 0 0 1-7.348-11.59 12.083 12.083 0 0 1-.719-5.868 7.364 7.364 0 0 1 .318-1.45 3.448 3.448 0 0 1 2.949-2.445 11.724 11.724 0 0 1 1.5-.012l.356-1.07a11.309 11.309 0 0 1 .471-1.407 2.618 2.618 0 0 1 3.522-1.481c.2.064.368.212.566.288a1.929 1.929 0 0 0 .465.04c.134-.207.271-.455.441-.674a2.8 2.8 0 0 1 3.739-.983 5.865 5.865 0 0 1 2.695 2.633c1.058 1.851 2.145 3.685 3.2 5.538a28.291 28.291 0 0 0 6.123 7.325 55.022 55.022 0 0 0 7.249 5.6 11.56 11.56 0 0 1 5.651 8.593c.019.139.068.271.134.533.309.236.7.526 1.087.827a8.648 8.648 0 0 1 3.626 7.752 11.5 11.5 0 0 1-1.9 6.012c-1.3 1.862-2.7 3.657-4.041 5.491-1.049 1.431-2.122 2.85-3.117 4.321a8.091 8.091 0 0 0-.8 8.105c.356.846.674 1.709 1.033 2.619 1.03.311 2.032.658 3.058.912a16.166 16.166 0 0 1 8.56 5.67 33.022 33.022 0 0 1 6.085 10.918 123.964 123.964 0 0 1 3.784 15.074c1.542 7.735 2.773 15.522 3.923 23.325q1.818 12.331 3.682 24.66c.813 5.406 1.676 10.809 2.494 16.215.476 3.161.929 6.325 1.337 9.5a3.8 3.8 0 0 1-.13 2.572c-1.688.547-3.51-.092-5.154.377a2.929 2.929 0 0 0-.033 1.978q3.282 18.35 6.573 36.7c2.068 11.611 4.095 23.226 6.163 34.837 2.056 11.535 4.149 23.066 6.2 34.6 1.919 10.769 3.8 21.543 5.717 32.312q2.606 14.683 5.25 29.363c.212 1.179.38 2.367.561 3.513a2.486 2.486 0 0 1-2.171.811c-1.419.075-2.843.073-4.262.125-3.124.115-6.247.252-9.371.365-5.255.191-10.51.363-15.765.561-2.412.092-4.823.238-7.238.354a9.531 9.531 0 0 1-1.49 0 1.679 1.679 0 0 1-1.62-1.268 6.983 6.983 0 0 1 1.235-2.834 19.825 19.825 0 0 1 4.088-4.614 44.125 44.125 0 0 1 8.439-5.352 65.142 65.142 0 0 1 10.218-3.855 2.87 2.87 0 0 0 .106-.813q-.75-4.523-1.54-9.034c-.047-.276-.132-.545-.224-.915a9.891 9.891 0 0 0-1.224-.132c-1.134.024-2.268.113-3.4.113a6.314 6.314 0 0 1-1.28-.231 3.559 3.559 0 0 1-.858-2.091q-2.521-11.447-5.045-22.889-4.127-18.728-8.256-37.454-4.629-21.016-9.253-42.037c-1.436-6.521-2.857-13.042-4.326-19.556a5.007 5.007 0 0 0-1.026-2.711c-.269.691-.5 1.252-.7 1.827-3 8.589-5.5 17.333-7.829 26.121-3.062 11.531-6.021 23.09-8.551 34.755q-1.966 9.064-3.228 18.25c-.8 5.844-1.639 11.682-2.346 17.533-.467 3.876-.792 7.775-1.059 11.672-.236 3.473-.29 6.957-.455 10.432-.059 1.2-.207 2.4-.3 3.407a2.057 2.057 0 0 1-1.987.955 11.891 11.891 0 0 0-3.265.127 14.487 14.487 0 0 0-.252 1.429c-.346 4.675-.674 9.352-1.016 14.032q-.421 5.736-.872 11.474c-.115 1.433-.677 1.966-2.19 2.072-1.417.1-2.838.179-4.258.189q-14.93.113-29.858.184c-.773 0-1.547-.059-2.164-.083a1.7 1.7 0 0 1-.488-1.924c1.282-4.621 3.409-8.709 7.308-11.719a31.422 31.422 0 0 1 11.686-5.467c1.858-.469 3.725-.889 5.7-1.356a7.667 7.667 0 0 0 .233-1.426c-.137-5.764.344-11.507.493-17.262.144-5.613.644-11.2 1.179-16.79.483-5.019.912-10.045 1.478-15.055s1.235-10.01 1.933-15.006q1.033-7.384 2.221-14.749 2.058-12.621 4.958-25.079c3.216-13.836 6.544-27.644 9.822-41.467q.711-3.006 1.393-6.021a8.812 8.812 0 0 0 .1-.96c-.486-.245-.969-.5-1.573-.8a10.206 10.206 0 0 1-.283-1.341c-.1-1.273-.2-2.553-.229-3.831-.08-3.48-.127-6.964-.182-10.446-.026-1.77-.193-3.525-.33-5.354a11.221 11.221 0 0 0-3.447-.1c-1.209-.016-2.419 0-3.626.009-1.139.012-2.275.028-3.414.073-1.2.045-2.409.141-3.614.189-1.139.042-2.275.042-3.411.068-1.209.024-2.421.127-3.626.064-1.115-.061-2.251.429-3.452-.146l-.66-1.877a.846.846 0 0 0-1.139.314 16.908 16.908 0 0 0-.929 1.429 19.666 19.666 0 0 1-9.421 8.006 11.853 11.853 0 0 1-6.9.667 4.537 4.537 0 0 1-3.92-3.458c-.071-.273-.191-.533-.325-.9a13.646 13.646 0 0 0-1.4-.174c-6.391-.2-12.785-.382-19.178-.58-2.839-.087-5.677-.21-8.518-.309-.42-.014-.842 0-1.249 0-2.079 3.044-5.038 2.956-8.063 2.343a16.751 16.751 0 0 1-5.417-2.44c-.542-.337-1.063-.707-1.688-1.122a26.855 26.855 0 0 1-5.8-.769 10.285 10.285 0 0 1-4.423-1.985c-.5-.389-1.028-.754-1.69-1.242-1.292 0-2.707.009-4.123 0a2.714 2.714 0 0 0-1.587.516 6.724 6.724 0 0 1-3.228.945c-3.121.314-6.245.217-9.369.233-.7 0-1.4.054-2.216.085a12.074 12.074 0 0 0-.191 1.278c-.073 2.275-.1 4.55-.193 6.823a8.6 8.6 0 0 1-.75 4.149 2.952 2.952 0 0 0-.184 1.445c.024 1.351.134 2.7.141 4.05.007.764-.123 1.53-.229 2.7.648 2.039 1.452 4.465 2.19 6.908 2.7 8.911 4.861 17.96 6.8 27.064s3.616 18.257 5.038 27.453c1.018 6.6 1.9 13.221 2.74 19.846.735 5.849 1.365 11.712 1.957 17.578.4 3.958.667 7.931.969 11.9q.4 5.205.735 10.418c.087 1.346.113 2.7.158 4.048.172 5.4.354 10.8.507 16.194.108 3.836.177 7.676.269 11.512-.005.265.051.541.115 1.055zm-2.277-10.97a9.8 9.8 0 0 0 .127-2.7c-.259-6.387-.46-12.775-.816-19.16q-.492-8.827-1.264-17.637c-.623-6.929-1.379-13.848-2.124-20.765-.915-8.478-2.185-16.906-3.577-25.313-1.879-11.354-4.069-22.644-6.757-33.835-1.709-7.115-3.593-14.181-5.915-21.124a12.088 12.088 0 0 0-1.106-2.735 18.816 18.816 0 0 0-1.971.009 102.456 102.456 0 0 1-11.691.712c-3.909-.009-7.815.019-11.724.045a95.908 95.908 0 0 1-14.666-.783 3.3 3.3 0 0 0-2.188.125c-.09.493-.217 1.037-.276 1.589-.321 3.18-.6 6.363-.941 9.543-.641 6-1.278 12-1.983 18-.719 6.137-1.431 12.276-2.306 18.391-1.28 8.928-2.622 17.849-4.095 26.746-1.521 9.175-3.088 18.349-4.892 27.472-2.657 13.445-5.538 26.843-8.32 40.262-.139.679-.233 1.367-.361 2.124a27.879 27.879 0 0 0 5.413.269c1.775.066 3.553.057 5.328.026a32.274 32.274 0 0 0 5.345-.156c.191-.578.387-1.106.545-1.648 1.914-6.542 3.84-13.082 5.734-19.631 5.627-19.443 11.01-38.949 15.329-58.733q2.589-11.861 4.809-23.8 1.938-10.361 3.128-20.855a7.868 7.868 0 0 1 .316-1.448.886.886 0 0 1 .936-.7 1.012 1.012 0 0 1 .674 1.37 6.819 6.819 0 0 0 .542 4.548c.148.4.274.806.4 1.212a339.624 339.624 0 0 1 8.935 34.856q2.433 11.79 4.548 23.639c1.179 6.57 2.164 13.174 3.185 19.77.7 4.491 1.33 8.994 1.952 13.495.641 4.644 1.242 9.291 1.848 13.942.483 3.73.938 7.469 1.426 11.2.082.615.273 1.219.41 1.82zM755.4 312.881c.561-.252.962-.165 1.2.269a5.016 5.016 0 0 1 .354.992c1.026 3.329 1.716 6.74 2.464 10.137q5.651 25.7 11.29 51.4 4.852 22.059 9.725 44.112 2.5 11.341 5.026 22.675a11.128 11.128 0 0 0 .382 1.139 4.331 4.331 0 0 0 .722.123c5.189-.023 10.371-.217 15.534-.752a4.826 4.826 0 0 0 .969-.316c-.068-.533-.1-.952-.177-1.37-.625-3.5-1.261-6.988-1.884-10.486q-2.659-15-5.314-30.009-3.084-17.307-6.2-34.609-2.878-16.154-5.719-32.312-2.925-16.469-5.875-32.937a6.33 6.33 0 0 0-.677-2.247c-.842-.019-1.617-.052-2.393-.054-3.7-.019-7.393-.021-11.09-.038q-13.329-.057-26.657-.111a11.464 11.464 0 0 0-1.469.184c-.167.629-.323 1.174-.455 1.723-1.221 5.111-2.409 10.232-3.661 15.336-4.548 18.558-9.069 37.126-12.278 55.973-1.228 7.209-2.2 14.466-3.206 21.713-.568 4.078-1.023 8.176-1.448 12.276-.573 5.58-1.092 11.17-1.591 16.76-.226 2.546-.389 5.1-.516 7.655-.156 3.121-.25 6.247-.349 9.371a7.122 7.122 0 0 0 .16 1.2c1.959.314 14.138 1.115 16.027 1.047a11.133 11.133 0 0 0 1.132-.137c.137-.255.248-.372.257-.5.116-1.417.243-2.831.316-4.251.172-3.407.245-6.818.5-10.218.255-3.541.592-7.082 1.033-10.6.745-5.917 1.589-11.825 2.414-17.736.844-6.052 1.872-12.075 3.263-18.026 2.023-8.645 4.076-17.283 6.24-25.893 2.41-9.574 4.993-19.1 8.023-28.5 1.176-3.645 2.449-7.261 3.81-11.276.012-.264-.497-.967.118-1.707zm27.748-16.248a5.73 5.73 0 0 0 0-.75c-.241-1.9-.462-3.81-.75-5.705-.632-4.142-1.325-8.275-1.947-12.419-.766-5.128-1.464-10.267-2.23-15.395-1.2-8.006-2.442-16.005-3.654-24.011-.978-6.464-2.117-12.9-3.475-19.289a94.2 94.2 0 0 0-3.426-12.528 31.18 31.18 0 0 0-5.054-8.841 18.533 18.533 0 0 0-3.708-3.5 12.882 12.882 0 0 0-5.925-2.247c-.443.622-.846 1.2-1.259 1.768a27.951 27.951 0 0 1-4.211 4.8 7.07 7.07 0 0 1-5.425 2.023 3.971 3.971 0 0 1-3.822-3.112c-.111-.387-.01-.87-.5-1.066a.566.566 0 0 0-.21.024 6.54 6.54 0 0 0-.7.476 47.156 47.156 0 0 0-7.506 7.839A79.335 79.335 0 0 0 721 218.547c-.927 1.995-2.013 3.916-3.029 5.87l-7.65 14.753c-.318.618-.552 1.283-.844 1.978 5.578 5.26 11.705 9.315 19.174 11.3.985-1.841 1.862-3.588 1.577-5.7a20.99 20.99 0 0 1-.042-2.346c-.068-3.48-.127-6.964-.214-10.444-.113-4.618-.255-9.234-.365-13.853a9.628 9.628 0 0 1 .184-1.679c.016-.108.184-.193.4-.4l1.063.405c.064 1.782.13 3.48.182 5.182.049 1.634.071 3.268.12 4.9.05 1.7.132 3.407.177 5.111s.061 3.411.1 5.118.073 3.411.13 5.113c.054 1.634.153 3.268.2 4.9.05 1.707-.007 3.416.1 5.118a30.32 30.32 0 0 0 .252 5.019 17.009 17.009 0 0 0 5.951-.2c1.634-3.053 2.431-6.528 3.895-9.838l-2.582-1.386a3.47 3.47 0 0 1-.113-2.438q1.553-7.182 3.1-14.367 2.465-11.454 4.925-22.908a1.865 1.865 0 0 1 .29-.783 1.14 1.14 0 0 1 .686-.4.71.71 0 0 1 .752.613 2.235 2.235 0 0 1 .061.837c-.118.771-.264 1.539-.429 2.3q-1.393 6.457-2.8 12.91-2.263 10.407-4.517 20.819c-.149.684-.233 1.382-.354 2.11a6.946 6.946 0 0 0 .773.46c1.172.5 2.35 1 3.531 1.488 5.578 2.308 11.2 4.5 16.974 6.285a5.108 5.108 0 0 0 2.287.408c.111-.33.219-.587.28-.856.7-3.046 1.457-6.078 2.049-9.145.646-3.345 1.139-6.721 1.688-10.086a2.358 2.358 0 0 1 .7-1.719c1.066.033 1.363.278 1.231 1.143-.222 1.473-.521 2.938-.738 4.413a148.568 148.568 0 0 1-3.206 16.078c-.108.415-.177.839-.323 1.238a1.409 1.409 0 0 1-1.483.981 7.905 7.905 0 0 1-1.462-.271c-1.026-.29-2.035-.634-3.06-.915a7.444 7.444 0 0 0-1.233-.137c-1.488 3.02-2.956 5.932-4.357 8.878a49.486 49.486 0 0 1-4.055 7 8.75 8.75 0 0 1-6.434 4.1c-3.178.328-6.358.634-9.536.948a3.229 3.229 0 0 0-1.841.389 1.832 1.832 0 0 0-.156.391 3.617 3.617 0 0 0-.033.639q.265 9.053.535 18.111a.455.455 0 0 0 .057.2 2.115 2.115 0 0 0 .257.29c10.034.309 20.183.116 30.325.323 6.181.125 12.368.061 18.549.073.108.01.226-.113.45-.235zm-188.93-20.218c-1.379-.141-2.5-.264-3.631-.37a11.074 11.074 0 0 1-7.726-4.024 21.02 21.02 0 0 1-2.721-4.319 95.277 95.277 0 0 1-4.868-12.042c-2.266-6.823-3.621-13.879-5.392-20.829a4.7 4.7 0 0 1 .064-1.294l1.167-.116a12.983 12.983 0 0 1 .62 1.384c.212.677.358 1.377.526 2.065 1.233 5.109 2.3 10.255 3.831 15.293a88.432 88.432 0 0 0 5.778 14.874 26.435 26.435 0 0 0 2.383 3.774 8.915 8.915 0 0 0 6.6 3.473c3.183.276 6.384.358 9.579.462 2.629.087 5.262.12 7.891.123q3.625 0 7.247-.123a13.529 13.529 0 0 0 2.523-.38 4.83 4.83 0 0 0 1.113-.585c.047-.917.085-1.763.144-2.612a2.984 2.984 0 0 1 .17-1.033.927.927 0 0 1 .632-.462.865.865 0 0 1 .712.3 3.931 3.931 0 0 1 .361 1.2c.118.606-.219 1.275.245 1.822a37.848 37.848 0 0 0 8.907-.229 1.875 1.875 0 0 0 .214-.559c.068-2.914.13-5.828.165-8.742a3.65 3.65 0 0 0-.269-.971c-2.433-.21-4.765-.4-7.1-.613-5.663-.509-11.344-.658-17.026-.823-1.778-.052-3.555-.113-5.33-.082a2.047 2.047 0 0 1-2.266-1.516c-.038-.113-.193-.189-.311-.3a1.353 1.353 0 0 1-1.653-.566 6 6 0 0 1-.613-1.117c-.7-1.785-1.5-3.541-2.044-5.375-1.165-3.949-2.216-7.931-3.27-11.913-1.544-5.837-3.169-11.653-4.31-17.59-.318-1.667-.669-3.329-1.018-5.059l.943-.724a1.966 1.966 0 0 1 1.063 1.629c.514 2.431.959 4.88 1.547 7.294 1.106 4.555 2.27 9.1 3.451 13.629q1.591 6.079 3.289 12.129a3.3 3.3 0 0 0 1.113 2.136c.05-.592.125-1.066.13-1.539.092-8.959-.137-17.91-.535-26.859-.17-3.831-.509-7.655-.736-11.484a85.158 85.158 0 0 0-1.752-13.082 6.8 6.8 0 0 0-.681-2.143c-.7-.266-1.608-.127-1.563-1.325.328-.314.724-.7 1.108-1.063a18.856 18.856 0 0 0 .533-6.412 18.444 18.444 0 0 1-6.054-2.716c-.191.148-.363.215-.4.323a33.318 33.318 0 0 0-1.141 3.649 3.736 3.736 0 0 0 1.162 3.692c.519.469 1.176.78 1.74 1.2a7.33 7.33 0 0 1 .792.785.918.918 0 0 1-1.12.884 3.8 3.8 0 0 1-2.075-1.011c-.547-.45-1.042-.957-1.54-1.419a10.021 10.021 0 0 0-5.84 4.064 8.683 8.683 0 0 0-2.039 5.073c.709.146 1.32.295 1.938.4 4.114.679 6.87 4.2 7.5 8.256a3.087 3.087 0 0 1-.288 1.132c-1-.144-1.151-.2-1.3-.629-.342-.931-.622-1.891-1-2.808-1.969-4.783-8.9-5.778-11.9-2.138a20.051 20.051 0 0 1-1.429 1.436c-1.037-.372-1.3-.766-.957-1.346a7.575 7.575 0 0 1 .764-1.021 11.156 11.156 0 0 1 4.531-3.046c.118-.4.238-.733.316-1.077a13.71 13.71 0 0 1 7.881-9.727c.372-.179.714-.415 1.113-.648-.156-.613-.292-1.143-.422-1.66a4.328 4.328 0 0 0-.533.068 5.873 5.873 0 0 0-.8.285 20.719 20.719 0 0 0-8.4 6.7 44.335 44.335 0 0 0-2.64 4.128 101.081 101.081 0 0 0-8.046 19.233 117.423 117.423 0 0 0-3.567 14.909c-.872 5.328-1.888 10.63-2.782 15.953-.856 5.113-1.636 10.241-2.44 15.364a117.747 117.747 0 0 0-1.275 12.5 14.756 14.756 0 0 0 .33 3.593 6.743 6.743 0 0 0 2.617 4.293c.335.047.684.127 1.035.144 4.472.217 8.942.538 13.414.608 4.26.068 8.525-.13 12.787-.2a5.3 5.3 0 0 1 1.476.066 1.191 1.191 0 0 1 .651.712.654.654 0 0 1-.479.83 5.459 5.459 0 0 1-1.455.229c-6.469.017-12.936.033-19.4 0-1.841-.009-3.685-.2-5.531-.285a7.48 7.48 0 0 0-1.167.1c-.323 2.254-.3 2.607.278 4.147 1.7.191 3.468.37 5.227.592a99.063 99.063 0 0 0 13.4.637c3.055-.033 6.111-.085 9.166-.118 1.136-.014 2.277.019 3.414-.014a7.256 7.256 0 0 0 1.276-.269v-6.37c.266-.245.4-.462.582-.514 1.662-.474 2.285-1.822 2.723-3.282a13.549 13.549 0 0 0 .483-2.508c.156-1.554.245-3.117.318-4.675a15.478 15.478 0 0 0-.128-1.816zm-19.945-110.361a3.166 3.166 0 0 0-1.931.964c-.684.509-1.332 1.063-1.992 1.6a11.134 11.134 0 0 1-6.658 2.494 34.993 34.993 0 0 1-9.315-.688 27.053 27.053 0 0 0-10.783-.2 22.736 22.736 0 0 0-7.563 2.747 10.8 10.8 0 0 0-4.689 5.347c-.521 1.316-.938 2.676-1.332 4.036-.472 1.636-.846 3.3-1.308 4.939a13.079 13.079 0 0 1-3 5.335c-.863.941-1.782 1.829-2.664 2.758-1.169 1.235-2.365 2.454-3.482 3.739a19.588 19.588 0 0 0-3.23 5.236 11.265 11.265 0 0 0 .408 10.064 15.671 15.671 0 0 0 5.865 6.332 27.135 27.135 0 0 0 20.442 3.6 20.725 20.725 0 0 0 13.294-9.216 23.292 23.292 0 0 0 3.171-6.943c.53-2.058.91-4.159 1.285-6.252a33.481 33.481 0 0 1 1.627-6.382 14.363 14.363 0 0 1 7.087-7.9c1.455-.733 2.968-1.353 4.461-2.009 1.037-.457 2.11-.849 3.128-1.344a9.433 9.433 0 0 0 5.366-8.129 3.96 3.96 0 0 0-.384-2.263 13.345 13.345 0 0 0-2.219-3.147c-3.438.322-4.678-2.05-5.584-4.718zm68.194 85.562a3.458 3.458 0 0 0-.146.731c-.009 3.758-.007 7.516-.007 11.123 2.016 2.346 4.005 4.567 5.882 6.875a30.173 30.173 0 0 1 4.432 7.919c.6.071 1.087.167 1.579.184q14.156.474 28.309.927a7.854 7.854 0 0 0 .846-.045.542.542 0 0 0 .2-.064 3.27 3.27 0 0 0 .283-.193 52.935 52.935 0 0 1 5.036-7.99c2.03-2.537 3.569-5.488 6.2-7.348.281-3.616.123-10.34-.276-11.828a1.861 1.861 0 0 0-.563-.184q-24.814-.226-49.626-.431c-.566 0-1.132.031-1.7.073-.116.008-.232.126-.448.251zm-10.937 8.973c-.21-.771-.33-1.32-.512-1.853-.568-1.683-1.143-3.362-1.747-5.033-2.556-7.077-5.1-14.166-7.693-21.23-2.011-5.465-4.1-10.9-6.507-16.21a55.2 55.2 0 0 0-15.671-19.924 8.381 8.381 0 0 0-.86-.549l-3.183 2.3c.059.288.116.556.165.825.533 3.077 1.169 6.141 1.563 9.237s.589 6.221.783 9.338c.295 4.68.608 9.359.74 14.046.165 5.825.141 11.653.224 17.483.038 2.551.139 5.1.214 7.752a3.832 3.832 0 0 1 2.009 2.282 8.381 8.381 0 0 0 3.454-.139c.453-1.4.865-2.751 1.327-4.083.7-2.013 1.469-4 2.148-6.019a41.731 41.731 0 0 0 2.185-13.4 61.026 61.026 0 0 0-.99-10.378c-.219-1.259-.427-2.518-.613-3.781a1.738 1.738 0 0 1 .132-.589c.641-.354.641-.354 1.433 0 1.933 8.464 2.666 17.019.481 25.721.674 1.45 1.377 2.921 2.044 4.409.637 1.426 1.183 2.9 1.87 4.3a30.618 30.618 0 0 0 2.053 4.42c4.585.391 9.109.78 13.636 1.155a10.913 10.913 0 0 0 1.316-.08zm106.584-74.182c.54 2.32 1.818 4.418 2.4 6.717-.172.6-.363 1.134-.472 1.69a5.755 5.755 0 0 0-.13 1.473 2.407 2.407 0 0 0 2.6 2.508 3.651 3.651 0 0 0 1.445-.259 9.8 9.8 0 0 0 1.862-1.007 21.011 21.011 0 0 0 5.073-6.16c-.245-.528-.516-1.033-.712-1.561q-2.833-7.688-5.639-15.385a5.9 5.9 0 0 1-.356-1.219 1.169 1.169 0 0 1 1.054-1.448c.5.153 1.11.339 1.674.509a6.294 6.294 0 0 0 3.652-3.1 5.567 5.567 0 0 0 .175-4.145c-.455-1.671-1.318-2.822-3.235-2.808a3.917 3.917 0 0 0-2.978 2.994 4.73 4.73 0 0 1-.264.8.907.907 0 0 1-1.573.1 4.449 4.449 0 0 1-.408-.743 8.123 8.123 0 0 1-.667-3.1 19.637 19.637 0 0 1 .856-6.559 20.417 20.417 0 0 0-5.408-3.428 8.277 8.277 0 0 0-6.026-.479c-2.174.78-4.383 1.523-5.844 3.593a21.092 21.092 0 0 0-3.793 7.51 25.556 25.556 0 0 0-.58 7.186 16.787 16.787 0 0 0 3.623 9.8 13.048 13.048 0 0 0 2.174 2.294 12 12 0 0 0 2.982 1.61 10.342 10.342 0 0 0 6.042.707c.967-.222 1.931-.457 2.9-.667a1.282 1.282 0 0 1 1.589.684c-.188 1.112-1.4 1.117-2.015 1.892zm1.358 74.123c-1.389.151-2.584.337-3.786.4-4.043.207-8.089.37-12.134.545-.851.038-1.7.026-2.556.082q-5.951.4-11.9.842a8.68 8.68 0 0 0-1.2.288c.113 4.267-.191 8.487.224 12.827.816 0 1.513.019 2.211 0 3.411-.1 6.818-.283 10.227-.3a202.646 202.646 0 0 0 22.75-1.332 8.035 8.035 0 0 0 6.353-3.758c.67-1.092 1.445-2.124 2.03-3.256 1.881-3.664 3.7-7.36 5.528-11.052a5.035 5.035 0 0 0 .259-1.047c-2.2-1.085-4.451-1.733-6.62-2.577a63.726 63.726 0 0 0-6.728-2.574c-1.861 3.549-2.46 7.524-4.657 10.912zm14.961-104.7c-.1-.745-.2-1.44-.288-2.138a8.955 8.955 0 0 0-1.429-3.751 9.306 9.306 0 0 0-2.9-2.787 66.076 66.076 0 0 1-8.72-6.825 26.843 26.843 0 0 1-5.149-6.217q-1.719-2.942-3.435-5.889a5.116 5.116 0 0 0-1.749-2.1 1.41 1.41 0 0 0-1.6-.113c-.936 1.026-.156 2.358-.613 3.525l-.634.349c-.912-.141-1.153-.889-1.6-1.415s-.766-1.219-1.711-1.257c-1.565 1.36-.766 3.279-1.019 4.989a4.913 4.913 0 0 1-.688.474 2.624 2.624 0 0 1-.693.1l-1.464-1.393c-1.346-.087-1.844.766-2.082 1.78a8.2 8.2 0 0 0 .073 3.8 28.617 28.617 0 0 0 3.522 7.959 20.661 20.661 0 0 0 4.623 5.26 11.042 11.042 0 0 0 1.169.761 11.629 11.629 0 0 1 10.005-.231 22.1 22.1 0 0 1 5.217 3.275 2.666 2.666 0 0 1 1.278 1.976 10.314 10.314 0 0 0-1.016 6.445 26.435 26.435 0 0 1 2.2-1.476 4.518 4.518 0 0 1 6.052 1.844 8.824 8.824 0 0 1 1.007 4.1 7.411 7.411 0 0 1-5.314 7.15c-.321.087-.731 0-.934.655.575 1.561 1.209 3.286 1.846 5.012.1.271.224.521.71.408a43.179 43.179 0 0 1 5.6-8.152c1.023-1.271 1.914-2.645 2.846-3.987a9.736 9.736 0 0 0 1.582-5.017 6.76 6.76 0 0 0-3.555-6.545c-.344-.221-.738-.372-1.136-.572zm-160.822 10.01a1.874 1.874 0 0 1-.806-1.53 4.473 4.473 0 0 0-2.259-3.194 2.015 2.015 0 0 0-3 .467 6.278 6.278 0 0 0-.934 6.792 14.5 14.5 0 0 0 1.047 1.851 4.032 4.032 0 0 0 3.631 2.216c.118 0 .238.137.462.269 0 .269.134.783-.021.9-1.089.8-1.191 2.051-1.551 3.173-.587 1.825-1.134 3.661-1.693 5.493-.205.67-.4 1.344-.549 1.844a3.548 3.548 0 0 0 1.82 2.247 12.957 12.957 0 0 0 5.889 1.671 4 4 0 0 0 2.348-.471c.832-1.605.3-3.555 1.726-4.857.575-.031 1.143-.045 1.7-.1a12.426 12.426 0 0 0 10.84-7.462 19.182 19.182 0 0 0 1.445-4.668 31.65 31.65 0 0 0-.288-11.858 4.37 4.37 0 0 0-.839-2.52 71.449 71.449 0 0 0-8.141.644c-2.8.252-5.623.387-8.341.87a6.025 6.025 0 0 0-.273 2.454 15.726 15.726 0 0 1-.792 4.6c-.217.605-.486 1.208-1.42 1.166zm58.557 306a4.139 4.139 0 0 0-.208-.905 26.757 26.757 0 0 0-5.6-7.952c-1.056-.943-2.157-1.846-3.282-2.706a36.6 36.6 0 0 0-12.851-5.953 54.9 54.9 0 0 0-5.932-1.311c-.259.2-.438.316-.589.46a10.773 10.773 0 0 1-7.287 3.039c-.566.017-1.129.12-1.695.165-.615.052-1.235.083-1.9.125a8.164 8.164 0 0 0-.109.919q.007 6.6.04 13.2a4.128 4.128 0 0 0 .266.985c.582.038 1.073.094 1.565.1 5.179.061 10.357.132 15.536.17q9.686.071 19.374.087a4.335 4.335 0 0 0 2.673-.423zM722 470.775a4.9 4.9 0 0 0 .266-.978q.368-5.1.688-10.2a3.764 3.764 0 0 0-.146-.835c-1.405-.222-2.74-.375-4.048-.648-3.19-.667-6.462-1.148-8.885-3.614a52.451 52.451 0 0 0-7.726 1.9 45.008 45.008 0 0 0-5.1 2.134 18.809 18.809 0 0 0-9.852 11.743c-.1.325-.269.662.04.964 1.945.243 32.921-.16 34.763-.466zm-154.746 1.3a10.112 10.112 0 0 0-.648-1.405 20.416 20.416 0 0 0-5.444-5.326 60.7 60.7 0 0 0-15.689-7.464 8.266 8.266 0 0 0-1.511-.245c-5.205 2.93-7.28 3.475-12.29 3.251a16.56 16.56 0 0 0-1.016 3.612c-.358 1.3-.71 2.6-.971 3.921a14.21 14.21 0 0 0-.729 3.645c2.013.278 30.226.405 37.126.179a11.613 11.613 0 0 0 1.173-.167zm72.786-222.582c.858.024 1.634.059 2.407.064q22.487.113 44.975.224c2.343.012 4.687.1 7.03.123a5.33 5.33 0 0 0 2.447-.2 15.157 15.157 0 0 0-.033-6.033c-.382-.038-.792-.113-1.207-.12-7.245-.127-14.487-.266-21.732-.363-6.323-.08-12.646-.111-18.969-.165-.356 0-.712-.014-1.066-.024-4.189-.08-8.379-.167-12.568-.229a5.662 5.662 0 0 0-1.214.245c-.115 1.936-.231 3.774-.325 5.613a3.651 3.651 0 0 0 .257.866zm152.3 208.918a7.627 7.627 0 0 0-.9.144 48.17 48.17 0 0 0-16.281 8.089 19.072 19.072 0 0 0-4.251 4.727 4.018 4.018 0 0 0-.311.967 4.49 4.49 0 0 0 .752.13c3.121-.087 6.243-.158 9.362-.281 4.607-.182 9.211-.405 13.817-.6 3.9-.16 7.8-.295 11.7-.464.606-.026 1.285.108 1.813-.457-.264-1.664-.46-3.359-.813-5.019-.347-1.631-.351-3.355-1.056-4.84a1.615 1.615 0 0 0-.33-.083 3.967 3.967 0 0 0-.627.08 19.377 19.377 0 0 1-8.013.351 7.4 7.4 0 0 1-3.982-1.851c-.306-.284-.587-.593-.882-.892zm-86.495-195.418c-.1-.042-.172-.1-.236-.092a28.132 28.132 0 0 0-7.485 1.469 8.533 8.533 0 0 0-4.474 3.442 34.042 34.042 0 0 1-2.075 2.7 54.38 54.38 0 0 0-5.606 8.539 7.582 7.582 0 0 0-.684 1.556 1.83 1.83 0 0 0 .568 2.136 6 6 0 0 0 1.429-1.846q2.426-3.374 4.842-6.752c.354-.493.776-.842 1.438-.571a1 1 0 0 1 .153 1.356c-.37.6-.832 1.148-1.238 1.73q-2.132 3.059-4.246 6.132a.9.9 0 0 0-.172 1.07 3.536 3.536 0 0 0 1.971.266 2.71 2.71 0 0 0 2.013-.611c.95-1.8 2-3.812 3.07-5.816a20.633 20.633 0 0 1 1.077-1.834.831.831 0 0 1 1.1-.38c.264.149.417.5.637.778-.339.644-.639 1.2-.934 1.768-.625 1.2-1.254 2.388-1.867 3.593-.115.229-.273.509.156.75a13.752 13.752 0 0 0 5.507-4.467 18.673 18.673 0 0 0 1.766-2.662 3.336 3.336 0 0 1 3.138-2.129c.109 0 .214-.156.394-.295 0-3.06.007-6.177-.009-9.3a1.525 1.525 0 0 0-.233-.53zm-110.2-111.851a17.3 17.3 0 0 0-2.4-7.03 7.13 7.13 0 0 0-11.227-.587 15.036 15.036 0 0 0-2.252 3.6 26.824 26.824 0 0 0-1.917 9.543 2.249 2.249 0 0 0 .229.655c1.624-.1 2.886-1.125 4.336-1.622 1.41-.481 2.77-1.094 4.17-1.608 1.464-.538 2.942-1.04 4.427-1.523s2.964-.918 4.631-1.428zm127.118 101.379c-1.839-1.009-3.737-1.952-5.536-3.058s-3.506-2.379-5.283-3.6a3.932 3.932 0 0 0-1.068 1.865c-1.443 3.395-2.864 6.8-4.3 10.2a3.191 3.191 0 0 1-1.209 1.749c-1.158.167-2.565.321-3.949.594-1.44.281-2.954.085-4.324.573-.141.66-.29 1.214.328 1.74.754-.193 1.565-.422 2.383-.608a92.361 92.361 0 0 1 14.35-1.721c1.973-.134 3.954-.2 5.849-.5a40 40 0 0 0 2.759-7.234zm-72.485 27.27c.137-.033.276-.061.415-.094a3.84 3.84 0 0 0-.016-1.016 12.158 12.158 0 0 0-.721-2 38.519 38.519 0 0 0-9.9-12.4 7.672 7.672 0 0 0-1.41-.952 4.957 4.957 0 0 0-1.589-.575 11.063 11.063 0 0 0-4.26.144c-.528 1.464-.269 2.966-.283 4.437a22.253 22.253 0 0 0 .021 4.637 44.444 44.444 0 0 0 6.889 6.094 18.139 18.139 0 0 0 2 1.216 3.241 3.241 0 0 0 .978.118c-.457-.684-.759-1.148-1.077-1.6-.735-1.042-1.488-2.075-2.218-3.119-.071-.1-.045-.271-.064-.41.391-.566.391-.566 1.282-.691 2.03 2.332 3.72 5.064 5.87 7.454a3.21 3.21 0 0 0 2.183-.123 3.5 3.5 0 0 0-1.021-1.957c-1.389-1.8-2.822-3.567-4.232-5.349a7.705 7.705 0 0 1-.863-1.2.967.967 0 0 1 .061-.787.671.671 0 0 1 .929-.252 4.106 4.106 0 0 1 1.122.938c1.69 2.105 3.343 4.239 5.012 6.361.293.376.595.748.892 1.126zm142.209 165.694c.717 4.357 1.389 8.464 2.051 12.509a6.026 6.026 0 0 0 2.9 1.391 18.516 18.516 0 0 0 7.374-.365 5.994 5.994 0 0 0 1.12-.622c-.745-4.192-1.471-8.3-2.212-12.4a6.882 6.882 0 0 0-.285-.905c-.238-.106-.368-.217-.49-.212q-4.237.216-8.473.453c-.559.029-1.113.083-1.985.151zm-80.531 8.294c1.8 1.433 4.541 2.27 9.6 2.947a1.61 1.61 0 0 0 1.716-.479c.295-3.838.608-7.853.9-11.865a3.74 3.74 0 0 0-.158-.875 7.484 7.484 0 0 0-1.04-.226c-2.115-.158-4.234-.309-6.351-.431-1.271-.076-2.546-.1-3.817-.125a2.6 2.6 0 0 0-.729.186 49.8 49.8 0 0 0-.121 10.868zm-167.637-10.333a35.649 35.649 0 0 0-8.706.085c-.125.377-.29.771-.387 1.183q-1.5 6.521-2.975 13.049a4.486 4.486 0 0 0-.01.974c2.817.905 6.834-.085 10.133-2.492.804-4.133 1.504-8.381 1.945-12.799zm69.288-294.989a6.592 6.592 0 0 0-.875-3.334c-1.86-4.024-4.828-6.613-9.411-6.964a38.142 38.142 0 0 0-11.83 1.018 3.655 3.655 0 0 0-.863.53 5.665 5.665 0 0 0 .684.429 8.3 8.3 0 0 1 4.128 4.128 16.959 16.959 0 0 1 1.542 4.18c.158.681.354 1.353.552 2.11 1.874-.085 3.557-.674 5.295-.9 1.825-.236 3.64-.6 5.469-.811 1.742-.19 3.502-.259 5.309-.386zm-.889 306.286a17.939 17.939 0 0 0 5.849-.372 9.658 9.658 0 0 0 3.034-1.481 3.51 3.51 0 0 0 1.6-3.062c-.052-2.336-.1-4.673-.163-7.009 0-.118-.134-.233-.34-.563-3.366.13-6.867-.417-10.375.127-.094.264-.243.462-.229.651.258 3.809.169 7.638.624 11.709zm9.725-301.616a5.632 5.632 0 0 0-.566-.512 4.464 4.464 0 0 0-.568-.292 24.19 24.19 0 0 0-9.084-1.858 36.777 36.777 0 0 0-5.929.448 90.131 90.131 0 0 0-18.712 4.758 2.205 2.205 0 0 0-1.259.71c.115.064.226.182.325.172q16.416-1.492 32.829-3.011c.908-.082 1.808-.25 2.964-.415zm-28.6 8.209a6.528 6.528 0 0 0 .04-3.463 44.069 44.069 0 0 0-7.238.538c-2.431.238-4.927.156-7.377.891a14.711 14.711 0 0 0-.085 1.761 21.016 21.016 0 0 0 4.574 11.913 13.643 13.643 0 0 0 3.275 3.013 13.506 13.506 0 0 0 1.332.632c.106-.974.648-1.679.523-2.68a10.581 10.581 0 0 1-3.564-4.038 8.487 8.487 0 0 1-.462-7.379 6.6 6.6 0 0 1 1.764-2.626 3.5 3.5 0 0 1 4.649-.476 20.062 20.062 0 0 1 1.686 1.29c.216.16.44.306.886.624zm2.36 115.347c-.134 2.025-.288 3.935-.384 5.849a13.12 13.12 0 0 1-1.221 5.147c-.144.295-.41.613-.007 1.009 1.433-.111 2.914-.2 4.39-.349a24.041 24.041 0 0 0 2.525-.4 6.577 6.577 0 0 0 1.1-.422 42.538 42.538 0 0 0 .248-10.673 17.184 17.184 0 0 0-6.648-.161zm-4.103 14.106a14.543 14.543 0 0 0 .111 4.849c2.959.264 5.811-.4 8.688-.523a5.238 5.238 0 0 0 1.209-.358 13.332 13.332 0 0 0-.335-4.93c-1.62.184-3.157.335-4.687.533a41.669 41.669 0 0 0-4.986.429zm17.868-41.339a64.5 64.5 0 0 0-3.242 8.612 4.872 4.872 0 0 0-.012.981 22.569 22.569 0 0 0 7.587.08c-1.432-3.162-2.639-6.38-4.337-9.674zm112.414 10.071a32.42 32.42 0 0 0 8.077-.49 15.907 15.907 0 0 0-.1-4.845 7.435 7.435 0 0 1-4.442-.639 1.28 1.28 0 0 0-1.386.052c-.606 1.549-1.278 3.253-1.936 4.965a7.6 7.6 0 0 0-.216.957zm-126.575-69.564c-.691 1.8-.547 3.654-.787 5.444-.012.08.17.184.29.309a1.719 1.719 0 0 0 1.443-1.327c.29-1.37.5-2.758.721-4.14.016-.094-.144-.215-.285-.408-.415.037-.882.079-1.382.122zM579 168.758c-.474-1.738-.889-3.3-1.325-4.852a2.084 2.084 0 0 0-.318-.512c-1.308 1.108-1.443 1.573-.971 3.006.554 1.672 1.131 2.223 2.614 2.358zm55.6 108.128a10.277 10.277 0 0 0-2.3-2.4c-1.068.144-2.075.276-3.35.446 1.692 1.652 3.616 1.568 5.65 1.954z" class="cls-2" transform="translate(-513.498 -123.901)"/>
                </g>
            </g>
            <path id="Trazado_16439" fill="#aa263c" d="M6.674 0h39.271c1.843 0 3.337.343 3.337 2l8.337 10a3.182 3.182 0 0 1-3.337 3H.337A3.182 3.182 0 0 1-3 12l6.337-9a3.182 3.182 0 0 1 3.337-3z" transform="translate(128.051 108.208)"/>
            <path id="Trazado_16437" d="M4.817 0h44.6a4.926 4.926 0 0 1 4.848 5l-.97 21a4.926 4.926 0 0 1-4.848 5H4.817A4.926 4.926 0 0 1-.03 26L-1 5c0-2.761 3.14-5 5.817-5z" class="cls-9" transform="translate(128.348 125.208)"/>
            <path id="Trazado_16438" d="M5 0h54a5 5 0 0 1 5 5v1a5 5 0 0 1-5 5H5a5 5 0 0 1-5-5V5a5 5 0 0 1 5-5z" class="cls-14" transform="translate(122.61 117.208)"/>
            <path id="Rectngulo_1655" d="M0 0H12V29H0z" class="cls-17" transform="translate(149.61 127.208)"/>
            <ellipse id="Elipse_26" cx="5" cy="4.5" class="cls-17" rx="5" ry="4.5" transform="translate(150.61 102.208)"/>
            <path id="Trazado_16440" d="M5.494 0c3.035 0 12.059 4.419 12.059 9.113S8.529 17 5.494 17-.483 13.178-.483 8.483 2.46 0 5.494 0z" class="cls-17" transform="rotate(-2 2878.908 -3872.898)"/>
            <path id="Trazado_16441" d="M5.977 17c3.034 0 12.059-4.419 12.059-9.113S9.012 0 5.977 0 0 3.822 0 8.517 2.943 17 5.977 17z" class="cls-17" transform="scale(-1) rotate(2 3209.027 -5023.568)"/>
            <path id="Trazado_16436" d="M540.066 533.252l1.413-24.407a2.814 2.814 0 0 0-.015-.466h.756a2.8 2.8 0 0 0 2.8-2.8v-6.93a2.8 2.8 0 0 0-1.393-2.415L536.2 488.4a5.526 5.526 0 0 0-2.811-1.458c.083-.967.1-1.878.1-2.636 0-2.566 0-7.905-6.732-7.905-3.048 0-6.931 1.905-9.548 3.688-.313.213-.7.491-1.131.818a7.065 7.065 0 0 0-4.263 0c-.427-.327-.817-.605-1.131-.818-2.617-1.783-6.5-3.688-9.548-3.688-6.732 0-6.732 5.339-6.732 7.905 0 .738.018 1.62.1 2.559h-1.174a5.452 5.452 0 0 0-3.566 1.534l-7.423 7.84a2.8 2.8 0 0 0-1.393 2.415v6.93a2.787 2.787 0 0 0 1.134 2.236c.068.051.138.1.21.143a2.77 2.77 0 0 0 1.452.418h.756a2.749 2.749 0 0 0-.014.466l1.412 24.407a2.8 2.8 0 0 0 .178.792c.025.068.045.137.075.2a2.93 2.93 0 0 0 2.634 1.73h48.4a2.93 2.93 0 0 0 2.881-2.724zm-2.393-.139a.521.521 0 0 1-.494.466h-21.631v-25.2h23.229a.3.3 0 0 1 .309.327zm4.559-34.859l.387.41v6.919a.4.4 0 0 1-.4.4h-26.671v-7.729h26.685zm-9.194-8.942a3.194 3.194 0 0 1 1.422.732l5.5 5.812h-24.412v-3.592a20.262 20.262 0 0 0 1.931.919 26.835 26.835 0 0 0 9.386 2.057 6.518 6.518 0 0 0 1.115-.094 5.821 5.821 0 0 0 4.488-3.962c.027-.068.057-.131.084-.2a12.271 12.271 0 0 0 .487-1.672zM531.1 484.3c0 8.186-2.924 8.525-4.088 8.539h-.142a24.645 24.645 0 0 1-8.467-1.873l-.173-.074a5.847 5.847 0 0 0 2.007-2.99l4.726-.605a1.2 1.2 0 1 0-.3-2.377l-4.321.553a5.758 5.758 0 0 0-1.942-3.293l.171-.118a24.361 24.361 0 0 1 3.163-1.823 12.724 12.724 0 0 1 5.036-1.449c3.7.005 4.33 1.704 4.33 5.51zm-17.145-1.331a4.145 4.145 0 0 1 3.758 2.137l.019.046a3.054 3.054 0 0 1 .3 1.317v.088a1.166 1.166 0 0 0-.029.341 3.818 3.818 0 0 1-3.482 3.026 4.709 4.709 0 0 1-.566.045 3.92 3.92 0 0 1-4.055-3.069 1.173 1.173 0 0 0-.029-.343v-.087a3.286 3.286 0 0 1 1.305-2.559 4.444 4.444 0 0 1 2.774-.939zm-4.611-.9l.171.118a5.759 5.759 0 0 0-1.942 3.293l-1.86-.238-2.461-.315a1.2 1.2 0 1 0-.3 2.377l2.462.316 2.264.29a5.846 5.846 0 0 0 2.007 2.99l-.173.074c-.672.279-1.388.535-2.12.762a23.025 23.025 0 0 1-6.347 1.11c-1.046 0-4.23 0-4.23-8.54 0-2.184.21-3.671 1.084-4.545a4.381 4.381 0 0 1 3.251-.963c2.05-.003 5.271 1.281 8.189 3.269zm3.013 51.512h-23.573a.521.521 0 0 1-.494-.466l-1.274-22-.139-2.4a.3.3 0 0 1 .309-.328h25.166zm0-27.6h-28.614a.4.4 0 0 1-.4-.4v-6.919l.388-.41h28.621zm0-10.126H486l5.389-5.692.113-.12a3.132 3.132 0 0 1 1.826-.785h1.52a12.333 12.333 0 0 0 .5 1.724c1.32 3.519 3.822 4.258 5.687 4.258a26.153 26.153 0 0 0 8.12-1.573c.334-.118.66-.245.982-.374.093-.038.191-.072.284-.11a20.262 20.262 0 0 0 1.931-.919z" transform="translate(-358.247 -379.368)"/>
        </g>
        <g id="Grupo_9" transform="translate(138.494 111.338)">
            <path id="Trazado_21" d="M598 185.066c-.273.519-.535 1.014-.8 1.509-1.063 2.006-2.112 4.024-3.206 6.014-.332.606-.67 1.29-1.575 1.308-.837-.217-1.148-.905-1.426-1.667-.731-2-1.495-3.987-2.259-5.974-.2-.523-.453-1.03-.714-1.62-.453 0-.865-.009-1.278 0-3.124.09-6.245.264-9.367.25a4.277 4.277 0 0 1-4.614-4.079 45.47 45.47 0 0 1-.38-4.668c-.092-2.485-.146-4.972-.139-7.459.01-2.982.092-5.967.17-8.947a14.831 14.831 0 0 1 .224-2.117 5.271 5.271 0 0 1 4.812-4.666 28.041 28.041 0 0 1 3.609-.262c2.77 0 5.54.068 8.306.153 3.48.1 6.959.365 10.437.335 1.777-.014 3.541.083 5.312.174 3.039.153 4.651 1.521 5.356 4.51a35.546 35.546 0 0 1 1.1 8.2c0 2.765.3 5.531.408 8.3.071 1.773.042 3.55.047 5.326a8.012 8.012 0 0 1-.083 1.061 3.862 3.862 0 0 1-3.291 3.664 25.085 25.085 0 0 1-3.8.46c-1.914.092-3.833.061-5.75.094-.347.011-.694.065-1.099.101zm-1.209-1.766c.87-.038 1.5-.08 2.138-.087 1.349-.012 2.7.049 4.05-.019 1.558-.08 3.121-.2 4.666-.415 1.834-.255 2.4-.917 2.6-2.8a10.984 10.984 0 0 0 .071-1.278c-.007-1.278 0-2.558-.059-3.833-.151-3.265-.42-6.526-.467-9.791a37.565 37.565 0 0 0-1.282-7.542 2.76 2.76 0 0 0-2.169-2.136 14.178 14.178 0 0 0-2.735-.337c-2.841-.1-5.689-.054-8.523-.226-5.255-.318-10.507-.431-15.767-.236a9.938 9.938 0 0 0-2.1.276 3.5 3.5 0 0 0-2.841 3.3c-.125 1.337-.245 2.681-.288 4.024-.179 5.757-.05 11.512.29 17.262a7.227 7.227 0 0 0 .134 1.056 2.952 2.952 0 0 0 3.081 2.673 8.038 8.038 0 0 0 1.066.014q3.19-.141 6.384-.3a15.881 15.881 0 0 1 4.35.068c1.028 2.586 2.068 5.2 3.23 8.131a23.542 23.542 0 0 0 2.23-3.88c.655-1.255 1.25-2.536 1.938-3.924z" class="cls-2" transform="translate(-572.243 -152.692)"/>
            <path id="Trazado_22" d="M595.775 182.257c-.684 1.389-1.282 2.669-1.94 3.921a23.542 23.542 0 0 1-2.23 3.88c-1.162-2.928-2.2-5.545-3.23-8.131a15.881 15.881 0 0 0-4.35-.068q-3.193.163-6.384.3a8.038 8.038 0 0 1-1.066-.014 2.952 2.952 0 0 1-3.081-2.673 7.227 7.227 0 0 1-.134-1.056c-.339-5.75-.469-11.5-.29-17.262.042-1.344.163-2.688.288-4.024a3.5 3.5 0 0 1 2.841-3.3 9.938 9.938 0 0 1 2.1-.276c5.26-.2 10.512-.083 15.767.236 2.834.172 5.682.127 8.523.226a14.178 14.178 0 0 1 2.735.337 2.76 2.76 0 0 1 2.169 2.136 37.565 37.565 0 0 1 1.282 7.542c.047 3.265.316 6.526.467 9.791.057 1.275.052 2.556.059 3.833a10.984 10.984 0 0 1-.071 1.278c-.2 1.884-.764 2.546-2.6 2.8-1.544.212-3.107.335-4.666.415-1.349.068-2.7.007-4.05.019-.635.01-1.269.052-2.139.09zm-4.027-22.427a15.042 15.042 0 0 0-1.624-1.3 4.008 4.008 0 0 0-4.616.031 6.754 6.754 0 0 0-3.1 5.533c-.12 5.187 3.591 10.446 8.827 12.412a2.686 2.686 0 0 0 .537-.273 32.013 32.013 0 0 0 6.806-8.117 8.14 8.14 0 0 0 1.011-2.558 9 9 0 0 0 .158-2.949c-.445-3.395-3.289-4.96-6.417-3.6-.519.22-1.002.515-1.582.821z" class="cls-1" transform="translate(-571.23 -151.649)"/>
            <path id="Trazado_23" d="M586.329 157.324c.58-.306 1.063-.6 1.577-.823 3.128-1.36 5.972.205 6.417 3.6a9 9 0 0 1-.158 2.949 8.14 8.14 0 0 1-1.011 2.558 32.013 32.013 0 0 1-6.806 8.117 2.686 2.686 0 0 1-.537.273c-5.236-1.966-8.947-7.226-8.827-12.412a6.754 6.754 0 0 1 3.1-5.533 4.008 4.008 0 0 1 4.616-.031 15.042 15.042 0 0 1 1.629 1.302zm-.709 14.577a26.84 26.84 0 0 0 6.507-8.327 1.955 1.955 0 0 0 .2-.6 9.629 9.629 0 0 0 .262-2.3c-.281-2.664-2.306-3.612-4.557-2.171-.592.38-1.089.905-1.655 1.327a.947.947 0 0 1-1.285-.066c-.087-.207-.224-.528-.363-.846a2.453 2.453 0 0 0-4.253-.851 5.238 5.238 0 0 0-1.665 4.807c.62 4.226 3.126 6.985 6.808 9.026z" class="cls-2" transform="translate(-565.811 -149.143)"/>
            <path id="Trazado_24" d="M584.6 170.827c-3.682-2.042-6.189-4.8-6.8-9.027a5.238 5.238 0 0 1 1.665-4.807 2.453 2.453 0 0 1 4.253.851c.139.318.276.639.363.846a.947.947 0 0 0 1.285.066c.566-.422 1.063-.948 1.655-1.327 2.251-1.44 4.277-.493 4.557 2.171a9.629 9.629 0 0 1-.262 2.3 1.955 1.955 0 0 1-.2.6 26.84 26.84 0 0 1-6.516 8.327z" class="cls-14" transform="translate(-564.794 -148.07)"/>
            <path id="Trazado_25" d="M584.913 157.7a2.653 2.653 0 0 0-2.15-.8.909.909 0 0 0-.681.391c-.655.375-.778 1.492.134 1.641l1.808.3a.923.923 0 0 0 .889-1.532z" class="cls-1" transform="translate(-559.593 -146.992)"/>
            <path id="Trazado_26" d="M580.928 157.048c-1.266-.969-2.608.3-2.4 1.657a.919.919 0 0 0 1.125.639 2.423 2.423 0 0 0 .882-.559.982.982 0 0 0 .393-1.737z" class="cls-1" transform="translate(-563.739 -147.241)"/>
        </g>
    </g>
</svg>
