<?xml version="1.0" encoding="UTF-8"?>
<svg width="16px" height="17px" viewBox="0 0 16 17" version="1.1" xmlns="http://www.w3.org/2000/svg" xmlns:xlink="http://www.w3.org/1999/xlink">
    <title>Icon/info-circle</title>
    <g id="Ideal-(Renovado)-Ultima-Version" stroke="none" stroke-width="1" fill="none" fill-rule="evenodd">
        <g id="D-1.0.2" transform="translate(-571.000000, -373.000000)" fill="#006FB9" fill-rule="nonzero">
            <g id="Group-2" transform="translate(510.000000, 177.000000)">
                <g id="Icon/info-circle" transform="translate(61.000000, 196.500000)">
                    <path d="M8,0.25 C3.72009375,0.25 0.25,3.72134375 0.25,8 C0.25,12.2811563 3.72009375,15.75 8,15.75 C12.2799062,15.75 15.75,12.2811563 15.75,8 C15.75,3.72134375 12.2799062,0.25 8,0.25 Z M8,3.6875 C8.724875,3.6875 9.3125,4.275125 9.3125,5 C9.3125,5.724875 8.724875,6.3125 8,6.3125 C7.275125,6.3125 6.6875,5.724875 6.6875,5 C6.6875,4.275125 7.275125,3.6875 8,3.6875 Z M9.75,11.625 C9.75,11.8320938 9.58209375,12 9.375,12 L6.625,12 C6.41790625,12 6.25,11.8320938 6.25,11.625 L6.25,10.875 C6.25,10.6679062 6.41790625,10.5 6.625,10.5 L7,10.5 L7,8.5 L6.625,8.5 C6.41790625,8.5 6.25,8.33209375 6.25,8.125 L6.25,7.375 C6.25,7.16790625 6.41790625,7 6.625,7 L8.625,7 C8.83209375,7 9,7.16790625 9,7.375 L9,10.5 L9.375,10.5 C9.58209375,10.5 9.75,10.6679062 9.75,10.875 L9.75,11.625 Z" id="Mask"></path>
                </g>
            </g>
        </g>
    </g>
</svg>