<?xml version="1.0" encoding="UTF-8"?>
<svg width="151px" height="31.9764706px" viewBox="0 0 151 31.9764706" version="1.1" xmlns="http://www.w3.org/2000/svg" xmlns:xlink="http://www.w3.org/1999/xlink">
    <title>Sprite/LogoCoppel</title>
    <g id="Sprite/LogoCoppel" stroke="none" stroke-width="1" fill="none" fill-rule="evenodd">
        <g id="Group" transform="translate(0.000000, 0.000000)">
            <g id="Logo/Coppel" transform="translate(0.000000, 0.000000)">
                <path d="M149.772105,0 L42.694216,0 C42.0160774,0 41.4663212,0.589886323 41.4663212,1.31736738 L41.4663212,30.6611467 C41.4663212,31.3872654 42.0160774,31.9764706 42.694216,31.9764706 L149.772105,31.9764706 C150.449608,31.9764706 151,31.3872654 151,30.6611467 L151,1.31736738 C151,0.589886323 150.449608,0 149.772105,0" id="FondoAmarillo" fill="#FFE143"></path>
                <path d="M108.320972,10.8859038 C112.261894,10.8859038 115.530583,13.8788348 115.533772,18.2434978 C115.530583,22.6061435 112.261894,25.5990745 108.320972,25.5990745 C106.802387,25.5990745 105.387124,25.1546064 104.216774,24.3598087 L104.216774,24.3598087 L104.216774,31.9764706 L101.107533,31.9764706 L101.107533,18.2434978 C101.107533,13.9077488 104.379411,10.8859038 108.320972,10.8859038 Z M92.7299312,10.8859038 C96.6708539,10.8859038 99.9401806,13.8788348 99.9433696,18.2434978 C99.9401806,22.6061435 96.6708539,25.5990745 92.7299312,25.5990745 C91.2119839,25.5990745 89.7967213,25.1546064 88.6257334,24.3598087 L88.6257334,24.3598087 L88.6257334,31.9764706 L85.5171305,31.9764706 L85.5171305,18.2434978 C85.5171305,13.9077488 88.7890084,10.8859038 92.7299312,10.8859038 Z M140.28639,22.5795158 C141.113607,22.5795158 141.749487,23.251261 141.749487,24.0864037 C141.749487,24.9403741 141.113607,25.6101021 140.28639,25.6101021 C139.468739,25.6101021 138.814364,24.9403741 138.814364,24.0864037 C138.814364,23.251261 139.468739,22.5795158 140.28639,22.5795158 Z M122.99359,10.8857694 C127.076103,10.8857694 129.673196,13.8793727 129.676385,18.2433633 C129.676385,18.5372098 129.661078,18.8263494 129.633653,19.1087648 L129.633653,19.1087648 L119.373477,19.1087648 C119.373477,21.2221735 120.977527,22.7095613 123.374352,22.7095613 C124.88656,22.7095613 126.103469,22.1043855 126.901985,21.1340868 L126.901985,21.1340868 L128.730538,23.0619082 C127.508526,24.8774358 125.192062,25.59894 122.99359,25.59894 C119.34095,25.59894 116.313347,22.606009 116.310795,18.2433633 C116.313347,13.8793727 119.34095,10.8857694 122.99359,10.8857694 Z M133.951256,5.84794907 L133.951256,18.2432961 C133.951256,20.5900337 135.569337,22.5272689 137.927895,22.5743381 L137.927895,22.5743381 L137.927895,25.5982003 C134.043736,25.5349931 130.844566,22.559545 130.842015,18.2432961 L130.842015,18.2432961 L130.842015,5.84794907 L133.951256,5.84794907 Z M77.1494781,10.9066815 C81.0852985,10.9066815 84.3488851,13.8949056 84.3514363,18.252172 C84.3488851,22.6094383 81.0852985,25.5976624 77.1494781,25.5976624 C73.2136577,25.5976624 69.9494333,22.6094383 69.9462444,18.252172 C69.9494333,13.8949056 73.2136577,10.9066815 77.1494781,10.9066815 Z M61.8112589,5.62712711 C64.7310751,5.62712711 67.346664,6.97465209 69.1127127,9.10150912 L69.1127127,9.10150912 L66.8587524,11.1853314 C65.6686307,9.71206435 63.9000308,8.77740381 61.9203215,8.77740381 C58.3403895,8.77740381 55.4377938,11.838249 55.4377938,15.6118568 C55.4377938,19.3868095 58.3403895,22.4476547 61.9203215,22.4476547 C63.921078,22.4476547 65.7088117,21.4921492 66.8982956,19.9919854 L66.8982956,19.9919854 L69.1484291,22.0791698 C67.3823804,24.2322511 64.7514844,25.5979314 61.8112589,25.5979314 C56.4933411,25.5979314 52.1812229,21.1270264 52.1812229,15.6118568 C52.1812229,10.0980321 56.4933411,5.62712711 61.8112589,5.62712711 Z M140.28639,22.8827761 C139.651786,22.8827761 139.179819,23.4247448 139.179819,24.0864037 C139.179819,24.7561317 139.651786,25.2886865 140.294043,25.2886865 C140.922907,25.2886865 141.384031,24.7561317 141.384031,24.0951451 C141.384031,23.4247448 140.922907,22.8827761 140.28639,22.8827761 Z M140.278098,23.3232097 C140.547247,23.3232097 140.669065,23.3696065 140.774301,23.4334862 C140.852112,23.4980383 140.91334,23.6170562 140.91334,23.7643157 C140.91334,23.9297304 140.791522,24.0588346 140.617404,24.112628 L140.617404,24.1321281 C140.756443,24.1865939 140.834892,24.2968704 140.878262,24.4985957 C140.922907,24.7285626 140.948419,24.8200114 140.983497,24.8764945 L140.625696,24.8764945 C140.582326,24.8200114 140.557452,24.6828382 140.512806,24.5080096 C140.487294,24.3425948 140.399279,24.2686289 140.21687,24.2686289 L140.059973,24.2686289 L140.059973,24.8764945 L139.728959,24.8764945 L139.728959,23.3696065 C139.859706,23.341365 140.042753,23.3232097 140.278098,23.3232097 Z M140.250673,23.5713318 C140.163296,23.5713318 140.103981,23.5807456 140.067627,23.5894871 L140.067627,24.0218516 L140.225799,24.0218516 C140.408846,24.0218516 140.557452,23.9572995 140.557452,23.8012986 C140.557452,23.6641254 140.461145,23.5713318 140.250673,23.5713318 Z M77.1851945,13.9238195 C77.1737143,13.9238195 77.1615962,13.9251644 77.1494781,13.9251644 C77.1367223,13.9251644 77.125242,13.9238195 77.1131239,13.9238195 C74.7086444,13.9238195 73.0516583,15.8792101 73.0516583,18.252172 C73.0516583,20.6251339 74.7086444,22.579852 77.1131239,22.579852 C77.125242,22.579852 77.1367223,22.5785071 77.1494781,22.5785071 C77.1615962,22.5785071 77.1737143,22.579852 77.1851945,22.579852 C79.589674,22.579852 81.2472979,20.6251339 81.2472979,18.252172 C81.2472979,15.8792101 79.589674,13.9238195 77.1851945,13.9238195 Z M108.357326,13.9077488 C108.34457,13.9077488 108.333727,13.9090936 108.320972,13.9090936 L108.302794,13.9084212 L108.302794,13.9084212 L108.284617,13.9077488 C105.876311,13.9077488 104.216774,15.8665014 104.216774,18.2434978 C104.216774,20.6198218 105.876311,22.5772295 108.284617,22.5772295 L108.284617,22.5772295 L108.357326,22.5772295 C110.764356,22.5772295 112.424531,20.6198218 112.424531,18.2434978 C112.424531,15.8665014 110.764356,13.9077488 108.357326,13.9077488 Z M92.7662854,13.9077488 C92.7535295,13.9077488 92.742687,13.9090936 92.7299312,13.9090936 L92.7119135,13.9084212 L92.7119135,13.9084212 L92.6929392,13.9077488 C90.2859085,13.9077488 88.6257334,15.8665014 88.6257334,18.2434978 C88.6257334,20.6198218 90.2859085,22.5772295 92.6929392,22.5772295 L92.6929392,22.5772295 L92.7662854,22.5772295 C95.1739538,22.5772295 96.8334911,20.6198218 96.8334911,18.2434978 C96.8334911,15.8665014 95.1739538,13.9077488 92.7662854,13.9077488 Z M123.187479,13.6951303 C121.038755,13.6951303 119.430879,15.4783819 119.430879,16.7815273 L119.430879,16.7815273 L126.479766,16.7815273 C126.479766,14.8261368 124.600191,13.6951303 123.187479,13.6951303 Z" id="Coppel" fill="#0063AE"></path>
                <path d="M37.8960836,0 L1.22245431,0 C0.546970753,0 0,0.589886323 0,1.31736738 L0,30.6611467 C0,31.3872654 0.546970753,31.9764706 1.22245431,31.9764706 L37.8960836,31.9764706 C38.5709341,31.9764706 39.119171,31.3872654 39.119171,30.6611467 L39.119171,1.31736738 C39.119171,0.589886323 38.5709341,0 37.8960836,0" id="FondoAzul" fill="#0063AE"></path>
                <path d="M12.0449753,21.5948274 C11.1922461,21.5948274 10.4983273,20.8632369 10.4983273,19.9635421 C10.4983273,19.0651922 11.1922461,18.3349466 12.0449753,18.3349466 C12.8977045,18.3349466 13.5916232,19.0651922 13.5916232,19.9635421 C13.5916232,20.8632369 12.8977045,21.5948274 12.0449753,21.5948274 L12.0449753,21.5948274 Z M6.12370539,17.3202683 C6.12370539,16.4205735 6.81634855,15.6896555 7.66971554,15.6896555 C8.52180694,15.6896555 9.21572569,16.4205735 9.21572569,17.3202683 C9.21572569,18.2186183 8.52180694,18.9495363 7.66971554,18.9495363 C6.81634855,18.9495363 6.12370539,18.2186183 6.12370539,17.3202683 L6.12370539,17.3202683 Z M12.0449753,13.0450369 C12.8977045,13.0450369 13.5916232,13.7766273 13.5916232,14.6743049 C13.5916232,15.5733273 12.8977045,16.3062625 12.0449753,16.3062625 C11.1922461,16.3062625 10.4983273,15.5733273 10.4983273,14.6743049 C10.4983273,13.7766273 11.1922461,13.0450369 12.0449753,13.0450369 L12.0449753,13.0450369 Z M35.2115292,15.7293282 L15.3672388,15.7293282 C15.46227,15.3944642 15.5152068,15.0414449 15.5152068,14.6743049 C15.5152068,12.6577244 13.958992,11.0163529 12.0449753,11.0163529 C10.4122253,11.0163529 9.04160821,12.2132563 8.67487725,13.8189896 C8.35598077,13.7161097 8.01986387,13.6609715 7.66971554,13.6609715 C5.75633664,13.6609715 4.19884621,15.3016706 4.19884621,17.3202683 C4.19884621,19.3375213 5.75633664,20.9788928 7.66971554,20.9788928 C8.01986387,20.9788928 8.35598077,20.9224097 8.67487725,20.8215471 C9.04160821,22.4252632 10.4122253,23.622839 12.0449753,23.622839 C13.958992,23.622839 15.5152068,21.9821399 15.5152068,19.9635421 C15.5152068,19.5984193 15.46227,19.2447277 15.3672388,18.9112085 L28.8265838,18.9112085 L28.8265838,23.3007509 L30.437011,23.3007509 L30.437011,21.1059797 L31.9925881,21.1059797 L31.9925881,23.2987337 L33.6023775,23.2987337 L33.6023775,18.9112085 L35.2115292,18.9112085 L35.2115292,15.7293282 Z" id="Llave" fill="#FFE143"></path>
            </g>
        </g>
    </g>
</svg>