<?xml version="1.0" encoding="UTF-8"?>
<svg width="16px" height="16px" viewBox="0 0 16 16" version="1.1" xmlns="http://www.w3.org/2000/svg" xmlns:xlink="http://www.w3.org/1999/xlink">
    <title>Icon/Basic/Blue/question</title>
    <g id="Ideal-(Renovado)-Ultima-Version" stroke="none" stroke-width="1" fill="none" fill-rule="evenodd">
        <g id="D-5.1.B-tooltipactive" transform="translate(-677.000000, -763.000000)" fill="#006CBA">
            <g id="sesion" transform="translate(150.000000, 279.000000)">
                <g id="row-1" transform="translate(26.000000, 472.000000)">
                    <g id="ï™" transform="translate(497.000000, 8.000000)">
                        <path d="M13.3333333,17 L13.3333333,15 C13.3333333,14.8125 13.1875,14.6666667 13,14.6666667 L11,14.6666667 C10.8125,14.6666667 10.6666667,14.8125 10.6666667,15 L10.6666667,17 C10.6666667,17.1875 10.8125,17.3333333 11,17.3333333 L13,17.3333333 C13.1875,17.3333333 13.3333333,17.1875 13.3333333,17 Z M16,10 C16,8.09375 14,6.66666667 12.2083333,6.66666667 C10.5104167,6.66666667 9.23958333,7.39583333 8.34375,8.88541667 C8.25,9.03125 8.29166667,9.21875 8.42708333,9.32291667 L9.80208333,10.3645833 C9.85416667,10.40625 9.92708333,10.4270833 10,10.4270833 C10.09375,10.4270833 10.1979167,10.3854167 10.2604167,10.3020833 C10.75,9.67708333 10.9583333,9.48958333 11.15625,9.34375 C11.3333333,9.21875 11.6770833,9.09375 12.0520833,9.09375 C12.71875,9.09375 13.3333333,9.52083333 13.3333333,9.97916667 C13.3333333,10.5208333 13.0520833,10.7916667 12.4166667,11.0833333 C11.6770833,11.4166667 10.6666667,12.28125 10.6666667,13.2916667 L10.6666667,13.6666667 C10.6666667,13.8541667 10.8125,14 11,14 L13,14 C13.1875,14 13.3333333,13.8541667 13.3333333,13.6666667 C13.3333333,13.4270833 13.6354167,12.9166667 14.125,12.6354167 C14.9166667,12.1875 16,11.5833333 16,10 Z M20,12 C20,16.4166667 16.4166667,20 12,20 C7.58333333,20 4,16.4166667 4,12 C4,7.58333333 7.58333333,4 12,4 C16.4166667,4 20,7.58333333 20,12 Z"></path>
                    </g>
                </g>
            </g>
        </g>
    </g>
</svg>