<?xml version="1.0" encoding="UTF-8"?>
<svg width="26.5px" height="26px" viewBox="0 0 26.5 26" version="1.1" xmlns="http://www.w3.org/2000/svg" xmlns:xlink="http://www.w3.org/1999/xlink">
    <title>Sprite/Steps/6</title>
    <g id="Sprite/Steps/6" stroke="none" stroke-width="1" fill="none" fill-rule="evenodd">
        <circle id="Oval" fill="#FFE100" cx="12" cy="12" r="12"></circle>
        <g id="Group" transform="translate(2.500000, 2.000000)">
            <circle id="Oval" stroke="#212121" stroke-width="0.8" fill="#F7F8FB" cx="12" cy="12" r="11.6"></circle>
            <path d="M12.314,18.176 C13.0286667,18.176 13.6286667,18.056 14.114,17.816 C14.5993333,17.576 14.9886667,17.272 15.282,16.904 C15.5753333,16.536 15.786,16.128 15.914,15.68 C16.042,15.232 16.106,14.8 16.106,14.384 C16.106,13.8613333 16.026,13.376 15.866,12.928 C15.706,12.48 15.4793333,12.0906667 15.186,11.76 C14.8926667,11.4293333 14.53,11.1706667 14.098,10.984 C13.666,10.7973333 13.178,10.704 12.634,10.704 C12.0153333,10.704 11.4686667,10.8213333 10.994,11.056 C10.5193333,11.2906667 10.122,11.6693333 9.802,12.192 L9.77,12.16 C9.78066667,11.7226667 9.82333333,11.2533333 9.898,10.752 C9.97266667,10.2506667 10.1086667,9.784 10.306,9.352 C10.5033333,8.92 10.778,8.56266667 11.13,8.28 C11.482,7.99733333 11.946,7.856 12.522,7.856 C13.066,7.856 13.5033333,8.01066667 13.834,8.32 C14.1646667,8.62933333 14.362,9.04 14.426,9.552 L15.786,9.552 C15.7006667,8.61333333 15.3806667,7.896 14.826,7.4 C14.2713333,6.904 13.5246667,6.656 12.586,6.656 C11.7753333,6.656 11.1033333,6.82666667 10.57,7.168 C10.0366667,7.50933333 9.61,7.96266667 9.29,8.528 C8.97,9.09333333 8.74333333,9.74133333 8.61,10.472 C8.47666667,11.2026667 8.41,11.9573333 8.41,12.736 C8.41,13.3333333 8.45533333,13.952 8.546,14.592 C8.63666667,15.232 8.82066667,15.8186667 9.098,16.352 C9.37533333,16.8853333 9.77,17.3226667 10.282,17.664 C10.794,18.0053333 11.4713333,18.176 12.314,18.176 Z M12.378,16.992 C12.0046667,16.992 11.6713333,16.9253333 11.378,16.792 C11.0846667,16.6586667 10.8393333,16.48 10.642,16.256 C10.4446667,16.032 10.2926667,15.7653333 10.186,15.456 C10.0793333,15.1466667 10.026,14.816 10.026,14.464 C10.026,14.112 10.0766667,13.7786667 10.178,13.464 C10.2793333,13.1493333 10.4313333,12.8773333 10.634,12.648 C10.8366667,12.4186667 11.082,12.2373333 11.37,12.104 C11.658,11.9706667 11.994,11.904 12.378,11.904 C12.762,11.904 13.098,11.9733333 13.386,12.112 C13.674,12.2506667 13.914,12.4346667 14.106,12.664 C14.298,12.8933333 14.4393333,13.1653333 14.53,13.48 C14.6206667,13.7946667 14.666,14.128 14.666,14.48 C14.666,14.8106667 14.6153333,15.128 14.514,15.432 C14.4126667,15.736 14.266,16.0053333 14.074,16.24 C13.882,16.4746667 13.6446667,16.6586667 13.362,16.792 C13.0793333,16.9253333 12.7513333,16.992 12.378,16.992 Z" id="6" fill="#212121" fill-rule="nonzero"></path>
        </g>
    </g>
</svg>