<svg xmlns="http://www.w3.org/2000/svg" width="319" height="32" viewBox="0 0 319 32">
    <g fill="none" fill-rule="evenodd">
        <g>
            <g>
                <g>
                    <path fill="#FFDD30" fill-rule="nonzero" d="M152.535 0H43.165c-.715 0-1.234.584-1.234 1.233V29.21c0 .714.584 1.233 1.233 1.233h109.371c.714 0 1.234-.584 1.234-1.233V1.233c0-.714-.52-1.233-1.234-1.233z" transform="translate(-135.000000, -25.000000) translate(135.000000, 25.000000)"/>
                    <path fill="#0266AE" fill-rule="nonzero" d="M38.815 0H1.233C.52 0 0 .52 0 1.233V29.21c0 .714.584 1.233 1.233 1.233h37.582c.714 0 1.234-.584 1.234-1.233V1.233C40.114.52 39.529 0 38.815 0z" transform="translate(-135.000000, -25.000000) translate(135.000000, 25.000000)"/>
                    <g fill="#0266AE" fill-rule="nonzero">
                        <path d="M25.38 5.128c-4.025 0-7.335 2.856-7.335 7.075s3.31 7.075 7.334 7.075c4.025 0 7.335-2.856 7.335-7.075 0-4.154-3.31-7.075-7.335-7.075zm.064 11.294c-.065 0-.065 0 0 0-2.531 0-4.219-1.882-4.219-4.154 0-2.272 1.688-4.154 4.154-4.154h.13c2.467 0 4.154 1.882 4.154 4.154-.065 2.272-1.752 4.154-4.219 4.154zM14.994 13.89c-1.233 1.428-3.05 2.402-5.063 2.402-3.635 0-6.62-2.986-6.62-6.62 0-3.635 2.985-6.621 6.62-6.621 2.012 0 3.83.908 4.998 2.336l2.272-2.012C15.383 1.298 12.722 0 9.8 0 4.414 0 0 4.284 0 9.606c0 5.323 4.414 9.672 9.801 9.672 2.986 0 5.647-1.298 7.465-3.375l-2.272-2.013z" transform="translate(-135.000000, -25.000000) translate(135.000000, 25.000000) translate(53.095335, 5.322515)"/>
                        <g>
                            <path d="M23.172 4.868c-4.024 0-7.334 2.921-7.334 7.075v12.852h3.18V17.85c1.169.779 2.662 1.168 4.154 1.168 4.025 0 7.335-2.92 7.335-7.075 0-4.154-3.31-7.075-7.335-7.075zm.065 11.294c-.065 0-.065 0 0 0h-.065c-2.466 0-4.154-1.882-4.154-4.154 0-2.272 1.688-4.154 4.154-4.154h.13c2.467 0 4.154 1.882 4.154 4.154-.13 2.272-1.817 4.154-4.219 4.154zM7.335 4.868C3.31 4.868 0 7.79 0 11.943v12.852h3.18V17.85c1.169.779 2.662 1.168 4.155 1.168 4.024 0 7.334-2.92 7.334-7.075 0-4.154-3.375-7.075-7.334-7.075zm0 11.294H7.27c-2.467 0-4.154-1.882-4.154-4.154 0-2.272 1.687-4.154 4.154-4.154h.13c2.466 0 4.154 1.882 4.154 4.154-.065 2.272-1.753 4.154-4.22 4.154zM38.101 4.868c-3.7 0-6.815 2.921-6.815 7.075 0 4.22 3.116 7.075 6.815 7.075 2.207 0 4.609-.714 5.842-2.466l-1.882-1.883c-.844.91-2.077 1.493-3.57 1.493-2.467 0-4.09-1.428-4.09-3.505h10.45c0-.26.066-.52.066-.844 0-4.024-2.661-6.945-6.816-6.945zm-3.634 5.712c0-1.233 1.622-2.986 3.83-2.986 1.427 0 3.374 1.104 3.374 2.986h-7.204zM49.266 11.943V0h-3.18v11.943c0 4.154 3.245 7.01 7.204 7.075v-2.92c-2.402 0-4.024-1.883-4.024-4.155z" transform="translate(-135.000000, -25.000000) translate(135.000000, 25.000000) translate(53.095335, 5.322515) translate(33.947262, 0.259635)"/>
                        </g>
                    </g>
                    <path fill="#FFDD30" d="M35.83 15.124H15.643c.065-.325.13-.65.13-1.039 0-1.947-1.558-3.505-3.505-3.505-1.688 0-3.051 1.168-3.44 2.726-.325-.13-.65-.13-1.039-.13-1.947 0-3.505 1.558-3.505 3.506 0 1.947 1.558 3.505 3.505 3.505.325 0 .714-.065 1.039-.13.389 1.558 1.752 2.726 3.44 2.726 1.947 0 3.505-1.558 3.505-3.505 0-.325-.065-.714-.13-1.039h13.696v4.22h1.622v-2.143h1.558v2.142h1.623V18.24h1.623v-3.115h.065zm-23.562-2.597c.844 0 1.558.714 1.558 1.558 0 .844-.714 1.558-1.558 1.558-.844 0-1.558-.714-1.558-1.558-.065-.844.649-1.558 1.558-1.558zM6.23 16.682c0-.844.714-1.558 1.558-1.558.844 0 1.558.714 1.558 1.558 0 .843-.714 1.557-1.558 1.557-.844 0-1.558-.714-1.558-1.557zm6.037 4.089c-.844 0-1.558-.714-1.558-1.558 0-.844.714-1.558 1.558-1.558.844 0 1.558.714 1.558 1.558 0 .844-.714 1.558-1.558 1.558z" transform="translate(-135.000000, -25.000000) translate(135.000000, 25.000000)"/>
                    <g fill="#0266AE" fill-rule="nonzero">
                        <path d="M2.986 1.428c0 .844-.65 1.493-1.493 1.493C.649 2.92 0 2.27 0 1.428 0 .649.65 0 1.493 0c.844 0 1.493.65 1.493 1.428zm-2.597 0c0 .65.455 1.168 1.104 1.168s1.103-.519 1.103-1.168C2.596.778 2.142.26 1.493.26.843.26.389.844.389 1.428zm.91.779H.973V.779c.13 0 .324-.065.584-.065.26 0 .39.065.52.13.064.065.129.195.129.324 0 .13-.13.26-.325.325.13.065.195.13.26.324.065.195.065.325.13.39h-.39c-.065-.065-.065-.195-.13-.325 0-.13-.13-.26-.324-.26h-.13v.585zm0-.844h.129c.195 0 .325-.065.325-.195s-.13-.194-.325-.194h-.195v.39h.065z" transform="translate(-135.000000, -25.000000) translate(135.000000, 25.000000) translate(141.241379, 21.744422)"/>
                    </g>
                </g>
                <g fill-rule="nonzero">
                    <g>
                        <g fill="#0067AC">
                            <path d="M0 24.86v5.517h5.517C2.467 30.377 0 27.911 0 24.86z" transform="translate(-135.000000, -25.000000) translate(135.000000, 25.000000) translate(158.572008, 1.557809) translate(0.000000, 0.000000) translate(89.119675, 0.000000)"/>
                            <path d="M65.493 0H5.517C2.467 0 0 2.467 0 5.517v19.408c0 3.05 2.467 5.517 5.517 5.517h59.976c3.05 0 5.517-2.466 5.517-5.517V5.452C71.01 2.467 68.544 0 65.493 0z" transform="translate(-135.000000, -25.000000) translate(135.000000, 25.000000) translate(158.572008, 1.557809) translate(0.000000, 0.000000) translate(89.119675, 0.000000)"/>
                        </g>
                        <g fill="#0067AC">
                            <path d="M17.72 19.602L17.72 6.166 12.203 19.602 9.087 19.602 3.57 6.231 3.57 19.602 0 19.602 0 .389 4.933.389 10.71 14.28 16.357.389 21.42.389 21.42 19.602zM28.04 11.943l3.246-.52c.779-.129.974-.518.974-.973 0-.973-.714-1.752-2.272-1.752-1.558 0-2.467.973-2.532 2.142l-3.18-.65c.195-2.076 2.142-4.413 5.712-4.413 4.219 0 5.777 2.401 5.777 5.063v6.62c0 .714.065 1.623.13 2.142h-3.31c-.066-.324-.13-1.103-.13-1.622-.65 1.038-1.948 1.947-3.895 1.947-2.856 0-4.609-1.947-4.609-4.024.13-2.337 1.883-3.635 4.09-3.96zm4.285 2.272v-.584l-2.986.454c-.909.13-1.623.65-1.623 1.688 0 .779.584 1.558 1.753 1.558 1.428-.065 2.856-.78 2.856-3.116zM47.059 9.866c-.39-.065-.78-.13-1.104-.13-1.817 0-3.44.909-3.44 3.765v6.101h-3.57V6.296h3.505v1.947c.844-1.752 2.662-2.077 3.765-2.077.325 0 .584 0 .844.065v3.635zM56.6 11.878L62.053 19.602 57.639 19.602 54.134 14.54 52.641 16.097 52.641 19.602 49.071 19.602 49.071 0 52.641 0 52.641 11.229 57.249 6.296 61.988 6.296z" transform="translate(-135.000000, -25.000000) translate(135.000000, 25.000000) translate(158.572008, 1.557809) translate(0.000000, 0.000000) translate(0.000000, 3.050710)"/>
                            <path d="M74.905 15.773c-.65 2.272-2.791 4.219-6.037 4.219-3.635 0-6.88-2.596-6.88-7.14 0-4.22 3.115-7.01 6.556-7.01 4.089 0 6.555 2.596 6.555 6.88 0 .52-.065 1.039-.065 1.104h-9.541c.065 1.752 1.558 3.05 3.375 3.05 1.688 0 2.597-.844 3.05-2.012l2.987.909zm-3.31-4.35c-.066-1.297-.91-2.595-2.986-2.595-1.883 0-2.921 1.428-2.986 2.596h5.971zM81.85 6.296h2.661v3.18H81.85v5.583c0 1.168.52 1.558 1.558 1.558.454 0 .908-.065 1.103-.13v2.986c-.324.13-.973.324-2.012.324-2.596 0-4.22-1.558-4.22-4.09v-6.23h-2.4v-3.18h.648c1.428 0 2.077-.91 2.077-2.143V2.272h3.246v4.024z" transform="translate(-135.000000, -25.000000) translate(135.000000, 25.000000) translate(158.572008, 1.557809) translate(0.000000, 0.000000) translate(0.000000, 3.050710)"/>
                        </g>
                        <g fill="#FDDC00">
                            <path d="M0 23.302L2.986 6.166h2.337l-.325 1.948c.909-1.234 2.531-2.207 4.479-2.207 3.7 0 5.127 2.856 4.543 6.426-.649 3.635-3.245 6.49-6.88 6.49-1.882 0-3.18-.908-3.635-2.012l-1.168 6.491H0zM8.698 8.05c-2.207 0-3.96 1.817-4.414 4.284-.454 2.531.714 4.349 2.92 4.349 2.208 0 3.96-1.818 4.415-4.35.39-2.466-.714-4.283-2.921-4.283zM15.189 18.499L18.434 0 20.836 0 17.59 18.499zM25.12 11.424l3.44-.454c.779-.13 1.038-.455 1.103-.91.195-1.232-.39-2.206-2.272-2.206-1.687 0-2.79 1.038-3.245 2.466l-2.207-.519c.65-2.336 3.05-3.96 5.712-3.96 3.7 0 4.738 2.078 4.349 4.48l-1.103 6.166c-.195 1.103-.195 1.687-.195 2.012h-2.337c0-.325 0-.779.195-1.688-.714.844-2.142 2.013-4.349 2.013-2.531 0-3.83-1.753-3.44-3.7.39-2.142 2.207-3.376 4.349-3.7zm3.96 1.752l.129-.584-3.83.584c-1.038.13-1.947.714-2.142 1.818-.13.909.455 1.817 1.688 1.817 1.947 0 3.7-.908 4.154-3.635zM36.09 12.333c-.52 2.79.973 4.349 2.985 4.349 2.272 0 3.44-1.558 3.895-2.532l1.947.909c-.909 1.752-3.05 3.83-6.231 3.83-3.57 0-5.712-2.792-5.063-6.556.649-3.83 3.83-6.491 7.334-6.491 3.246 0 4.609 2.012 4.804 3.894l-2.337.909c-.065-1.233-.714-2.596-2.856-2.596-1.947 0-4.024 1.428-4.479 4.284zM57.51 14.994c-1.104 2.142-3.311 3.894-6.232 3.894-3.31 0-5.777-2.401-5.063-6.555.65-3.83 3.96-6.491 7.01-6.491 3.765 0 5.452 2.596 4.803 6.426-.065.324-.13.584-.194.779h-9.282c-.325 2.207.973 3.7 3.05 3.7 2.013 0 3.181-1.104 3.895-2.467l2.012.714zm-1.753-3.96c.26-1.752-.65-3.115-2.791-3.115-2.013 0-3.506 1.558-3.895 3.115h6.686z" transform="translate(-135.000000, -25.000000) translate(135.000000, 25.000000) translate(158.572008, 1.557809) translate(0.000000, 0.000000) translate(95.350913, 3.440162)"/>
                        </g>
                    </g>
                </g>
            </g>
        </g>
    </g>
</svg>
