<?xml version="1.0" encoding="UTF-8"?>
<svg width="26.5px" height="26px" viewBox="0 0 26.5 26" version="1.1" xmlns="http://www.w3.org/2000/svg" xmlns:xlink="http://www.w3.org/1999/xlink">
    <title>Sprite/Steps/3</title>
    <g id="Sprite/Steps/3" stroke="none" stroke-width="1" fill="none" fill-rule="evenodd">
        <circle id="Oval" fill="#FFE100" cx="12" cy="12" r="12"></circle>
        <g id="Group" transform="translate(2.500000, 2.000000)">
            <circle id="Oval" stroke="#212121" stroke-width="0.8" fill="#F7F8FB" cx="12" cy="12" r="11.6"></circle>
            <path d="M12.058,18.176 C12.5913333,18.176 13.0953333,18.104 13.57,17.96 C14.0446667,17.816 14.458,17.6 14.81,17.312 C15.162,17.024 15.442,16.664 15.65,16.232 C15.858,15.8 15.962,15.3013333 15.962,14.736 C15.962,14.0533333 15.794,13.4613333 15.458,12.96 C15.122,12.4586667 14.6073333,12.1333333 13.914,11.984 L13.914,11.952 C14.362,11.7493333 14.7353333,11.4506667 15.034,11.056 C15.3326667,10.6613333 15.482,10.208 15.482,9.696 C15.482,9.17333333 15.394,8.72 15.218,8.336 C15.042,7.952 14.7993333,7.63733333 14.49,7.392 C14.1806667,7.14666667 13.8153333,6.96266667 13.394,6.84 C12.9726667,6.71733333 12.5166667,6.656 12.026,6.656 C11.4606667,6.656 10.962,6.74666667 10.53,6.928 C10.098,7.10933333 9.738,7.36 9.45,7.68 C9.162,8 8.94066667,8.384 8.786,8.832 C8.63133333,9.28 8.54333333,9.776 8.522,10.32 L9.882,10.32 C9.882,9.98933333 9.92466667,9.67466667 10.01,9.376 C10.0953333,9.07733333 10.226,8.816 10.402,8.592 C10.578,8.368 10.802,8.18933333 11.074,8.056 C11.346,7.92266667 11.6633333,7.856 12.026,7.856 C12.602,7.856 13.082,8.008 13.466,8.312 C13.85,8.616 14.042,9.072 14.042,9.68 C14.042,9.97866667 13.9833333,10.2453333 13.866,10.48 C13.7486667,10.7146667 13.5913333,10.9093333 13.394,11.064 C13.1966667,11.2186667 12.9673333,11.336 12.706,11.416 C12.4446667,11.496 12.17,11.536 11.882,11.536 L11.434,11.536 L11.434,11.536 C11.3913333,11.536 11.3433333,11.5306667 11.29,11.52 L11.29,12.672 C11.546,12.64 11.818,12.624 12.106,12.624 C12.4473333,12.624 12.7646667,12.6693333 13.058,12.76 C13.3513333,12.8506667 13.6046667,12.9893333 13.818,13.176 C14.0313333,13.3626667 14.202,13.592 14.33,13.864 C14.458,14.136 14.522,14.448 14.522,14.8 C14.522,15.1413333 14.4553333,15.448 14.322,15.72 C14.1886667,15.992 14.01,16.2213333 13.786,16.408 C13.562,16.5946667 13.3006667,16.7386667 13.002,16.84 C12.7033333,16.9413333 12.3886667,16.992 12.058,16.992 C11.2793333,16.992 10.6873333,16.76 10.282,16.296 C9.87666667,15.832 9.66333333,15.232 9.642,14.496 L8.282,14.496 C8.27133333,15.0826667 8.354,15.6053333 8.53,16.064 C8.706,16.5226667 8.95933333,16.9093333 9.29,17.224 C9.62066667,17.5386667 10.0206667,17.776 10.49,17.936 C10.9593333,18.096 11.482,18.176 12.058,18.176 Z" id="3" fill="#212121" fill-rule="nonzero"></path>
        </g>
    </g>
</svg>