<?xml version="1.0" encoding="UTF-8"?>
<svg width="26.5px" height="26px" viewBox="0 0 26.5 26" version="1.1" xmlns="http://www.w3.org/2000/svg" xmlns:xlink="http://www.w3.org/1999/xlink">
    <title>Sprite/Steps/2</title>
    <g id="Sprite/Steps/2" stroke="none" stroke-width="1" fill="none" fill-rule="evenodd">
        <circle id="Oval" fill="#FFE100" cx="12" cy="12" r="12"></circle>
        <g id="Group" transform="translate(2.500000, 2.000000)">
            <circle id="Oval" stroke="#212121" stroke-width="0.8" fill="#F7F8FB" cx="12" cy="12" r="11.6"></circle>
            <path d="M15.594,18 L15.594,16.8 L9.77,16.8 C9.834,16.448 9.97,16.136 10.178,15.864 C10.386,15.592 10.6366667,15.3386667 10.93,15.104 C11.2233333,14.8693333 11.546,14.648 11.898,14.44 C12.25,14.232 12.602,14.0213333 12.954,13.808 C13.306,13.584 13.6473333,13.3493333 13.978,13.104 C14.3086667,12.8586667 14.602,12.584 14.858,12.28 C15.114,11.976 15.3193333,11.632 15.474,11.248 C15.6286667,10.864 15.706,10.4213333 15.706,9.92 C15.706,9.38666667 15.6126667,8.91733333 15.426,8.512 C15.2393333,8.10666667 14.986,7.768 14.666,7.496 C14.346,7.224 13.97,7.016 13.538,6.872 C13.106,6.728 12.6446667,6.656 12.154,6.656 C11.5566667,6.656 11.0233333,6.75733333 10.554,6.96 C10.0846667,7.16266667 9.69266667,7.44266667 9.378,7.8 C9.06333333,8.15733333 8.83133333,8.58133333 8.682,9.072 C8.53266667,9.56266667 8.474,10.096 8.506,10.672 L9.866,10.672 C9.85533333,10.3306667 9.89,9.992 9.97,9.656 C10.05,9.32 10.1806667,9.01866667 10.362,8.752 C10.5433333,8.48533333 10.7753333,8.26933333 11.058,8.104 C11.3406667,7.93866667 11.6793333,7.856 12.074,7.856 C12.3726667,7.856 12.6553333,7.904 12.922,8 C13.1886667,8.096 13.4206667,8.23466667 13.618,8.416 C13.8153333,8.59733333 13.9726667,8.81333333 14.09,9.064 C14.2073333,9.31466667 14.266,9.59466667 14.266,9.904 C14.266,10.2986667 14.2046667,10.6453333 14.082,10.944 C13.9593333,11.2426667 13.778,11.52 13.538,11.776 C13.298,12.032 12.9966667,12.2853333 12.634,12.536 C12.2713333,12.7866667 11.85,13.0613333 11.37,13.36 C10.9753333,13.5946667 10.5966667,13.8453333 10.234,14.112 C9.87133333,14.3786667 9.546,14.688 9.258,15.04 C8.97,15.392 8.73266667,15.8053333 8.546,16.28 C8.35933333,16.7546667 8.23933333,17.328 8.186,18 L15.594,18 Z" id="2" fill="#212121" fill-rule="nonzero"></path>
        </g>
    </g>
</svg>