<?xml version="1.0" encoding="UTF-8"?>
<svg width="105px" height="30px" viewBox="0 0 105 30" version="1.1" xmlns="http://www.w3.org/2000/svg" xmlns:xlink="http://www.w3.org/1999/xlink">
    <title>Sprite/button/video</title>
    <defs>
        <path d="M11.0007151,9.69169837 L11.0056258,21.3095543 C11.0058592,21.861839 11.4537637,22.309365 12.0060484,22.3091316 C12.1744065,22.3090604 12.3400215,22.2664842 12.48754,22.18535 L23.0493546,16.376422 C23.5332766,16.1102681 23.7098125,15.5022114 23.4436586,15.0182894 C23.3522378,14.8520677 23.2154222,14.7152789 23.0491826,14.6238907 L12.4824573,8.81496276 C11.998483,8.54890382 11.390461,8.72555911 11.124402,9.20953337 C11.0431909,9.35726039 11.0006438,9.52312046 11.0007151,9.69169837 Z" id="path-1"></path>
        <filter x="-109.9%" y="-128.7%" width="443.9%" height="410.8%" filterUnits="objectBoundingBox" id="filter-2">
            <feOffset dx="9" dy="4" in="SourceAlpha" result="shadowOffsetOuter1"></feOffset>
            <feGaussianBlur stdDeviation="6.5" in="shadowOffsetOuter1" result="shadowBlurOuter1"></feGaussianBlur>
            <feColorMatrix values="0 0 0 0 0   0 0 0 0 0   0 0 0 0 0  0 0 0 0.13 0" type="matrix" in="shadowBlurOuter1"></feColorMatrix>
        </filter>
    </defs>
    <g id="Sprite/button/video" stroke="none" stroke-width="1" fill="none" fill-rule="evenodd">
        <rect id="Rectangle" fill="#FFFFFF" x="0" y="2" width="105" height="26" rx="13"></rect>
        <path d="M36.796,20 L40.478,10.074 L38.434,10.074 L35.844,17.452 L33.254,10.074 L31.14,10.074 L34.808,20 L36.796,20 Z M44.65,20.21 C46.344,20.21 47.436,19.216 47.786,18.026 L46.232,17.564 C46.008,18.18 45.532,18.614 44.664,18.614 C43.74,18.614 42.97,17.956 42.928,17.046 L47.856,17.046 C47.856,17.018 47.884,16.738 47.884,16.472 C47.884,14.26 46.61,12.902 44.482,12.902 C42.718,12.902 41.094,14.33 41.094,16.528 C41.094,18.852 42.76,20.21 44.65,20.21 Z M46.05,15.772 L42.97,15.772 C43.012,15.142 43.544,14.414 44.51,14.414 C45.574,14.414 46.022,15.086 46.05,15.772 Z M51.216,20 L51.216,16.85 C51.216,15.366 52.042,14.904 52.994,14.904 C53.162,14.904 53.344,14.918 53.554,14.96 L53.554,13.084 C53.414,13.07 53.274,13.056 53.12,13.056 C52.532,13.056 51.58,13.224 51.16,14.134 L51.16,13.112 L49.354,13.112 L49.354,20 L51.216,20 Z M62.108,20 L64.782,13.112 L62.822,13.112 L61.184,17.732 L59.476,13.112 L57.432,13.112 L60.246,20 L62.108,20 Z M66.84,11.992 C67.484,11.992 67.988,11.474 67.988,10.858 C67.988,10.214 67.484,9.696 66.84,9.696 C66.21,9.696 65.692,10.214 65.692,10.858 C65.692,11.474 66.21,11.992 66.84,11.992 Z M67.778,20 L67.778,13.112 L65.916,13.112 L65.916,20 L67.778,20 Z M72.608,20.168 C73.532,20.168 74.232,19.748 74.54,19.202 C74.54,19.524 74.582,19.86 74.61,20 L76.388,20 C76.36,19.72 76.332,19.216 76.332,18.754 L76.332,9.864 L74.498,9.864 L74.498,13.798 C74.302,13.434 73.742,12.944 72.552,12.944 C70.606,12.944 69.248,14.526 69.248,16.542 C69.248,18.628 70.648,20.168 72.608,20.168 Z M72.832,18.502 C71.852,18.502 71.124,17.774 71.124,16.542 C71.124,15.31 71.88,14.61 72.832,14.61 C73.784,14.61 74.526,15.296 74.526,16.528 C74.526,17.774 73.784,18.502 72.832,18.502 Z M81.386,20.21 C83.08,20.21 84.172,19.216 84.522,18.026 L82.968,17.564 C82.744,18.18 82.268,18.614 81.4,18.614 C80.476,18.614 79.706,17.956 79.664,17.046 L84.592,17.046 C84.592,17.018 84.62,16.738 84.62,16.472 C84.62,14.26 83.346,12.902 81.218,12.902 C79.454,12.902 77.83,14.33 77.83,16.528 C77.83,18.852 79.496,20.21 81.386,20.21 Z M82.786,15.772 L79.706,15.772 C79.748,15.142 80.28,14.414 81.246,14.414 C82.31,14.414 82.758,15.086 82.786,15.772 Z M89.184,20.21 C91.242,20.21 92.796,18.67 92.796,16.556 C92.796,14.428 91.242,12.902 89.184,12.902 C87.126,12.902 85.572,14.428 85.572,16.556 C85.572,18.67 87.126,20.21 89.184,20.21 Z M89.184,18.516 C88.274,18.516 87.434,17.844 87.434,16.556 C87.434,15.254 88.274,14.596 89.184,14.596 C90.094,14.596 90.934,15.254 90.934,16.556 C90.934,17.858 90.094,18.516 89.184,18.516 Z" id="Vervideo" fill="#212121" fill-rule="nonzero" opacity="0.884171985"></path>
        <g id="Path" opacity="0.884171985" fill-rule="nonzero">
            <use fill="black" fill-opacity="1" filter="url(#filter-2)" xlink:href="#path-1"></use>
            <use fill="#000000" xlink:href="#path-1"></use>
        </g>
    </g>
</svg>