<svg width="16" height="16" viewBox="0 0 16 16" fill="none" xmlns="http://www.w3.org/2000/svg">
<path d="M8 1.25C6.66498 1.25 5.35994 1.64588 4.2499 2.38758C3.13987 3.12928 2.27471 4.18349 1.76382 5.41689C1.25292 6.65029 1.11925 8.00749 1.3797 9.31686C1.64015 10.6262 2.28303 11.829 3.22703 12.773C4.17104 13.717 5.37377 14.3598 6.68314 14.6203C7.99252 14.8808 9.34971 14.7471 10.5831 14.2362C11.8165 13.7253 12.8707 12.8601 13.6124 11.7501C14.3541 10.6401 14.75 9.33502 14.75 8C14.7483 6.2103 14.0367 4.49437 12.7711 3.22886C11.5056 1.96335 9.78971 1.25165 8 1.25ZM8 13.25C6.96165 13.25 5.94662 12.9421 5.08326 12.3652C4.2199 11.7883 3.547 10.9684 3.14964 10.0091C2.75228 9.04978 2.64831 7.99418 2.85088 6.97578C3.05345 5.95738 3.55347 5.02191 4.28769 4.28769C5.02192 3.55346 5.95738 3.05345 6.97578 2.85088C7.99418 2.6483 9.04978 2.75227 10.0091 3.14963C10.9684 3.54699 11.7883 4.2199 12.3652 5.08326C12.9421 5.94661 13.25 6.96165 13.25 8C13.2483 9.39188 12.6947 10.7263 11.7105 11.7105C10.7263 12.6947 9.39188 13.2483 8 13.25ZM9.84375 7.7875L8 10.25H9.5C9.69892 10.25 9.88968 10.329 10.0303 10.4697C10.171 10.6103 10.25 10.8011 10.25 11C10.25 11.1989 10.171 11.3897 10.0303 11.5303C9.88968 11.671 9.69892 11.75 9.5 11.75H6.5C6.41938 11.7497 6.33928 11.7371 6.2625 11.7125C6.149 11.6737 6.04634 11.6085 5.96302 11.5222C5.87969 11.4359 5.81809 11.3311 5.78328 11.2163C5.74848 11.1015 5.74148 10.9801 5.76286 10.8621C5.78425 10.744 5.83339 10.6328 5.90625 10.5375L8.63125 6.90625C8.70807 6.78461 8.74921 6.64386 8.75 6.5C8.75207 6.32553 8.69325 6.1558 8.58366 6.02003C8.47407 5.88426 8.32057 5.79094 8.14959 5.75615C7.97861 5.72137 7.80085 5.74728 7.64692 5.82943C7.49299 5.91159 7.37252 6.04484 7.30625 6.20625C7.22359 6.38091 7.0767 6.51693 6.89621 6.58595C6.71571 6.65497 6.51555 6.65165 6.33744 6.5767C6.15933 6.50175 6.01702 6.36094 5.94018 6.18364C5.86334 6.00634 5.85791 5.80622 5.925 5.625C6.12612 5.1453 6.48723 4.75011 6.94688 4.50665C7.40654 4.26319 7.93635 4.18651 8.44617 4.28965C8.95599 4.39279 9.41433 4.66939 9.7432 5.07238C10.0721 5.47537 10.2512 5.97985 10.25 6.5C10.2523 6.94852 10.1171 7.38696 9.8625 7.75625L9.84375 7.7875Z" fill="black"/>
</svg>
