<svg width="16" height="16" viewBox="0 0 16 16" fill="none" xmlns="http://www.w3.org/2000/svg">
<path d="M8 1.25C6.66498 1.25 5.35994 1.64588 4.2499 2.38758C3.13987 3.12928 2.27471 4.18349 1.76382 5.41689C1.25292 6.65029 1.11925 8.00749 1.3797 9.31686C1.64015 10.6262 2.28303 11.829 3.22703 12.773C4.17104 13.717 5.37377 14.3599 6.68314 14.6203C7.99251 14.8808 9.34971 14.7471 10.5831 14.2362C11.8165 13.7253 12.8707 12.8601 13.6124 11.7501C14.3541 10.6401 14.75 9.33502 14.75 8C14.7483 6.2103 14.0367 4.49437 12.7711 3.22886C11.5056 1.96335 9.78971 1.25165 8 1.25ZM8 13.25C6.96165 13.25 5.94662 12.9421 5.08326 12.3652C4.2199 11.7883 3.547 10.9684 3.14964 10.0091C2.75228 9.04978 2.64831 7.99418 2.85088 6.97578C3.05345 5.95738 3.55347 5.02191 4.28769 4.28769C5.02192 3.55346 5.95738 3.05345 6.97578 2.85088C7.99418 2.6483 9.04978 2.75227 10.0091 3.14963C10.9684 3.54699 11.7883 4.2199 12.3652 5.08326C12.9421 5.94661 13.25 6.96165 13.25 8C13.2483 9.39188 12.6947 10.7263 11.7105 11.7105C10.7263 12.6947 9.39188 13.2483 8 13.25V13.25ZM9 5.25V11C9 11.1989 8.92098 11.3897 8.78033 11.5303C8.63968 11.671 8.44892 11.75 8.25 11.75C8.05109 11.75 7.86032 11.671 7.71967 11.5303C7.57902 11.3897 7.5 11.1989 7.5 11V6.65L7.16875 6.875C7.08668 6.92999 6.99457 6.96828 6.8977 6.98767C6.80083 7.00707 6.70108 7.00719 6.60416 6.98804C6.40842 6.94936 6.23606 6.83451 6.125 6.66875C6.01394 6.50299 5.97328 6.2999 6.01196 6.10416C6.05064 5.90842 6.16549 5.73606 6.33125 5.625L7.83125 4.625C7.94525 4.54996 8.07731 4.5069 8.21363 4.5003C8.34995 4.49371 8.48554 4.52382 8.60625 4.5875C8.72569 4.65197 8.82539 4.74764 8.89473 4.86431C8.96407 4.98098 9.00046 5.11428 9 5.25Z" fill="black"/>
</svg>
