<svg width="16" height="16" viewBox="0 0 16 16" fill="none" xmlns="http://www.w3.org/2000/svg">
<path d="M8 1.25C6.66498 1.25 5.35994 1.64588 4.2499 2.38758C3.13987 3.12928 2.27471 4.18349 1.76382 5.41689C1.25292 6.65029 1.11925 8.00749 1.3797 9.31686C1.64015 10.6262 2.28303 11.829 3.22703 12.773C4.17104 13.717 5.37377 14.3599 6.68314 14.6203C7.99251 14.8808 9.34971 14.7471 10.5831 14.2362C11.8165 13.7253 12.8707 12.8601 13.6124 11.7501C14.3541 10.6401 14.75 9.33502 14.75 8C14.7483 6.2103 14.0367 4.49437 12.7711 3.22886C11.5056 1.96335 9.78971 1.25165 8 1.25ZM8 13.25C6.96165 13.25 5.94662 12.9421 5.08326 12.3652C4.2199 11.7883 3.547 10.9684 3.14964 10.0091C2.75228 9.04978 2.64831 7.99418 2.85088 6.97578C3.05345 5.95738 3.55347 5.02191 4.28769 4.28769C5.02192 3.55346 5.95738 3.05345 6.97578 2.85088C7.99418 2.6483 9.04978 2.75227 10.0091 3.14963C10.9684 3.54699 11.7883 4.2199 12.3652 5.08326C12.9421 5.94661 13.25 6.96165 13.25 8C13.2483 9.39188 12.6947 10.7263 11.7105 11.7105C10.7263 12.6947 9.39188 13.2483 8 13.25V13.25ZM9.51875 7.73125C9.98785 8.20035 10.2514 8.83659 10.2514 9.5C10.2514 10.1634 9.98785 10.7996 9.51875 11.2688C9.04965 11.7379 8.41341 12.0014 7.75 12.0014C7.08659 12.0014 6.45035 11.7379 5.98125 11.2688C5.91149 11.199 5.85615 11.1162 5.81839 11.025C5.78063 10.9339 5.7612 10.8362 5.7612 10.7375C5.7612 10.5382 5.84036 10.3471 5.98125 10.2063C6.12215 10.0654 6.31325 9.9862 6.5125 9.9862C6.71176 9.9862 6.90286 10.0654 7.04375 10.2063C7.15998 10.3228 7.30317 10.4088 7.46062 10.4567C7.61807 10.5046 7.78491 10.5129 7.94633 10.4809C8.10776 10.4488 8.25879 10.3775 8.38602 10.2731C8.51325 10.1687 8.61275 10.0345 8.67569 9.88245C8.73863 9.73039 8.76307 9.56514 8.74684 9.40137C8.73061 9.2376 8.6742 9.08036 8.58264 8.94361C8.49107 8.80686 8.36717 8.69483 8.22192 8.61744C8.07668 8.54006 7.91458 8.49972 7.75 8.5C7.61278 8.4998 7.47825 8.46195 7.36104 8.39058C7.24384 8.31921 7.14847 8.21706 7.0853 8.09524C7.02214 7.97342 6.9936 7.83661 7.00281 7.69969C7.01201 7.56278 7.0586 7.43102 7.1375 7.31875L8.0625 6H6.5C6.30109 6 6.11032 5.92098 5.96967 5.78033C5.82902 5.63968 5.75 5.44891 5.75 5.25C5.75 5.05109 5.82902 4.86032 5.96967 4.71967C6.11032 4.57902 6.30109 4.5 6.5 4.5H9.5C9.63722 4.5002 9.77176 4.53805 9.88896 4.60942C10.0062 4.68079 10.1015 4.78294 10.1647 4.90476C10.2279 5.02658 10.2564 5.16339 10.2472 5.30031C10.238 5.43722 10.1914 5.56898 10.1125 5.68125L8.96875 7.31875C9.17034 7.43006 9.35545 7.56889 9.51875 7.73125V7.73125Z" fill="black"/>
</svg>
