<svg width="82" height="81" viewBox="0 0 82 81" fill="none" xmlns="http://www.w3.org/2000/svg">
<mask id="mask0_1458_24836" style="mask-type:alpha" maskUnits="userSpaceOnUse" x="0" y="0" width="77" height="74">
<path fill-rule="evenodd" clip-rule="evenodd" d="M0.5 0H76.1525V73.5627H0.5V0Z" fill="white"/>
</mask>
<g mask="url(#mask0_1458_24836)">
<path fill-rule="evenodd" clip-rule="evenodd" d="M5.22852 18.3904V5.66833C5.26552 5.40291 5.93952 4.59668 6.95352 4.59668H61.9675H64.3315H69.6995C70.7125 4.59668 71.3875 5.40291 71.4245 5.64937V18.3904H5.22852ZM69.7 0H64.332H61.968H6.954C3.576 0 0.5 2.69409 0.5 5.64961V66.6668C0.5 70.5972 3.275 73.5627 6.954 73.5627H45.419C46.726 73.5627 47.783 72.535 47.783 71.2647C47.783 69.9935 46.726 68.9658 45.419 68.9658H6.954C5.921 68.9658 5.229 68.0408 5.229 66.6668V22.9876H71.425V43.6782C71.425 44.9484 72.482 45.9762 73.789 45.9762C75.095 45.9762 76.153 44.9484 76.153 43.6782V5.64961C76.153 2.69409 73.078 0 69.7 0V0Z" fill="#0073B8"/>
</g>
<path fill-rule="evenodd" clip-rule="evenodd" d="M12.321 13.7932V13.7932C13.627 13.7932 14.685 12.7635 14.685 11.4943C14.685 10.2241 13.627 9.19531 12.321 9.19531C11.015 9.19531 9.95703 10.2241 9.95703 11.4943C9.95703 12.7635 11.015 13.7932 12.321 13.7932" fill="#0073B8"/>
<path fill-rule="evenodd" clip-rule="evenodd" d="M21.7781 13.7932V13.7932C23.0841 13.7932 24.1421 12.7635 24.1421 11.4943C24.1421 10.2241 23.0841 9.19531 21.7781 9.19531C20.4721 9.19531 19.4141 10.2241 19.4141 11.4943C19.4141 12.7635 20.4721 13.7932 21.7781 13.7932" fill="#0073B8"/>
<path fill-rule="evenodd" clip-rule="evenodd" d="M31.2351 13.7932V13.7932C32.5411 13.7932 33.5991 12.7635 33.5991 11.4943C33.5991 10.2241 32.5411 9.19531 31.2351 9.19531C29.9291 9.19531 28.8711 10.2241 28.8711 11.4943C28.8711 12.7635 29.9291 13.7932 31.2351 13.7932" fill="#0073B8"/>
<path fill-rule="evenodd" clip-rule="evenodd" d="M54.8757 32.1839H64.3327C65.6387 32.1839 66.6967 31.1551 66.6967 29.8849C66.6967 28.6147 65.6387 27.5859 64.3327 27.5859H54.8757C53.5687 27.5859 52.5117 28.6147 52.5117 29.8849C52.5117 31.1551 53.5687 32.1839 54.8757 32.1839" fill="#0073B8"/>
<path fill-rule="evenodd" clip-rule="evenodd" d="M54.8757 41.3792H64.3327C65.6387 41.3792 66.6967 40.3504 66.6967 39.0802C66.6967 37.809 65.6387 36.7812 64.3327 36.7812H54.8757C53.5687 36.7812 52.5117 37.809 52.5117 39.0802C52.5117 40.3504 53.5687 41.3792 54.8757 41.3792" fill="#0073B8"/>
<path fill-rule="evenodd" clip-rule="evenodd" d="M20.7825 35.4597C21.7155 34.6944 23.0145 34.2544 24.3465 34.2544C24.5325 34.2544 28.8695 34.2963 28.8695 37.9313C28.8695 39.2015 29.9275 40.2303 31.2345 40.2303C32.5405 40.2303 33.5985 39.2015 33.5985 37.9313C33.5985 33.3573 30.2925 30.6453 26.5055 29.8939V28.7355C26.5055 27.4652 25.4485 26.4375 24.1415 26.4375C22.8355 26.4375 21.7775 27.4652 21.7775 28.7355V30.0047C20.2785 30.3699 18.8665 31.0145 17.7255 31.9504C15.7655 33.5689 14.6855 35.765 14.6855 38.1339C14.6855 40.7641 16.1835 44.435 23.3265 46.9854C24.9935 47.5801 28.8695 49.2146 28.8695 51.5225C28.8695 52.7977 28.1245 53.6818 27.5005 54.1966C26.5685 54.962 25.2685 55.402 23.9335 55.402C19.4135 55.402 19.4135 52.7308 19.4135 51.7241C19.4135 50.4538 18.3555 49.4261 17.0495 49.4261C15.7425 49.4261 14.6855 50.4538 14.6855 51.7241C14.6855 56.1494 17.3535 59.1119 21.7775 59.8243V60.9199C21.7775 62.1911 22.8355 63.2189 24.1415 63.2189C25.4485 63.2189 26.5055 62.1911 26.5055 60.9199V59.6517C28.0055 59.2845 29.4185 58.6409 30.5575 57.7049C32.5175 56.0865 33.5985 53.8913 33.5985 51.5225C33.5985 48.8913 32.0995 45.2203 24.9565 42.6709C23.2895 42.0752 19.4135 40.4408 19.4135 38.1339C19.4135 36.8577 20.1585 35.9736 20.7825 35.4597" fill="#0073B8"/>
<path fill-rule="evenodd" clip-rule="evenodd" d="M20.7825 35.4597C21.7155 34.6944 23.0145 34.2544 24.3465 34.2544C24.5325 34.2544 28.8695 34.2963 28.8695 37.9313C28.8695 39.2015 29.9275 40.2303 31.2345 40.2303C32.5405 40.2303 33.5985 39.2015 33.5985 37.9313C33.5985 33.3573 30.2925 30.6453 26.5055 29.8939V28.7355C26.5055 27.4652 25.4485 26.4375 24.1415 26.4375C22.8355 26.4375 21.7775 27.4652 21.7775 28.7355V30.0047C20.2785 30.3699 18.8665 31.0145 17.7255 31.9504C15.7655 33.5689 14.6855 35.765 14.6855 38.1339C14.6855 40.7641 16.1835 44.435 23.3265 46.9854C24.9935 47.5801 28.8695 49.2146 28.8695 51.5225C28.8695 52.7977 28.1245 53.6818 27.5005 54.1966C26.5685 54.962 25.2685 55.402 23.9335 55.402C19.4135 55.402 19.4135 52.7308 19.4135 51.7241C19.4135 50.4538 18.3555 49.4261 17.0495 49.4261C15.7425 49.4261 14.6855 50.4538 14.6855 51.7241C14.6855 56.1494 17.3535 59.1119 21.7775 59.8243V60.9199C21.7775 62.1911 22.8355 63.2189 24.1415 63.2189C25.4485 63.2189 26.5055 62.1911 26.5055 60.9199V59.6517C28.0055 59.2845 29.4185 58.6409 30.5575 57.7049C32.5175 56.0865 33.5985 53.8913 33.5985 51.5225C33.5985 48.8913 32.0995 45.2203 24.9565 42.6709C23.2895 42.0752 19.4135 40.4408 19.4135 38.1339C19.4135 36.8577 20.1585 35.9736 20.7825 35.4597" fill="#0073B8"/>
<path fill-rule="evenodd" clip-rule="evenodd" d="M71.9967 68.4287L79.8127 76.029L76.4997 79.251L68.6797 71.6467L71.9967 68.4287Z" fill="#73D7FF"/>
<path fill-rule="evenodd" clip-rule="evenodd" d="M71.998 68.4293L69.33 65.835L66 69.0729L68.433 71.4377L71.998 68.4293Z" fill="white"/>
<mask id="mask1_1458_24836" style="mask-type:alpha" maskUnits="userSpaceOnUse" x="44" y="45" width="38" height="36">
<path fill-rule="evenodd" clip-rule="evenodd" d="M44.9297 45.4365H81.5007V81.0001H44.9297V45.4365Z" fill="white"/>
</mask>
<g mask="url(#mask1_1458_24836)">
<path fill-rule="evenodd" clip-rule="evenodd" d="M58.9417 49.8633C61.4737 49.8633 63.8517 50.8192 65.6357 52.5534C69.3277 56.1425 69.3277 61.9827 65.6357 65.5718C63.8517 67.307 61.4737 68.2629 58.9427 68.2629C56.4107 68.2629 54.0327 67.307 52.2487 65.5728C48.5577 61.9827 48.5577 56.1425 52.2487 52.5534C54.0307 50.8192 56.4087 49.8633 58.9417 49.8633M80.2147 73.4272L71.5467 65.0006C74.1277 59.819 73.0787 53.5308 68.8567 49.4218C66.2117 46.8514 62.6897 45.4365 58.9417 45.4365C55.1917 45.4365 51.6707 46.8514 49.0277 49.4228C43.5637 54.7381 43.5637 63.3872 49.0277 68.7015C51.6707 71.2729 55.1917 72.6888 58.9417 72.6888C61.0507 72.6888 63.1437 72.2178 65.0507 71.3198L73.7147 79.7443C74.5487 80.5535 75.6617 81.0005 76.8537 81.0005C78.0857 81.0005 79.2497 80.5276 80.1347 79.6685C81.9237 77.9273 81.9607 75.1274 80.2147 73.4272" fill="#0073B8"/>
</g>
<path fill-rule="evenodd" clip-rule="evenodd" d="M58.1918 52.1289C55.0578 52.1289 52.5098 54.6075 52.5098 57.6548C52.5098 58.7903 53.4598 59.7143 54.6278 59.7143C55.7958 59.7143 56.7458 58.7903 56.7458 57.6548C56.7458 56.8785 57.3948 56.2479 58.1918 56.2479C59.3598 56.2479 60.3108 55.3249 60.3108 54.1884C60.3108 53.0529 59.3598 52.1289 58.1918 52.1289" fill="#0073B8"/>
</svg>
