<svg width="24" height="24" viewBox="0 0 24 24" fill="none" xmlns="http://www.w3.org/2000/svg">
<path d="M18.5 20.002C18.5 20.1346 18.4473 20.2618 18.3536 20.3556C18.2598 20.4493 18.1326 20.502 18 20.502H9V22.002H18C18.5304 22.002 19.0391 21.7913 19.4142 21.4162C19.7893 21.0411 20 20.5324 20 20.002V9.83C20 9.3 19.789 8.79 19.414 8.416L13.585 2.587C13.5695 2.57263 13.5532 2.55926 13.536 2.547C13.5236 2.53745 13.5116 2.52744 13.5 2.517C13.4312 2.45207 13.358 2.39193 13.281 2.337C13.2554 2.32048 13.2287 2.30577 13.201 2.293C13.184 2.285 13.168 2.278 13.153 2.269L13.103 2.24C13.049 2.209 12.994 2.177 12.937 2.153C12.7379 2.07346 12.5271 2.02685 12.313 2.015C12.293 2.014 12.273 2.011 12.254 2.008C12.2269 2.00347 12.1995 2.0008 12.172 2H6C5.46957 2 4.96086 2.21071 4.58579 2.58579C4.21071 2.96086 4 3.46957 4 4V11.257C4.48179 11.0869 4.98908 11.0004 5.5 11.001V4.001C5.5 3.86839 5.55268 3.74121 5.64645 3.64745C5.74021 3.55368 5.86739 3.501 6 3.501H12V8C12 8.53043 12.2107 9.03914 12.5858 9.41421C12.9609 9.78929 13.4696 10 14 10H18.5V20.001V20.002ZM13.5 4.622L17.378 8.5H14C13.8674 8.5 13.7402 8.44732 13.6464 8.35355C13.5527 8.25979 13.5 8.13261 13.5 8V4.62V4.622ZM9 15.501C9 15.9606 8.90947 16.4158 8.73358 16.8404C8.55769 17.265 8.29988 17.6509 7.97487 17.9759C7.64987 18.3009 7.26403 18.5587 6.83939 18.7346C6.41475 18.9105 5.95963 19.001 5.5 19.001C5.04037 19.001 4.58525 18.9105 4.16061 18.7346C3.73597 18.5587 3.35013 18.3009 3.02513 17.9759C2.70012 17.6509 2.44231 17.265 2.26642 16.8404C2.09053 16.4158 2 15.9606 2 15.501C2 14.5727 2.36875 13.6825 3.02513 13.0261C3.6815 12.3697 4.57174 12.001 5.5 12.001C6.42826 12.001 7.3185 12.3697 7.97487 13.0261C8.63125 13.6825 9 14.5727 9 15.501ZM3 19.243V22.287C2.99982 22.4275 3.04133 22.5649 3.11927 22.6818C3.19721 22.7987 3.30808 22.8898 3.43784 22.9437C3.56761 22.9975 3.71044 23.0117 3.84824 22.9843C3.98605 22.957 4.11264 22.8893 4.212 22.79L5.5 21.503L6.788 22.791C6.88736 22.8903 7.01395 22.958 7.15176 22.9853C7.28956 23.0127 7.43239 22.9985 7.56216 22.9447C7.69192 22.8908 7.80279 22.7997 7.88073 22.6828C7.95867 22.5659 8.00018 22.4285 8 22.288V19.244C7.2605 19.7395 6.39014 20.0034 5.5 20.002C4.575 20.002 3.715 19.723 3 19.244V19.243Z" fill="black"/>
</svg>
