<svg width="24" height="24" viewBox="0 0 24 24" fill="none" xmlns="http://www.w3.org/2000/svg">
<path d="M18.5 20.002C18.5 20.1346 18.4473 20.2618 18.3536 20.3556C18.2598 20.4493 18.1326 20.502 18 20.502H9V22.002H18C18.5304 22.002 19.0391 21.7913 19.4142 21.4162C19.7893 21.0411 20 20.5324 20 20.002V9.83C20 9.3 19.789 8.79 19.414 8.416L13.585 2.587C13.5695 2.57263 13.5532 2.55926 13.536 2.547C13.5236 2.53745 13.5116 2.52744 13.5 2.517C13.4312 2.45207 13.358 2.39193 13.281 2.337C13.2554 2.32048 13.2287 2.30577 13.201 2.293C13.184 2.285 13.168 2.278 13.153 2.269L13.103 2.24C13.049 2.209 12.994 2.177 12.937 2.153C12.7379 2.07346 12.5271 2.02685 12.313 2.015C12.293 2.014 12.273 2.011 12.254 2.008C12.2269 2.00347 12.1995 2.0008 12.172 2H6C5.46957 2 4.96086 2.21071 4.58579 2.58579C4.21071 2.96086 4 3.46957 4 4V11.257C4.5 11 5 11 5.5 11.257V4.001C5.5 3.86839 5.55268 3.74121 5.64645 3.64745C5.74021 3.55368 5.86739 3.501 6 3.501H12V8C12 8.53043 12.2107 9.03914 12.5858 9.41421C12.9609 9.78929 13.4696 10 14 10H18.5V20.001V20.002ZM13.5 4.622L17.378 8.5H14C13.8674 8.5 13.7402 8.44732 13.6464 8.35355C13.5527 8.25979 13.5 8.13261 13.5 8V4.62V4.622Z" fill="black"/>
<path d="M9 12H16V14H9V12ZM10.75 16H16V18H10.75V16Z" fill="#1C1C1C"/>
<path d="M4.71 17.2667C3.121 16.8733 2.61 16.4667 2.61 15.8333C2.61 15.1067 3.317 14.6 4.5 14.6C5.494 14.6 5.991 14.96 6.173 15.5333C6.257 15.8 6.488 16 6.782 16H6.992C7.454 16 7.783 15.5667 7.622 15.1533C7.328 14.3667 6.642 13.7133 5.55 13.46V13C5.55 12.4467 5.081 12 4.5 12C3.919 12 3.45 12.4467 3.45 13V13.44C2.092 13.72 1 14.56 1 15.8467C1 17.3867 2.337 18.1533 4.29 18.6C6.04 19 6.39 19.5867 6.39 20.2067C6.39 20.6667 6.047 21.4 4.5 21.4C3.345 21.4 2.75 21.0067 2.519 20.4467C2.414 20.1867 2.176 20 1.889 20H1.693C1.224 20 0.895 20.4533 1.07 20.8667C1.469 21.7933 2.4 22.34 3.45 22.5533V23C3.45 23.5533 3.919 24 4.5 24C5.081 24 5.55 23.5533 5.55 23V22.5667C6.915 22.32 8 21.5667 8 20.2C8 18.3067 6.299 17.66 4.71 17.2667Z" fill="black"/>
</svg>
