<svg width="24" height="24" viewBox="0 0 24 24" fill="none" xmlns="http://www.w3.org/2000/svg">
<path d="M11.029 2.53961C11.326 2.37465 11.6602 2.28809 12 2.28809C12.3398 2.28809 12.674 2.37465 12.971 2.53961L20.486 6.71361C20.6418 6.80025 20.7716 6.92697 20.862 7.08064C20.9524 7.23431 21 7.40934 21 7.58761V15.8226C20.9999 16.1793 20.9045 16.5294 20.7235 16.8367C20.5426 17.1441 20.2828 17.3975 19.971 17.5706L12.971 21.4606C12.674 21.6256 12.3398 21.7121 12 21.7121C11.6602 21.7121 11.326 21.6256 11.029 21.4606L4.029 17.5706C3.71736 17.3975 3.45763 17.1443 3.27671 16.8372C3.0958 16.53 3.00026 16.1801 3 15.8236V7.58761C2.99999 7.40934 3.04764 7.23431 3.13802 7.08064C3.22839 6.92697 3.3582 6.80025 3.514 6.71361L11.03 2.53961H11.029Z" stroke="#1C1C1C" stroke-width="2" stroke-linecap="round" stroke-linejoin="round"/>
<path d="M12 12V21.5M3 7L12 12L3 7ZM12 12L21 7L12 12Z" stroke="#1C1C1C" stroke-width="2" stroke-linejoin="round"/>
<path d="M7.5 9.5L16.5 4.5" stroke="#1C1C1C" stroke-width="2" stroke-linecap="round" stroke-linejoin="round"/>
<path d="M6 12.3271L9 13.9991" stroke="#1C1C1C" stroke-width="2" stroke-linecap="round" stroke-linejoin="round"/>
</svg>
