<svg width="319" height="32" viewBox="0 0 319 32" fill="none" xmlns="http://www.w3.org/2000/svg">
<path d="M152.535 0H43.1643C42.4503 0 41.931 0.584179 41.931 1.23327V29.2089C41.931 29.9229 42.5152 30.4422 43.1643 30.4422H152.535C153.249 30.4422 153.769 29.858 153.769 29.2089V1.23327C153.769 0.51927 153.249 0 152.535 0Z" fill="#FFDD30"/>
<path d="M38.8154 0H1.23327C0.51927 0 0 0.51927 0 1.23327V29.2089C0 29.9229 0.584179 30.4422 1.23327 30.4422H38.8154C39.5294 30.4422 40.0487 29.858 40.0487 29.2089V1.23327C40.1136 0.51927 39.5294 0 38.8154 0Z" fill="#0266AE"/>
<path fill-rule="evenodd" clip-rule="evenodd" d="M71.14 17.5252C71.14 13.3062 74.4503 10.4502 78.4746 10.4502C82.499 10.4502 85.8093 13.3711 85.8093 17.5252C85.8093 21.7443 82.499 24.6003 78.4746 24.6003C74.4503 24.6003 71.14 21.7443 71.14 17.5252ZM74.3205 17.5902C74.3205 19.862 76.0081 21.7443 78.5395 21.7443C81.0061 21.7443 82.6937 19.862 82.7586 17.5902C82.7586 15.3183 81.071 13.436 78.6045 13.436H78.5395H78.4746C76.0081 13.436 74.3205 15.3183 74.3205 17.5902Z" fill="#0266AE"/>
<path d="M68.0893 19.2127C66.856 20.6407 65.0385 21.6144 63.0264 21.6144C59.3915 21.6144 56.4057 18.6286 56.4057 14.9937C56.4057 11.3588 59.3915 8.37298 63.0264 8.37298C65.0385 8.37298 66.856 9.2817 68.0243 10.7097L70.2961 8.69752C68.4787 6.62044 65.8174 5.32227 62.8966 5.32227C57.5091 5.32227 53.0953 9.60624 53.0953 14.9288C53.0953 20.2513 57.5091 24.6002 62.8966 24.6002C65.8824 24.6002 68.5436 23.302 70.3611 21.2249L68.0893 19.2127Z" fill="#0266AE"/>
<path fill-rule="evenodd" clip-rule="evenodd" d="M102.88 17.5252C102.88 13.3711 106.191 10.4502 110.215 10.4502C114.239 10.4502 117.55 13.3711 117.55 17.5252C117.55 21.6794 114.239 24.6003 110.215 24.6003C108.722 24.6003 107.229 24.2108 106.061 23.4319V30.3772H102.88V17.5252ZM110.215 21.7443H110.28C112.682 21.7443 114.369 19.862 114.499 17.5902C114.499 15.3183 112.811 13.436 110.345 13.436H110.28H110.215C107.748 13.436 106.061 15.3183 106.061 17.5902C106.061 19.862 107.748 21.7443 110.215 21.7443Z" fill="#0266AE"/>
<path fill-rule="evenodd" clip-rule="evenodd" d="M87.0426 17.5252C87.0426 13.3711 90.3529 10.4502 94.3773 10.4502C98.3367 10.4502 101.712 13.3711 101.712 17.5252C101.712 21.6794 98.4016 24.6003 94.3773 24.6003C92.8844 24.6003 91.3915 24.2108 90.2231 23.4319V30.3772H87.0426V17.5252ZM94.3124 21.7443H94.3773C96.8438 21.7443 98.5314 19.862 98.5964 17.5902C98.5964 15.3183 96.9087 13.436 94.4422 13.436H94.3773H94.3124C91.8458 13.436 90.1582 15.3183 90.1582 17.5902C90.1582 19.862 91.8458 21.7443 94.3124 21.7443Z" fill="#0266AE"/>
<path fill-rule="evenodd" clip-rule="evenodd" d="M118.329 17.5252C118.329 13.3711 121.444 10.4502 125.144 10.4502C129.298 10.4502 131.959 13.3711 131.959 17.3954C131.959 17.5667 131.941 17.72 131.924 17.8647C131.909 17.9941 131.895 18.1167 131.895 18.2392H121.444C121.444 20.3163 123.067 21.7443 125.533 21.7443C127.026 21.7443 128.26 21.1601 129.103 20.2514L130.986 22.1338C129.753 23.8863 127.351 24.6003 125.144 24.6003C121.444 24.6003 118.329 21.7443 118.329 17.5252ZM125.339 13.1764C123.132 13.1764 121.509 14.9289 121.509 16.1622H128.714C128.714 14.2798 126.767 13.1764 125.339 13.1764Z" fill="#0266AE"/>
<path d="M136.308 17.5252V5.58203H133.128V17.5252C133.128 21.6794 136.373 24.5354 140.333 24.6003V21.6794C137.931 21.6794 136.308 19.797 136.308 17.5252Z" fill="#0266AE"/>
<path fill-rule="evenodd" clip-rule="evenodd" d="M35.8296 15.1237H15.643C15.7079 14.7991 15.7728 14.4746 15.7728 14.0851C15.7728 12.1379 14.215 10.5801 12.2677 10.5801C10.5801 10.5801 9.217 11.7484 8.82755 13.3062C8.503 13.1764 8.17846 13.1764 7.78901 13.1764C5.84174 13.1764 4.28394 14.7342 4.28394 16.6815C4.28394 18.6288 5.84174 20.1866 7.78901 20.1866C8.11355 20.1866 8.503 20.1217 8.82755 20.0568C9.217 21.6146 10.5801 22.7829 12.2677 22.7829C14.215 22.7829 15.7728 21.2251 15.7728 19.2778C15.7728 18.9533 15.7079 18.5639 15.643 18.2393H29.3387V22.4584H30.9614V20.3164H32.5192V22.4584H34.1419V18.2393H35.7647V15.1237H35.8296ZM12.2677 12.5273C13.1115 12.5273 13.8255 13.2413 13.8255 14.0851C13.8255 14.929 13.1115 15.643 12.2677 15.643C11.4239 15.643 10.7099 14.929 10.7099 14.0851C10.645 13.2413 11.359 12.5273 12.2677 12.5273ZM6.2312 16.6815C6.2312 15.8377 6.94519 15.1237 7.78901 15.1237C8.63282 15.1237 9.34682 15.8377 9.34682 16.6815C9.34682 17.5253 8.63282 18.2393 7.78901 18.2393C6.94519 18.2393 6.2312 17.5253 6.2312 16.6815ZM12.2677 20.7707C11.4239 20.7707 10.7099 20.0568 10.7099 19.2129C10.7099 18.3691 11.4239 17.6551 12.2677 17.6551C13.1115 17.6551 13.8255 18.3691 13.8255 19.2129C13.8255 20.0568 13.1115 20.7707 12.2677 20.7707Z" fill="#FFDD30"/>
<path fill-rule="evenodd" clip-rule="evenodd" d="M142.734 24.665C143.578 24.665 144.227 24.0159 144.227 23.1721C144.227 22.3932 143.578 21.7441 142.734 21.7441C141.89 21.7441 141.241 22.3932 141.241 23.1721C141.241 24.0159 141.89 24.665 142.734 24.665ZM142.734 24.3405C142.085 24.3405 141.631 23.8212 141.631 23.1721C141.631 22.588 142.085 22.0038 142.734 22.0038C143.383 22.0038 143.838 22.523 143.838 23.1721C143.838 23.8212 143.383 24.3405 142.734 24.3405ZM142.54 23.951H142.215V22.523C142.269 22.523 142.334 22.5119 142.41 22.4989C142.517 22.4804 142.647 22.4581 142.799 22.4581C143.059 22.4581 143.189 22.523 143.318 22.588C143.383 22.6529 143.448 22.7827 143.448 22.9125C143.448 23.0423 143.318 23.1721 143.124 23.237C143.254 23.3019 143.318 23.3669 143.383 23.5616C143.408 23.636 143.423 23.7009 143.437 23.7563C143.458 23.846 143.473 23.9109 143.513 23.951H143.124C143.087 23.9146 143.071 23.8577 143.053 23.7918C143.038 23.7403 143.022 23.6834 142.994 23.6265C142.994 23.4967 142.864 23.3669 142.669 23.3669H142.54V23.951ZM142.669 23.1072H142.54H142.475V22.7178H142.669C142.864 22.7178 142.994 22.7827 142.994 22.9125C142.994 23.0423 142.864 23.1072 142.669 23.1072Z" fill="#0266AE"/>
<path d="M247.692 26.418V31.9352H253.209C250.158 31.9352 247.692 29.4687 247.692 26.418Z" fill="#0067AC"/>
<path d="M313.185 1.55762H253.209C250.158 1.55762 247.692 4.02415 247.692 7.07486V26.4826C247.692 29.5333 250.158 31.9998 253.209 31.9998H313.185C316.235 31.9998 318.702 29.5333 318.702 26.4826V7.00995C318.702 4.02415 316.235 1.55762 313.185 1.55762Z" fill="#0067AC"/>
<path d="M176.292 24.211V10.7749L170.775 24.211H167.659L162.142 10.8398V24.211H158.572V4.99805H163.505L169.282 18.8885L174.929 4.99805H179.992V24.211H176.292Z" fill="#0067AC"/>
<path fill-rule="evenodd" clip-rule="evenodd" d="M189.858 16.0328L186.613 16.5521C184.406 16.8766 182.653 18.1748 182.523 20.5115C182.523 22.5886 184.276 24.5358 187.132 24.5358C189.079 24.5358 190.377 23.6271 191.026 22.5886C191.026 23.1079 191.091 23.8868 191.156 24.2113H194.467C194.402 23.692 194.337 22.7833 194.337 22.0693V15.4486C194.337 12.7874 192.779 10.3857 188.56 10.3857C184.99 10.3857 183.043 12.7225 182.848 14.7995L186.028 15.4486C186.093 14.2803 187.002 13.3066 188.56 13.3066C190.118 13.3066 190.832 14.0855 190.832 15.0592C190.832 15.5135 190.637 15.903 189.858 16.0328ZM190.897 18.2397V18.8239C190.897 21.1606 189.469 21.8746 188.041 21.9395C186.872 21.9395 186.288 21.1606 186.288 20.3817C186.288 19.3431 187.002 18.8239 187.911 18.6941L190.897 18.2397Z" fill="#0067AC"/>
<path d="M205.631 14.4742C205.241 14.4093 204.852 14.3444 204.527 14.3444C202.71 14.3444 201.087 15.2531 201.087 18.1091V24.2105H197.517V10.9042H201.022V12.8515C201.866 11.099 203.684 10.7744 204.787 10.7744C205.112 10.7744 205.371 10.7744 205.631 10.8393V14.4742Z" fill="#0067AC"/>
<path d="M215.172 16.4867L220.625 24.2108H216.211L212.706 19.148L211.213 20.7058V24.2108H207.643V4.6084H211.213V15.8376L215.822 10.9045H220.56L215.172 16.4867Z" fill="#0067AC"/>
<path fill-rule="evenodd" clip-rule="evenodd" d="M227.44 24.6003C230.686 24.6003 232.828 22.653 233.477 20.3812L230.491 19.4725C230.037 20.6409 229.128 21.4847 227.44 21.4847C225.623 21.4847 224.13 20.1865 224.065 18.434H233.607C233.607 18.417 233.611 18.3691 233.618 18.2982C233.636 18.0978 233.671 17.7142 233.671 17.3305C233.671 13.0465 231.205 10.4502 227.116 10.4502C223.675 10.4502 220.56 13.2413 220.56 17.4603C220.56 22.0039 223.805 24.6003 227.44 24.6003ZM227.181 13.436C229.258 13.436 230.101 14.7342 230.166 16.0323H224.195C224.26 14.864 225.298 13.436 227.181 13.436Z" fill="#0067AC"/>
<path d="M240.422 10.9042H243.083V14.0848H240.422V19.6669C240.422 20.8353 240.941 21.2247 241.98 21.2247C242.434 21.2247 242.888 21.1598 243.083 21.0949V24.0807C242.759 24.2105 242.11 24.4052 241.071 24.4052C238.475 24.4052 236.852 22.8474 236.852 20.316V14.0848H234.45V10.9042H235.099C236.527 10.9042 237.176 9.9955 237.176 8.76224V6.87988H240.422V10.9042Z" fill="#0067AC"/>
<path fill-rule="evenodd" clip-rule="evenodd" d="M256.909 11.1639L253.923 28.2998H256.26L257.428 21.809C257.882 22.9124 259.181 23.8211 261.063 23.8211C264.698 23.8211 267.294 20.9651 267.943 17.3303C268.527 13.7603 267.099 10.9043 263.4 10.9043C261.452 10.9043 259.83 11.8779 258.921 13.1112L259.245 11.1639H256.909ZM258.207 17.3303C258.661 14.8637 260.414 13.0463 262.621 13.0463C264.828 13.0463 265.931 14.8637 265.542 17.3303C265.087 19.8617 263.335 21.6791 261.128 21.6791C258.921 21.6791 257.753 19.8617 258.207 17.3303Z" fill="#FDDC00"/>
<path d="M269.112 23.497L272.357 4.99805H274.759L271.513 23.497H269.112Z" fill="#FDDC00"/>
<path fill-rule="evenodd" clip-rule="evenodd" d="M282.483 15.9676L279.043 16.422C276.901 16.7465 275.083 17.9798 274.694 20.1218C274.304 22.0691 275.602 23.8216 278.134 23.8216C280.341 23.8216 281.769 22.6532 282.483 21.8094C282.288 22.7181 282.288 23.1725 282.288 23.497H284.625C284.625 23.1725 284.625 22.5883 284.819 21.4849L285.923 15.3185C286.312 12.9169 285.274 10.8398 281.574 10.8398C278.913 10.8398 276.511 12.4626 275.862 14.7993L278.069 15.3185C278.523 13.8906 279.627 12.852 281.314 12.852C283.197 12.852 283.781 13.8256 283.586 15.0589C283.521 15.5133 283.262 15.8378 282.483 15.9676ZM283.132 17.5904L283.002 18.1745C282.548 20.9007 280.795 21.8094 278.848 21.8094C277.615 21.8094 277.03 20.9007 277.16 19.992C277.355 18.8885 278.264 18.3043 279.302 18.1745L283.132 17.5904Z" fill="#FDDC00"/>
<path d="M290.012 17.3307C289.493 20.1218 290.986 21.6796 292.998 21.6796C295.27 21.6796 296.438 20.1218 296.892 19.1482L298.84 20.0569C297.931 21.8094 295.789 23.8865 292.609 23.8865C289.039 23.8865 286.897 21.0954 287.546 17.3307C288.195 13.5011 291.375 10.8398 294.88 10.8398C298.126 10.8398 299.489 12.852 299.684 14.7344L297.347 15.6431C297.282 14.4098 296.633 13.0467 294.491 13.0467C292.544 13.0467 290.467 14.4747 290.012 17.3307Z" fill="#FDDC00"/>
<path fill-rule="evenodd" clip-rule="evenodd" d="M305.201 23.8865C308.122 23.8865 310.329 22.134 311.432 19.992L309.42 19.278C308.706 20.6411 307.537 21.7445 305.525 21.7445C303.448 21.7445 302.15 20.2516 302.475 18.0447H311.757C311.821 17.85 311.886 17.5904 311.951 17.2658C312.6 13.4362 310.913 10.8398 307.148 10.8398C304.097 10.8398 300.787 13.5011 300.138 17.3307C299.424 21.4849 301.89 23.8865 305.201 23.8865ZM306.888 12.9169C309.03 12.9169 309.939 14.28 309.679 16.0325H302.994C303.383 14.4747 304.876 12.9169 306.888 12.9169Z" fill="#FDDC00"/>
</svg>
