<svg width="24" height="24" viewBox="0 0 24 24" fill="none" xmlns="http://www.w3.org/2000/svg">
<path fill-rule="evenodd" clip-rule="evenodd" d="M11 13C12.0878 13 13.1512 12.6774 14.0556 12.0731C14.9601 11.4687 15.6651 10.6098 16.0813 9.60476C16.4976 8.59977 16.6065 7.4939 16.3943 6.42701C16.1821 5.36011 15.6583 4.3801 14.8891 3.61092C14.1199 2.84173 13.1399 2.3179 12.073 2.10568C11.0061 1.89346 9.90023 2.00238 8.89524 2.41867C7.89025 2.83495 7.03126 3.5399 6.42692 4.44437C5.82257 5.34884 5.5 6.41221 5.5 7.5C5.5 8.95869 6.07946 10.3576 7.11091 11.3891C8.14236 12.4205 9.54131 13 11 13ZM11 4C11.6922 4 12.3689 4.20527 12.9445 4.58986C13.5201 4.97444 13.9687 5.52107 14.2336 6.16061C14.4985 6.80015 14.5678 7.50389 14.4327 8.18282C14.2977 8.86175 13.9644 9.48539 13.4749 9.97488C12.9854 10.4644 12.3617 10.7977 11.6828 10.9328C11.0039 11.0678 10.3001 10.9985 9.66061 10.7336C9.02107 10.4687 8.47444 10.0201 8.08986 9.4445C7.70527 8.86893 7.5 8.19224 7.5 7.5C7.5 6.57174 7.86875 5.68151 8.52513 5.02513C9.1815 4.36875 10.0717 4 11 4Z" fill="#006FB9"/>
<path d="M13.8 14H13.58C13.4538 13.9847 13.3262 13.9847 13.2 14L12.86 14.06H12.72C12.1581 14.2172 11.5819 14.3177 11 14.36C10.4035 14.3173 9.81337 14.21 9.24 14.04C9.13875 14.0104 9.03497 13.9903 8.93 13.98L8.52 14H8.11C5.31 14 3 16.05 3 18.6V19.78C3.0462 20.4025 3.3331 20.9825 3.79984 21.3969C4.26657 21.8114 4.87642 22.0277 5.5 22H13.31V20H5.45C5.17 20 5 19.83 5 19.71V18.47C5.1296 17.7335 5.52957 17.072 6.12152 16.6151C6.71348 16.1582 7.45473 15.9388 8.2 16H8.65L8.8 16.05C10.283 16.5199 11.8776 16.5024 13.35 16H13.46L14.46 15.92H18C17.4882 15.306 16.8452 14.8148 16.1183 14.4825C15.3914 14.1502 14.5991 13.9853 13.8 14Z" fill="#006FB9"/>
<path d="M18.2502 18.9H20.2502C20.2767 18.8957 20.3038 18.8971 20.3297 18.9041C20.3557 18.9111 20.3798 18.9235 20.4006 18.9405C20.4214 18.9575 20.4384 18.9787 20.4503 19.0028C20.4623 19.0268 20.4691 19.0531 20.4702 19.08V20.4C20.4676 20.4486 20.4464 20.4944 20.4111 20.5279C20.3757 20.5614 20.3289 20.58 20.2802 20.58H18.2802V22.58C18.2815 22.6044 18.2779 22.6289 18.2694 22.6519C18.261 22.6749 18.248 22.696 18.2311 22.7138C18.2143 22.7315 18.1939 22.7457 18.1714 22.7554C18.1489 22.765 18.1247 22.77 18.1002 22.77H16.7802C16.7557 22.77 16.7314 22.765 16.7089 22.7554C16.6864 22.7457 16.6661 22.7315 16.6492 22.7138C16.6324 22.696 16.6193 22.6749 16.6109 22.6519C16.6024 22.6289 16.5988 22.6044 16.6002 22.58V20.58H14.6002C14.5757 20.5813 14.5512 20.5777 14.5282 20.5692C14.5052 20.5608 14.4842 20.5478 14.4664 20.5309C14.4486 20.5141 14.4344 20.4938 14.4247 20.4712C14.4151 20.4487 14.4101 20.4245 14.4102 20.4V19.08C14.4101 19.0555 14.4151 19.0312 14.4247 19.0087C14.4344 18.9862 14.4486 18.9659 14.4664 18.949C14.4842 18.9322 14.5052 18.9191 14.5282 18.9107C14.5512 18.9022 14.5757 18.8986 14.6002 18.9H16.6002V16.9C16.5988 16.8755 16.6024 16.851 16.6109 16.828C16.6193 16.805 16.6324 16.784 16.6492 16.7662C16.6661 16.7484 16.6864 16.7342 16.7089 16.7246C16.7314 16.7149 16.7557 16.7099 16.7802 16.71H18.0702C18.0947 16.7099 18.1189 16.7149 18.1414 16.7246C18.1639 16.7342 18.1843 16.7484 18.2011 16.7662C18.218 16.784 18.231 16.805 18.2394 16.828C18.2479 16.851 18.2515 16.8755 18.2502 16.9V18.9Z" fill="#006FB9"/>
</svg>
